<?xml version="1.0" standalone="no"?>
<!DOCTYPE svg PUBLIC "-//W3C//DTD SVG 1.1//EN" "http://www.w3.org/Graphics/SVG/1.1/DTD/svg11.dtd" >
<svg>
<metadata>
Created by FontForge 20090622 at Mon Mar 21 16:22:45 2016
 By deploy user
Copyright &#195;&#130;&#194;&#169; 2014 by Timo Gaessner. All rights reserved.
</metadata>
<defs>
<font id="Font" horiz-adv-x="650" >
  <font-face 
    font-family="Font"
    font-weight="300"
    font-stretch="normal"
    units-per-em="1000"
    panose-1="2 11 3 0 0 0 0 0 0 0"
    ascent="800"
    descent="-200"
    x-height="560"
    cap-height="700"
    bbox="-173 -252 2175 1063"
    underline-thickness="60"
    underline-position="-120"
    unicode-range="U+0020-U+FB02"
  />
<missing-glyph horiz-adv-x="686" 
d="M342 715q61 0 114.5 -24t93.5 -64.5t63 -93t23 -110.5v-423h-28l-65 65l-68 -65l-63 65l-71 -65l-69 65l-63 -65l-67 65l-66 -65h-26v423q0 58 23 110.5t62.5 93t93 64.5t113.5 24zM213 396l-63 64l-14 -14l63 -64l-63 -63l14 -14l63 63l64 -63l14 14l-64 63l64 64
l-14 14zM473 396l-63 64l-14 -14l63 -64l-63 -63l14 -14l63 63l64 -63l14 14l-64 63l64 64l-14 14z" />
    <glyph glyph-name="fi" unicode="fi" horiz-adv-x="582" 
d="M484 0h-75v560h75v-560zM232 785q29 0 54.5 -10t40.5 -23l-16 -71h-3q-11 12 -29 20.5t-37 8.5q-47 0 -47 -49v-101h126v-68h-126v-492h-75v492h-104v68h104v116q0 52 32 80.5t80 28.5zM446 746q29 0 44.5 -16.5t15.5 -43.5q0 -26 -15.5 -42.5t-44.5 -16.5t-44.5 16.5
t-15.5 42.5q0 27 15.5 43.5t44.5 16.5z" />
    <glyph glyph-name="fl" unicode="fl" horiz-adv-x="560" 
d="M484 0h-75v743h75v-743zM232 785q29 0 54.5 -10t40.5 -23l-16 -71h-3q-11 12 -29 20.5t-37 8.5q-47 0 -47 -49v-101h126v-68h-126v-492h-75v492h-104v68h104v116q0 52 32 80.5t80 28.5z" />
    <glyph glyph-name="f_f_i" unicode="ffi" horiz-adv-x="899" 
d="M234 785q42 0 74.5 -16.5t47.5 -31.5l-23 -72h-3q-11 13 -34 29t-51 16q-50 0 -50 -55v-95h116v-68h-116v-492h-75v492h-104v68h104v105q0 60 33 90t81 30zM571 785q29 0 54.5 -10t39.5 -23l-15 -71h-4q-11 12 -28.5 20.5t-37.5 8.5q-47 0 -47 -49v-101h127v-68h-127
v-492h-75v492h-99v68h99v116q0 52 32.5 80.5t80.5 28.5zM824 0h-75v560h75v-560zM786 746q29 0 44.5 -16.5t15.5 -43.5q0 -26 -15.5 -42.5t-44.5 -16.5t-44.5 16.5t-15.5 42.5q0 27 15.5 43.5t44.5 16.5z" />
    <glyph glyph-name="f_f_l" unicode="ffl" horiz-adv-x="899" 
d="M234 785q42 0 74.5 -16.5t47.5 -31.5l-23 -72h-3q-11 13 -34 29t-51 16q-50 0 -50 -55v-95h116v-68h-116v-492h-75v492h-104v68h104v105q0 60 33 90t81 30zM571 785q29 0 54.5 -10t39.5 -23l-15 -71h-4q-11 12 -28.5 20.5t-37.5 8.5q-47 0 -47 -49v-101h127v-68h-127
v-492h-75v492h-99v68h99v116q0 52 32.5 80.5t80.5 28.5zM823 0h-75v742h75v-742z" />
    <glyph glyph-name=".notdef" horiz-adv-x="686" 
d="M342 715q61 0 114.5 -24t93.5 -64.5t63 -93t23 -110.5v-423h-28l-65 65l-68 -65l-63 65l-71 -65l-69 65l-63 -65l-67 65l-66 -65h-26v423q0 58 23 110.5t62.5 93t93 64.5t113.5 24zM213 396l-63 64l-14 -14l63 -64l-63 -63l14 -14l63 63l64 -63l14 14l-64 63l64 64
l-14 14zM473 396l-63 64l-14 -14l63 -64l-63 -63l14 -14l63 63l64 -63l14 14l-64 63l64 64l-14 14z" />
    <glyph glyph-name=".null" horiz-adv-x="0" 
 />
    <glyph glyph-name="nonmarkingreturn" horiz-adv-x="250" 
 />
    <glyph glyph-name="space" unicode=" " horiz-adv-x="256" 
 />
    <glyph glyph-name="exclam" unicode="!" horiz-adv-x="307" 
d="M199 477l-15 -280h-62l-14 280v223h91v-223zM154 129q33 0 50.5 -19t17.5 -49q0 -29 -17.5 -48t-50.5 -19t-50.5 19t-17.5 48q0 30 17.5 49t50.5 19z" />
    <glyph glyph-name="quotedbl" unicode="&#x22;" horiz-adv-x="327" 
d="M117 476h-45l-16 224h77zM256 476h-45l-16 224h77z" />
    <glyph glyph-name="numbersign" unicode="#" horiz-adv-x="641" 
d="M459 533h127v-64h-135l-21 -162h126v-64h-134l-22 -175h-68l23 175h-108l-22 -175h-67l22 175h-124v64h132l21 162h-123v64h131l22 167h67l-22 -167h108l22 167h67zM276 469l-21 -162h108l21 162h-108z" />
    <glyph glyph-name="dollar" unicode="$" horiz-adv-x="645" 
d="M355 708q66 -12 113.5 -47t76.5 -78l-45 -71h-3q-23 42 -58 74.5t-84 46.5v-238q57 -22 99 -42.5t69.5 -45t41.5 -55t14 -73.5q0 -88 -60 -138.5t-164 -52.5v-108h-70v110q-44 7 -80.5 22t-65 34.5t-49.5 41.5t-34 42l41 76h4q33 -52 78 -88.5t106 -50.5v272
q-54 19 -92 38t-63 41.5t-36.5 50t-11.5 63.5q0 38 14.5 70.5t41 56.5t64 37.5t83.5 15.5v100h70v-104zM355 62q72 2 109.5 33.5t37.5 80.5q0 24 -8 43t-25 35.5t-45.5 31.5t-68.5 30v-254zM284 640q-62 -3 -93 -33t-31 -73q0 -18 5 -33t19 -28.5t38 -26t62 -27.5v221z" />
    <glyph glyph-name="percent" unicode="%" horiz-adv-x="926" 
d="M221 706q41 0 72 -17.5t52 -48t31.5 -71t10.5 -85.5q0 -35 -7 -72t-26 -68t-51 -50.5t-82 -19.5t-81.5 19.5t-50.5 50.5t-26 68t-7 72q0 45 10.5 85.5t31.5 71t51.5 48t71.5 17.5zM221 643q-24 0 -42 -13t-30 -35t-18 -50.5t-6 -59.5q0 -26 4.5 -52t15 -47t29 -34
t47.5 -13q28 0 47 13t29.5 34t15 47t4.5 52q0 31 -6 59.5t-18 50.5t-30 35t-42 13zM704 702l-418 -747l-59 35l419 747zM704 427q41 0 72 -17.5t52 -48t31.5 -71t10.5 -85.5q0 -35 -7 -72t-26 -68t-51 -50.5t-82 -19.5t-81.5 19.5t-50.5 50.5t-26 68t-7 72q0 45 10.5 85.5
t31.5 71t51.5 48t71.5 17.5zM704 364q-24 0 -42 -13t-30 -35t-18 -50.5t-6 -59.5q0 -26 4.5 -52t15 -47t29 -34t47.5 -13q28 0 47 13t29.5 34t15 47t4.5 52q0 31 -6 59.5t-18 50.5t-30 35t-42 13z" />
    <glyph glyph-name="ampersand" unicode="&#x26;" horiz-adv-x="608" 
d="M276 712q36 0 66 -11.5t51.5 -31.5t33.5 -46.5t12 -56.5q0 -34 -12 -61t-31 -50.5t-43 -44.5l-48 -43l138 -168l52 77h4l45 -56l-54 -78l93 -112l-54 -46l-83 100q-13 -17 -30.5 -34t-40.5 -31t-53 -22.5t-69 -8.5q-35 0 -68.5 10.5t-60 32t-42.5 54.5t-16 79
q0 35 11.5 65.5t30.5 56.5t43 48t49 42q-37 41 -63 83.5t-26 97.5q0 34 12.5 62.5t34 49t52 32t66.5 11.5zM245 325l-36.5 -32t-33.5 -36.5t-24 -41.5t-9 -47q0 -30 11 -50.5t28 -33t37.5 -18t39.5 -5.5q50 0 83.5 22t56.5 56zM276 644q-36 0 -63 -21.5t-27 -68.5
q0 -40 22.5 -71.5t48.5 -63.5l34.5 30t35 33.5t27.5 37t11 42.5q0 39 -27 60.5t-62 21.5z" />
    <glyph glyph-name="quotesingle" unicode="'" horiz-adv-x="188" 
d="M117 476h-45l-16 224h77z" />
    <glyph glyph-name="parenleft" unicode="(" horiz-adv-x="312" 
d="M277 758q-35 -60 -61 -132q-23 -62 -42 -146t-19 -184q0 -106 17.5 -188t38.5 -140q25 -68 56 -118h-76q-32 47 -58 113q-22 57 -39.5 139.5t-17.5 193.5q0 100 20.5 184.5t45.5 146.5q29 72 66 131h69z" />
    <glyph glyph-name="parenright" unicode=")" horiz-adv-x="312" 
d="M35.0166 758q34.998 -60 60.9971 -132q22.998 -62 41.9971 -146t18.999 -184q0 -106 -17.499 -188t-38.498 -140q-24.998 -68 -55.9961 -118h75.9951q31.998 47 57.9961 113q21.999 57 39.498 139.5t17.499 193.5q0 100 -20.499 184.5t-45.4971 146.5
q-28.998 72 -65.9961 131h-68.9961z" />
    <glyph glyph-name="asterisk" unicode="*" horiz-adv-x="450" 
d="M240 555l118 79l36 -85l-147 -23l120 -110l-70 -60l-72 135l-72 -135l-70 60l120 110l-147 23l36 85l117 -79l-30 145h92z" />
    <glyph glyph-name="plus" unicode="+" horiz-adv-x="574" 
d="M324 390h195v-68h-195v-225h-73v225h-195v68h195v195h73v-195z" />
    <glyph glyph-name="comma" unicode="," horiz-adv-x="250" 
d="M124 127q32 0 51.5 -22t19.5 -57q0 -20 -6 -39.5t-15.5 -37.5t-21.5 -34t-23 -28h-44v3q12 17 23 42.5t11 45.5q-30 0 -46.5 18t-16.5 44q0 29 18 47t50 18z" />
    <glyph glyph-name="hyphen" unicode="-" horiz-adv-x="406" 
d="M351 281h-295v68h295v-68z" />
    <glyph glyph-name="period" unicode="." horiz-adv-x="247" 
d="M124 129q32 0 49.5 -19t17.5 -48q0 -30 -17.5 -49t-49.5 -19q-33 0 -50.5 19t-17.5 49q0 29 17.5 48t50.5 19z" />
    <glyph glyph-name="slash" unicode="/" horiz-adv-x="496" 
d="M480 781l-401 -881l-63 29l402 881z" />
    <glyph glyph-name="zero" unicode="0" horiz-adv-x="657" 
d="M329 712q67 0 118 -29.5t85.5 -80t52 -118t17.5 -143.5q0 -38 -5 -79.5t-17.5 -80.5t-32.5 -74t-50.5 -61.5t-72 -42t-95.5 -15.5q-55 0 -96 15.5t-71.5 42t-50.5 61.5t-32.5 74t-17.5 80t-5 80q0 76 17.5 143.5t52 118t85.5 80t118 29.5zM328 640q-52 0 -89 -25
t-60.5 -67t-34.5 -96t-11 -111q0 -48 8.5 -97.5t30.5 -90t60 -66t96 -25.5t96 25.5t60 66t30.5 90t8.5 97.5q0 57 -11 111t-34.5 96t-60.5 67t-89 25z" />
    <glyph glyph-name="one" unicode="1" horiz-adv-x="381" 
d="M276 0h-75v599h-3l-145 -159l-52 53l197 207h78v-700z" />
    <glyph glyph-name="two" unicode="2" horiz-adv-x="525" 
d="M269 712q51 0 91 -16.5t67.5 -44t41.5 -64.5t14 -78q0 -47 -18 -89t-54.5 -87.5t-91.5 -98.5l-130 -122l-42 -39h343v-73h-438l1 82l118 113l103.5 98.5t74 78t44.5 67.5t15 68q0 27 -8.5 52t-26 43.5t-43.5 30t-62 11.5q-38 0 -67.5 -14.5t-50.5 -38.5t-35 -54.5
t-21 -62.5h-2l-56 51q6 29 23.5 62t46 60.5t69 46t94.5 18.5z" />
    <glyph glyph-name="three" unicode="3" horiz-adv-x="586" 
d="M501 636l-243 -202l1 -2q8 3 22 5t27 2q43 0 83.5 -14.5t71.5 -43t49.5 -70.5t18.5 -97q0 -54 -18.5 -96t-50.5 -71t-76.5 -44t-95.5 -15q-54 0 -97 17t-75 42.5t-52.5 55t-29.5 53.5l51 55h3q10 -27 27.5 -54t42 -49.5t57.5 -36.5t74 -14q40 0 71 12t52 33t32 50t11 64
q0 73 -44 119t-125 46q-32 0 -56 -5.5t-43 -13.5l-42 61l256 209h-308v68h406v-64z" />
    <glyph glyph-name="four" unicode="4" horiz-adv-x="604" 
d="M471 208h68v-68h-65v-140h-78v140h-350v62l307 498h118v-492zM394 638l-264 -430h266v430h-2z" />
    <glyph glyph-name="five" unicode="5" horiz-adv-x="597" 
d="M482 632h-324v-215l2 -1q28 20 67 32t87 12q49 0 92.5 -16t76.5 -46t52 -73t19 -97t-18 -98t-51 -75.5t-78 -49t-99 -17.5t-98 17t-76 42.5t-53 55.5t-30 55l52 53h2q10 -27 27.5 -54t42.5 -49.5t58 -36.5t75 -14q39 0 70.5 13t54 35.5t35 54t12.5 69.5q0 37 -13 68
t-36 53t-55 34.5t-70 12.5q-47 0 -82 -15t-68 -39l-68 27v330h394v-68z" />
    <glyph glyph-name="six" unicode="6" horiz-adv-x="607" 
d="M331 712q36 0 67.5 -9.5t56.5 -25.5t44 -35.5t31 -39.5l-43 -61h-2q-26 45 -64 74t-91 29q-49 0 -86 -24t-61.5 -65t-37 -95t-12.5 -115l2 -1q11 21 29 41t42.5 35t55.5 24t67 9q43 0 84.5 -15t73 -44t51 -73t19.5 -101q0 -54 -17 -97t-47.5 -73t-73 -46t-94.5 -16
q-58 0 -107 20.5t-85 63t-56.5 108.5t-20.5 157q0 82 19.5 151t55.5 118.5t87 77.5t113 28zM325 387q-38 0 -68.5 -13.5t-52.5 -36t-33.5 -52.5t-11.5 -63q0 -30 10 -59.5t30.5 -53t51.5 -37.5t73 -14q75 0 116 45t41 118q0 37 -11.5 67.5t-32 52.5t-49.5 34t-63 12z" />
    <glyph glyph-name="seven" unicode="7" horiz-adv-x="524" 
d="M488 626l-332 -626h-88l336 625h-371v75h455v-74z" />
    <glyph glyph-name="eight" unicode="8" horiz-adv-x="574" 
d="M288 712q47 0 85 -16t65 -42.5t41.5 -61.5t14.5 -73q0 -53 -26.5 -96.5t-78.5 -63.5v-2q53 -19 86.5 -65.5t33.5 -110.5q0 -49 -18 -85.5t-48.5 -60.5t-70.5 -35.5t-84 -11.5t-84 11.5t-71 35.5t-49 60.5t-18 85.5q0 64 35.5 110.5t87.5 65.5v1q-52 20 -80 64t-28 97
q0 38 14.5 73t41.5 61.5t65.5 42.5t85.5 16zM287 322q-69 0 -107 -38.5t-38 -96.5q0 -59 40 -93t105 -34t105 34t40 93q0 58 -38 96.5t-107 38.5zM288 645q-29 0 -53 -9.5t-41.5 -26.5t-27.5 -40.5t-10 -51.5q0 -26 9 -49t26.5 -40t42 -26.5t54.5 -9.5t54.5 9.5t41.5 26.5
t26 40t9 49q0 28 -10 51.5t-27 40.5t-41.5 26.5t-52.5 9.5z" />
    <glyph glyph-name="nine" unicode="9" horiz-adv-x="594" 
d="M284 712q46 0 91.5 -18t82 -61t59 -113t22.5 -175q0 -94 -18 -161.5t-50 -111t-76.5 -64t-96.5 -20.5q-74 0 -126.5 28t-83.5 67l36 66h4q28 -37 69 -64t95 -27q36 0 66.5 14.5t53.5 47t36.5 84t13.5 125.5h-2q-10 -19 -26.5 -36.5t-40 -30.5t-53 -21t-65.5 -8
q-57 0 -99 19.5t-69.5 52.5t-41.5 75.5t-14 88.5q0 55 18.5 99.5t50 76.5t74 49.5t90.5 17.5zM283 644q-42 0 -71.5 -15t-48.5 -40t-28 -56t-9 -63q0 -35 10 -66t29.5 -54t48 -36t65.5 -13q44 0 75 14t50.5 37.5t28.5 54t9 63.5q0 32 -10 63.5t-29.5 56t-49.5 39.5t-70 15z
" />
    <glyph glyph-name="colon" unicode=":" horiz-adv-x="267" 
d="M134 129q32 0 49.5 -19t17.5 -48q0 -30 -17.5 -49t-49.5 -19q-33 0 -50.5 19t-17.5 49q0 29 17.5 48t50.5 19zM134 485q32 0 49.5 -19t17.5 -48q0 -30 -17.5 -49t-49.5 -19q-33 0 -50.5 19t-17.5 49q0 29 17.5 48t50.5 19z" />
    <glyph glyph-name="semicolon" unicode=";" horiz-adv-x="269" 
d="M136.518 123.457q31.3594 0 50.4688 -21.5586q19.1094 -21.5605 19.1094 -55.8594q0 -19.5996 -5.87891 -38.709q-5.88086 -19.1094 -15.1904 -36.75q-9.30957 -17.6387 -21.0693 -33.3184t-22.5391 -27.4395h-43.1191v2.93945q11.7598 16.6602 22.5391 41.6494
t10.7793 44.5889q-29.3984 0 -45.5684 17.6396t-16.1699 43.1191q0 28.4189 17.6396 46.0596q17.6396 17.6387 48.999 17.6387zM134 485q32 0 49.5 -19t17.5 -48q0 -30 -17.5 -49t-49.5 -19q-33 0 -50.5 19t-17.5 49q0 29 17.5 48t50.5 19z" />
    <glyph glyph-name="less" unicode="&#x3c;" horiz-adv-x="584" 
d="M56 320v69l473 206v-77l-379 -164l379 -163v-77z" />
    <glyph glyph-name="equal" unicode="=" horiz-adv-x="584" 
d="M529 409h-473v70h473v-70zM529 226h-473v70h473v-70z" />
    <glyph glyph-name="greater" unicode="&#x3e;" horiz-adv-x="584" 
d="M528.004 320v69l-472.972 206v-77l378.977 -164l-378.977 -163v-77z" />
    <glyph glyph-name="question" unicode="?" horiz-adv-x="516" 
d="M277 712q39 0 70.5 -11.5t53 -31t33.5 -46t12 -55.5t-8.5 -50.5t-26.5 -39t-45.5 -33.5t-64.5 -35q-39 -20 -61.5 -33t-34 -23.5t-14.5 -20.5t-3 -23q0 -24 15.5 -36t44.5 -12q13 0 29.5 5t33 14t32 22t26.5 29h4l39 -62q-12 -16 -30 -30.5t-40.5 -25.5t-48 -17.5
t-52.5 -6.5q-58 0 -95 32.5t-37 86.5q0 24 6 43t21.5 36.5t42 35t68.5 38.5l60.5 32t37 24.5t18 23t4.5 27.5q0 29 -23.5 49t-65.5 20q-49 0 -88 -31t-62 -76h-4l-48 68q10 18 28 38t43.5 36.5t58 27.5t71.5 11zM264 129q33 0 50.5 -19t17.5 -48t-17.5 -48.5t-50.5 -19.5
t-50.5 19.5t-17.5 48.5t17.5 48t50.5 19z" />
    <glyph glyph-name="at" unicode="@" horiz-adv-x="773" 
d="M397 642q72 0 131.5 -26t101.5 -72t65 -107.5t23 -132.5q0 -57 -12 -96t-32 -62.5t-46 -34t-54 -10.5q-36 0 -60.5 15t-35.5 38h-1q-11 -21 -37 -37t-67 -16q-32 0 -58.5 13t-45.5 36.5t-29 56t-10 71.5t11 71.5t30.5 56.5t47 37.5t59.5 13.5q29 0 52 -12t33 -29h2l7 33
h53v-215q0 -38 10 -53t36 -15q38 0 58 36t20 102q0 59 -18 109t-51 87t-79.5 57.5t-103.5 20.5q-59 0 -109 -23t-86 -63.5t-56.5 -96t-20.5 -119.5q0 -63 18 -116t52 -92t83.5 -61t112.5 -22q27 0 52 5.5t45 12.5t35 14.5t22 12.5h4l20 -66q-9 -5 -25.5 -12.5t-40 -15
t-52 -13t-60.5 -5.5q-81 0 -143.5 26.5t-105 74.5t-64.5 113.5t-22 143.5t25.5 145t71 116t108 77t136.5 28zM378 396q-21 0 -36.5 -10.5t-25.5 -27t-14.5 -37.5t-4.5 -42q0 -22 4.5 -42.5t14 -36t24.5 -25t36 -9.5q45 0 64 32.5t19 81.5q0 23 -4.5 44t-14.5 37t-25 25.5
t-37 9.5z" />
    <glyph glyph-name="A" unicode="A" horiz-adv-x="654" 
d="M634 0h-86l-73 214h-295l-74 -214h-85l247 700h118zM325 636l-125 -354h253l-125 354h-3z" />
    <glyph glyph-name="B" unicode="B" horiz-adv-x="616" 
d="M354 700q104 0 158 -47.5t54 -132.5q0 -60 -27.5 -99t-82.5 -62v-2q50 -19 80 -60.5t30 -109.5q0 -34 -11 -67.5t-38 -60t-72.5 -43t-115.5 -16.5h-243v700h268zM166 320v-247h166q81 0 118 33.5t37 90.5q0 58 -34.5 90.5t-111.5 32.5h-175zM166 627v-236h174
q63 0 104 32t41 91q0 51 -32 82t-105 31h-182z" />
    <glyph glyph-name="C" unicode="C" horiz-adv-x="659" 
d="M358 712q54 0 96.5 -16t74.5 -41.5t54.5 -57.5t34.5 -63l-59 -54h-4q-14 34 -32 63.5t-42 50.5t-54 33t-69 12q-54 0 -96.5 -24.5t-71.5 -65t-44 -92t-15 -104.5q0 -65 15 -118.5t44.5 -91.5t71.5 -59t96 -21q43 0 78 14.5t61 40.5t43.5 62t26.5 79h4l68 -53
q-31 -103 -102.5 -160.5t-178.5 -57.5q-70 0 -127 24.5t-97 71t-61.5 114.5t-21.5 155q0 68 21.5 132.5t61.5 115t97 81t127 30.5z" />
    <glyph glyph-name="D" unicode="D" horiz-adv-x="671" 
d="M289 700q173 0 252.5 -83t79.5 -264q0 -183 -83.5 -268t-256.5 -85h-191v700h199zM170 627v-554h118q70 0 118.5 19.5t78.5 55.5t43 88t13 117q0 67 -11.5 118.5t-40 86t-76.5 52t-120 17.5h-123z" />
    <glyph glyph-name="E" unicode="E" horiz-adv-x="554" 
d="M489 627h-323v-239h323v-68h-323v-247h323v-73h-403v700h403v-73z" />
    <glyph glyph-name="F" unicode="F" horiz-adv-x="564" 
d="M509 627h-343v-246h339v-69h-339v-312h-80v700h423v-73z" />
    <glyph glyph-name="G" unicode="G" horiz-adv-x="672" 
d="M358 712q54 0 96.5 -16t74.5 -41.5t54 -57t35 -61.5l-58 -56h-5q-14 34 -31.5 63.5t-41.5 51t-54.5 34t-69.5 12.5q-54 0 -96.5 -25t-71.5 -65.5t-44 -92.5t-15 -105q0 -65 15 -118.5t44.5 -91.5t71.5 -59t96 -21q36 0 67 8t55 21t41.5 28.5t27.5 30.5v99h-143v68h216
v-318h-47l-27 67h-2q-12 -14 -30 -28.5t-41.5 -25.5t-53 -18t-66.5 -7q-69 0 -125 23.5t-96 70t-61.5 114.5t-21.5 157q0 68 21.5 132.5t61.5 115t97 81t127 30.5z" />
    <glyph glyph-name="H" unicode="H" horiz-adv-x="658" 
d="M573 0h-80v323h-327v-323h-80v700h80v-310h327v310h80v-700z" />
    <glyph glyph-name="I" unicode="I" horiz-adv-x="251" 
d="M166 0h-80v700h80v-700z" />
    <glyph glyph-name="J" unicode="J" horiz-adv-x="466" 
d="M391 179q0 -42 -12.5 -77t-36.5 -60.5t-59 -39.5t-80 -14q-38 0 -68.5 11.5t-54 28.5t-39.5 38t-25 41l49 63h4q9 -20 22 -39t29.5 -33.5t36.5 -23.5t44 -9q49 0 79.5 30.5t30.5 99.5v505h80v-521z" />
    <glyph glyph-name="K" unicode="K" horiz-adv-x="577" 
d="M248 359l314 -359h-108l-287 332h-2v-332h-79v700h79v-322h2l275 322h103z" />
    <glyph glyph-name="L" unicode="L" horiz-adv-x="474" 
d="M166 72h283v-72h-363v700h80v-628z" />
    <glyph glyph-name="M" unicode="M" horiz-adv-x="853" 
d="M768 0h-76v628h-2l-219 -628h-88l-219 628h-2v-628h-76v700h133l206 -592h3l207 592h133v-700z" />
    <glyph glyph-name="N" unicode="N" horiz-adv-x="691" 
d="M606 0h-128l-311 627h-2v-627h-79v700h128l311 -627h2v627h79v-700z" />
    <glyph glyph-name="O" unicode="O" horiz-adv-x="715" 
d="M358 712q70 0 127 -30.5t97 -81t61.5 -115t21.5 -132.5q0 -89 -22 -157t-62 -114.5t-96.5 -70t-126.5 -23.5t-127 23.5t-97 70t-61.5 114.5t-21.5 157q0 68 21.5 132.5t61.5 115t97 81t127 30.5zM358 641q-55 0 -97.5 -25t-71 -65.5t-43.5 -92.5t-15 -105
q0 -65 15 -118.5t44.5 -91.5t71.5 -59t96 -21t96 20.5t71.5 58.5t44.5 91.5t15 119.5q0 54 -15 105.5t-43.5 92t-71 65.5t-97.5 25z" />
    <glyph glyph-name="P" unicode="P" horiz-adv-x="603" 
d="M347 700q104 0 162.5 -47.5t58.5 -153.5q0 -54 -18.5 -93t-50 -63.5t-74.5 -36.5t-91 -12h-168v-294h-80v700h261zM166 627v-260h154q82 0 125 31.5t43 100.5q0 66 -33 97t-117 31h-172z" />
    <glyph glyph-name="Q" unicode="Q" horiz-adv-x="729" 
d="M358 712q70 0 127 -30.5t97 -81t61.5 -115t21.5 -132.5q0 -72 -16 -130t-44 -103l94 -116v-4h-87l-53 65q-40 -38 -91 -57.5t-110 -19.5q-70 0 -127 23.5t-97 70t-61.5 114.5t-21.5 157q0 68 21.5 132.5t61.5 115t97 81t127 30.5zM358 641q-55 0 -97.5 -25t-71 -65.5
t-43.5 -92.5t-15 -105q0 -65 15 -118.5t44.5 -91.5t71.5 -59t96 -21q48 0 85.5 16t66.5 46l-175 215l55 46l161 -200q34 71 34 167q0 54 -15 105.5t-43.5 92t-71 65.5t-97.5 25z" />
    <glyph glyph-name="R" unicode="R" horiz-adv-x="629" 
d="M350 700q114 0 166 -51t52 -139q0 -90 -60 -138.5t-170 -51.5l227 -320h-100l-220 319h-79v-319h-80v700h264zM166 627v-238h154q81 0 124.5 29.5t43.5 91.5q0 64 -34.5 90.5t-115.5 26.5h-172z" />
    <glyph glyph-name="S" unicode="S" horiz-adv-x="604" 
d="M281 712q43 0 80.5 -11t69 -29t55.5 -41t40 -48l-44 -70h-5q-15 26 -35.5 49t-45 40t-53 27t-60.5 10q-35 0 -61 -9.5t-43 -25t-25.5 -36t-8.5 -42.5q0 -24 8 -42.5t28.5 -34t57 -29.5t93.5 -30q50 -14 91.5 -30t71.5 -39t46.5 -55.5t16.5 -78.5q0 -96 -63 -147.5
t-175 -51.5q-51 0 -95 13t-80.5 34t-64 46.5t-44.5 51.5l44 74h4q18 -27 41.5 -52.5t53 -46t64.5 -33t75 -12.5q82 0 122 32.5t40 89.5q0 30 -12 50.5t-37 36.5t-63.5 29t-90.5 28q-51 14 -90.5 31.5t-66 41t-40.5 53.5t-14 69q0 40 15 74.5t43 59.5t68 39.5t89 14.5z" />
    <glyph glyph-name="T" unicode="T" horiz-adv-x="554" 
d="M529 627h-212v-627h-80v627h-211v73h503v-73z" />
    <glyph glyph-name="U" unicode="U" horiz-adv-x="676" 
d="M601 258q0 -60 -15.5 -109.5t-48 -85t-82 -55.5t-116.5 -20q-68 0 -117.5 20t-81.5 55.5t-48 85t-16 109.5v442h80v-435q0 -97 45.5 -150t137.5 -53t137 53t45 150v435h80v-442z" />
    <glyph glyph-name="V" unicode="V" horiz-adv-x="610" 
d="M361 0h-111l-229 700h84l199 -620h2l199 620h85z" />
    <glyph glyph-name="W" unicode="W" horiz-adv-x="959" 
d="M741 0h-109l-152 611h-2l-150 -611h-110l-182 700h86l148 -611h2l151 611h114l151 -611h2l148 611h85z" />
    <glyph glyph-name="X" unicode="X" horiz-adv-x="561" 
d="M327 359l214 -359h-91l-171 295l-167 -295h-91l212 359l-202 341h90l158 -276l157 276h90z" />
    <glyph glyph-name="Y" unicode="Y" horiz-adv-x="545" 
d="M312 264v-264h-78v264l-218 436h89l168 -351l168 351h89z" />
    <glyph glyph-name="Z" unicode="Z" horiz-adv-x="526" 
d="M491 624l-369 -551h359v-73h-445v77l370 550h-361v73h446v-76z" />
    <glyph glyph-name="bracketleft" unicode="[" horiz-adv-x="251" 
d="M216 708h-68v-860h68v-70h-140v1000h140v-70z" />
    <glyph glyph-name="backslash" unicode="\" horiz-adv-x="496" 
d="M16.0293 781l400.976 -881l62.9961 29l-401.976 881z" />
    <glyph glyph-name="bracketright" unicode="]" horiz-adv-x="251" 
d="M35.0137 -151.957h67.9951v859.947h-67.9951v69.9961h139.991v-999.938h-139.991v69.9951z" />
    <glyph glyph-name="asciicircum" unicode="^" horiz-adv-x="549" 
d="M494 329h-79l-140 294l-140 -295h-79l183 372h72z" />
    <glyph glyph-name="underscore" unicode="_" horiz-adv-x="543" 
d="M488 -140h-432v68h432v-68z" />
    <glyph glyph-name="grave" unicode="`" horiz-adv-x="301" 
d="M246 625h-89l-101 106h128z" />
    <glyph glyph-name="a" unicode="a" horiz-adv-x="525" 
d="M269 572q42 0 77 -11.5t60 -32.5t39 -51t14 -67v-410h-64l-10 74h-3q-26 -38 -68.5 -62t-101.5 -24q-76 0 -118 42.5t-42 110.5q0 31 9 58t30 49t55 38.5t85 26.5t81 21.5t46.5 24t21.5 27t5 31.5q0 39 -29.5 63t-87.5 24q-57 0 -100.5 -33t-68.5 -84h-3l-45 64
q15 25 36.5 47t49.5 38.5t61 26t71 9.5zM382 311q-5 -9 -13 -16.5t-23 -14.5t-38.5 -14.5t-59.5 -15.5t-60 -19t-38 -24.5t-19.5 -29.5t-5.5 -34q0 -38 24 -62t68 -24q30 0 59.5 10t53.5 27.5t39 41.5t15 53v122h-2z" />
    <glyph glyph-name="b" unicode="b" horiz-adv-x="617" 
d="M151 484h2q11 16 28 32t39 28.5t49 20t59 7.5q53 0 97.5 -23t77 -63.5t51 -94.5t18.5 -116q0 -63 -16 -115.5t-46.5 -90.5t-76 -59.5t-103.5 -21.5q-64 0 -108 25.5t-67 60.5h-3l-10 -74h-66v742h75v-258zM323 504q-41 0 -73 -16.5t-54.5 -46t-34 -71.5t-11.5 -93
q0 -100 45.5 -159t128.5 -59q42 0 74 16t54 45t33 68.5t11 86.5q0 46 -11.5 88t-33 73t-54 49.5t-74.5 18.5z" />
    <glyph glyph-name="c" unicode="c" horiz-adv-x="559" 
d="M304 572q44 0 80 -13t63 -34t45.5 -47t29.5 -53l-55 -53h-3q-20 58 -58.5 95t-101.5 37q-44 0 -78 -19t-57 -50.5t-35.5 -73t-12.5 -86.5q0 -47 12 -87t35.5 -68.5t57.5 -44.5t78 -16q37 0 65.5 12.5t49 34t34 49.5t20.5 60h3l62 -48q-12 -39 -32.5 -72t-50 -56.5
t-67 -37t-83.5 -13.5q-63 0 -111 21t-81 59.5t-50 91t-17 115.5t19.5 117t54 94t81.5 63t103 23z" />
    <glyph glyph-name="d" unicode="d" horiz-adv-x="617" 
d="M542 0h-66l-11 74h-2q-23 -35 -67.5 -60.5t-108.5 -25.5q-58 0 -103 21.5t-75.5 59.5t-46.5 90.5t-16 115.5q0 62 18.5 116t51 94.5t77 63.5t97.5 23q31 0 58.5 -7.5t49.5 -20t39 -28.5t28 -32h2v258h75v-742zM294 504q-42 0 -74.5 -18.5t-54 -49.5t-33 -73t-11.5 -88
q0 -47 11 -86.5t33 -68.5t54.5 -45t74.5 -16q82 0 127.5 59t45.5 159q0 51 -11.5 93t-34 71.5t-54.5 46t-73 16.5z" />
    <glyph glyph-name="e" unicode="e" horiz-adv-x="584" 
d="M298 572q51 0 95 -19.5t76.5 -56.5t51 -89.5t18.5 -118.5q0 -6 -0.5 -11.5t-0.5 -10.5v-11h-417q2 -44 15.5 -80t37 -62t56 -40t73.5 -14q34 0 62 10t50 25.5t38 34t27 35.5h4l37 -70q-32 -45 -89.5 -75.5t-127.5 -30.5q-64 0 -112.5 22t-80.5 61t-48.5 93t-16.5 118
t20 117t54.5 91.5t80.5 60t97 21.5zM297 504q-36 0 -66 -14t-53 -38.5t-37 -58t-18 -72.5h341q-3 45 -16.5 79.5t-36 57.5t-51.5 34.5t-63 11.5z" />
    <glyph glyph-name="f" unicode="f" horiz-adv-x="356" 
d="M234 785q42 0 74.5 -16.5t47.5 -31.5l-23 -72h-3q-11 13 -34 29t-51 16q-50 0 -50 -55v-95h146v-68h-146v-492h-75v492h-104v68h104v105q0 60 33 90t81 30z" />
    <glyph glyph-name="g" unicode="g" horiz-adv-x="597" 
d="M278 572q65 0 105 -25.5t61 -59.5h3l9 73h66v-525q0 -61 -16.5 -104.5t-46 -72t-71 -42t-91.5 -13.5q-35 0 -66 8.5t-56.5 21.5t-45 29t-32.5 31l35 65h3q11 -15 28 -30t37 -27.5t43.5 -20.5t47.5 -8q76 0 116 40.5t40 135.5v77h-4q-20 -30 -61 -53.5t-101 -23.5
q-55 0 -98.5 18.5t-74 52t-46.5 80.5t-16 105q0 57 17.5 106t49 85t73.5 56.5t92 20.5zM286 504q-42 0 -73 -16.5t-51.5 -44t-30.5 -64t-10 -75.5q0 -40 10.5 -74t31 -59t50.5 -39t69 -14q78 0 121.5 49t43.5 143q0 42 -11 77.5t-31.5 61.5t-50 40.5t-68.5 14.5z" />
    <glyph glyph-name="h" unicode="h" horiz-adv-x="585" 
d="M151 476h2q26 43 70.5 69.5t105.5 26.5q49 0 85 -16t59.5 -44t35 -65.5t11.5 -80.5v-366h-75v351q0 74 -32.5 113.5t-97.5 39.5q-36 0 -66 -14.5t-51.5 -41.5t-34 -66t-12.5 -89v-293h-75v742h75v-266z" />
    <glyph glyph-name="i" unicode="i" horiz-adv-x="226" 
d="M151 0h-75v560h75v-560zM114 756q29 0 44.5 -16.5t15.5 -43.5q0 -26 -15.5 -42.5t-44.5 -16.5t-44.5 16.5t-15.5 42.5q0 27 15.5 43.5t44.5 16.5z" />
    <glyph glyph-name="j" unicode="j" horiz-adv-x="215" 
d="M139 -49q0 -31 -8.5 -52.5t-22.5 -35t-32.5 -19.5t-38.5 -6q-21 0 -41.5 5.5t-34.5 13.5l11 71h3q11 -6 22.5 -10.5t25.5 -4.5q19 0 30 9.5t11 29.5v608h75v-609zM102 756q29 0 44.5 -16.5t15.5 -43.5q0 -26 -15.5 -42.5t-44.5 -16.5t-44.5 16.5t-15.5 42.5
q0 27 15.5 43.5t44.5 16.5z" />
    <glyph glyph-name="k" unicode="k" horiz-adv-x="479" 
d="M151 292h2l222 268h97l-240 -277l242 -283h-100l-220 266h-2v-266h-76v742h75v-450z" />
    <glyph glyph-name="l" unicode="l" horiz-adv-x="226" 
d="M151 0h-75v742h75v-742z" />
    <glyph glyph-name="m" unicode="m" horiz-adv-x="851" 
d="M623 572q76 0 119.5 -45.5t43.5 -127.5v-399h-75v371q0 73 -28.5 103t-77.5 30q-29 0 -53.5 -11.5t-43.5 -35t-29.5 -57.5t-10.5 -79v-321h-75v371q0 73 -28 103t-77 30q-29 0 -53.5 -12.5t-43.5 -35.5t-29.5 -57.5t-10.5 -77.5v-321h-75v560h66l8 -74h3q22 39 59.5 62.5
t94.5 23.5t94.5 -28t51.5 -67h2q20 39 62.5 67t105.5 28z" />
    <glyph glyph-name="n" unicode="n" horiz-adv-x="586" 
d="M329 572q48 0 84 -16t60 -44t36 -65.5t12 -80.5v-366h-75v351q0 74 -32.5 113.5t-98.5 39.5q-35 0 -65 -14.5t-52 -41t-34.5 -64.5t-12.5 -84v-300h-75v560h66l9 -77h2q26 39 71 64t105 25z" />
    <glyph glyph-name="o" unicode="o" horiz-adv-x="607" 
d="M304 572q56 0 103.5 -23.5t82 -63.5t53.5 -94.5t19 -115.5q0 -62 -16.5 -115t-49 -91t-80.5 -59.5t-111 -21.5t-111 21.5t-81 60t-50 91t-17 114.5q0 61 19.5 115.5t54 94.5t81.5 63.5t103 23.5zM304 504q-44 0 -78 -19t-57 -50.5t-35.5 -73t-12.5 -86.5q0 -47 12 -87
t35.5 -68.5t58 -44.5t78.5 -16t78 16t57 44.5t35 68.5t12 87q0 46 -12 87.5t-35.5 73t-57.5 50t-78 18.5z" />
    <glyph glyph-name="p" unicode="p" horiz-adv-x="612" 
d="M327 572q54 0 98 -23t75.5 -63.5t49 -94.5t17.5 -116q0 -63 -16 -115.5t-46.5 -90.5t-75 -59.5t-102.5 -21.5q-66 0 -108.5 26.5t-65.5 61.5h-2v-262h-75v746h69l9 -77h3q22 35 65 62t105 27zM321 504q-41 0 -73 -17t-54.5 -47.5t-34 -72t-11.5 -90.5t11.5 -89t34 -68.5
t55 -44.5t73.5 -16q42 0 74 16t53 45t32 68.5t11 86.5t-11.5 89t-33 73t-53.5 49t-73 18z" />
    <glyph glyph-name="q" unicode="q" horiz-adv-x="618" 
d="M286 572q62 0 105 -27t66 -62h2l10 77h68v-746h-75v262h-2q-23 -35 -65.5 -61.5t-108.5 -26.5q-58 0 -102.5 21.5t-75 59.5t-46.5 90.5t-16 115.5q0 62 17 116t48.5 94.5t76 63.5t98.5 23zM292 504q-41 0 -73 -18t-53.5 -49t-33 -73t-11.5 -89t11 -86.5t32 -68.5t53 -45
t74 -16q41 0 73.5 16t55 44.5t34 68.5t11.5 89t-11.5 90.5t-34 72t-54.5 47.5t-73 17z" />
    <glyph glyph-name="r" unicode="r" horiz-adv-x="370" 
d="M262 572q30 0 54.5 -10.5t36.5 -24.5l-15 -80h-4q-14 17 -34.5 27.5t-44.5 10.5q-46 0 -75 -45t-29 -136v-314h-75v560h64l9 -74h3q3 8 11 22.5t21.5 28.5t33 24.5t44.5 10.5z" />
    <glyph glyph-name="s" unicode="s" horiz-adv-x="525" 
d="M248 572q42 0 76.5 -10.5t61.5 -27t46 -36t30 -36.5l-41 -63h-4q-26 42 -68 73.5t-102 31.5q-29 0 -49.5 -8t-33.5 -20t-19 -27t-6 -29q0 -15 5 -28t21 -25.5t46.5 -25t81.5 -25.5q100 -26 143.5 -65.5t43.5 -107.5q0 -35 -14.5 -63.5t-40.5 -48.5t-62 -31.5t-78 -11.5
t-80 11t-69 28.5t-54.5 40t-36.5 45.5l43 65h3q31 -51 78.5 -85.5t112.5 -34.5t94.5 26t29.5 59q0 18 -5 33t-22.5 29t-50 27t-86.5 27q-95 24 -136 61t-41 99q0 29 12 56.5t35 49t57 34.5t79 13z" />
    <glyph glyph-name="t" unicode="t" horiz-adv-x="380" 
d="M191 560h162v-68h-162v-369q0 -35 13.5 -48t33.5 -13t39 8.5t30 16.5h3l19 -71q-15 -11 -43 -19.5t-57 -8.5q-21 0 -41.5 6.5t-36.5 20.5t-25.5 35t-9.5 51v391h-88v47q48 20 77.5 63.5t42.5 97.5h43v-140z" />
    <glyph glyph-name="u" unicode="u" horiz-adv-x="555" 
d="M491 0h-66l-11 78h-2q-21 -37 -63 -63.5t-101 -26.5q-45 0 -79.5 14.5t-57 40t-34 61.5t-11.5 79v377h75v-366q0 -136 116 -136q33 0 62 12.5t50.5 35.5t34 55.5t12.5 71.5v327h75v-560z" />
    <glyph glyph-name="v" unicode="v" horiz-adv-x="536" 
d="M321 0h-105l-195 560h79l167 -490h2l168 490h79z" />
    <glyph glyph-name="w" unicode="w" horiz-adv-x="808" 
d="M642 0h-105l-132 487h-2l-132 -487h-105l-135 560h79l109 -481h2l131 481h105l131 -481h2l108 481h79z" />
    <glyph glyph-name="x" unicode="x" horiz-adv-x="477" 
d="M291 284l164 -284h-87l-130 236l-130 -236h-87l165 283l-162 277h87l127 -230l132 230h87z" />
    <glyph glyph-name="y" unicode="y" horiz-adv-x="511" 
d="M229 -185h-85l79 222l-197 523h85l151 -431h2l137 431h85z" />
    <glyph glyph-name="z" unicode="z" horiz-adv-x="514" 
d="M448 485l-301 -417h302v-68h-383v77l300 415h-300v68h382v-75z" />
    <glyph glyph-name="braceleft" unicode="{" horiz-adv-x="336" 
d="M301 712h-33q-24 0 -34 -11.5t-10 -40.5v-284q0 -43 -15 -62t-44 -30v-1q59 -24 59 -92v-291q0 -30 10 -41.5t34 -11.5h33v-67h-42q-51 0 -79 24.5t-28 87.5v292q0 38 -16.5 51t-59.5 13v73q44 0 60 12.5t16 50.5v283q0 63 28 88t79 25h42v-68z" />
    <glyph glyph-name="bar" unicode="|" horiz-adv-x="281" 
d="M176 -252h-70v1046h70v-1046z" />
    <glyph glyph-name="braceright" unicode="}" horiz-adv-x="336" 
d="M35.0186 712h32.998q23.998 0 33.998 -11.5q9.99902 -11.5 9.99902 -40.5v-284q0 -43 14.999 -62t43.9971 -30v-1q-58.9961 -24 -58.9961 -92v-291q0 -30 -9.99902 -41.5q-10 -11.5 -33.998 -11.5h-32.998v-67h41.9971q50.9971 0 78.9951 24.5q27.999 24.5 27.999 87.5
v292q0 38 16.498 51q16.499 13 59.4971 13v73q-43.9971 0 -59.9971 12.5q-15.998 12.5 -15.998 50.5v283q0 63 -27.999 88q-27.998 25 -78.9951 25h-41.9971v-68z" />
    <glyph glyph-name="asciitilde" unicode="~" horiz-adv-x="581" 
d="M56 360q19 32 52 55t78 23q34 0 61.5 -13.5t56.5 -29.5q26 -15 48 -26.5t48 -11.5q32 0 55 24t36 52h4l31 -69q-19 -32 -52 -55t-78 -23q-35 0 -61 13.5l-54 29.5l-48 25.5t-51 11.5q-32 0 -55 -23.5t-36 -52.5h-3z" />
    <glyph glyph-name="uni00A0" unicode="&#xa0;" horiz-adv-x="250" 
 />
    <glyph glyph-name="exclamdown" unicode="&#xa1;" horiz-adv-x="307" 
d="M199 84.0293l-15 279.982h-62l-14 -279.982v-222.986h91v222.986zM154 432.008q33 0 50.5 18.999t17.5 48.9971q0 28.998 -17.5 47.9971t-50.5 18.999t-50.5 -18.999t-17.5 -47.9971q0 -29.998 17.5 -48.9971t50.5 -18.999z" />
    <glyph glyph-name="cent" unicode="&#xa2;" horiz-adv-x="621" 
d="M362 570q38 -5 68.5 -19t53.5 -33.5t39 -41t25 -41.5l-49 -59h-3q-17 48 -50 82t-84 43v-439q31 5 55.5 19t41.5 33.5t28 43t17 47.5h3l59 -52q-11 -32 -29 -60t-43.5 -49.5t-58.5 -35.5t-73 -18v-102h-71v102q-55 6 -97 30t-70.5 61.5t-43 87t-14.5 106.5q0 56 16.5 106
t46 89.5t71 65.5t91.5 33v83h71v-82zM291 500q-36 -8 -64 -28.5t-47 -51t-29 -68t-10 -77.5q0 -84 38.5 -142t111.5 -70v437z" />
    <glyph glyph-name="sterling" unicode="&#xa3;" horiz-adv-x="620" 
d="M326 712q47 0 84.5 -13.5t66 -34.5t48.5 -47.5t32 -52.5l-52 -57h-4q-12 28 -29 52.5t-38.5 42.5t-48 28.5t-58.5 10.5q-54 0 -89.5 -29t-35.5 -80q0 -40 16.5 -79.5l33.5 -79.5h233v-71h-210q8 -29 8 -55q0 -57 -23 -97t-56 -72l2 -2q8 4 30.5 10t54.5 6q18 0 36 -3.5
t37 -8t38.5 -8t40.5 -3.5q20 0 46.5 9.5t43.5 25.5h4l32 -74q-29 -20 -62 -30.5t-75 -10.5q-23 0 -42.5 5t-38.5 11.5t-37.5 11.5t-38.5 5q-42 0 -69.5 -11.5t-51.5 -25.5l-56 84q51 35 80 77t29 103q0 26 -9 53h-112v71h84q-17 37 -32.5 77t-15.5 87q0 33 13 64.5t39 56
t64 39.5t88 15z" />
    <glyph glyph-name="currency" unicode="&#xa4;" horiz-adv-x="680" 
d="M594 543l-64 -65q22 -32 34 -69.5t12 -79.5q0 -43 -12 -81t-35 -69l65 -65l-40 -40l-64 64q-29 -25 -67 -38.5t-83 -13.5t-83 13.5t-67 38.5l-64 -64l-40 40l65 65q-23 31 -35 69t-12 81q0 42 12 79.5t35 69.5l-65 65l40 40l63 -64q31 26 69 41.5t82 15.5q45 0 83 -15
t69 -41l62 63zM340 507q-29 0 -58 -11t-52 -33.5t-37 -56t-14 -78.5t14 -77.5t37 -54.5t52 -32.5t58 -10.5t57.5 10.5t51 32.5t36.5 54.5t14 77.5t-14 78.5t-37 56t-51.5 33.5t-56.5 11z" />
    <glyph glyph-name="yen" unicode="&#xa5;" horiz-adv-x="625" 
d="M381 323h164v-70h-193v-66h193v-70h-193v-117h-78v117h-194v70h194v66h-194v70h164l-188 377h89l168 -351l168 351h89z" />
    <glyph glyph-name="brokenbar" unicode="&#xa6;" horiz-adv-x="281" 
d="M176 -252h-70v457h70v-457zM176 375h-70v419h70v-419z" />
    <glyph glyph-name="section" unicode="&#xa7;" horiz-adv-x="573" 
d="M276 712q44 0 79.5 -12.5t61.5 -30.5t43 -38t25 -34l-43 -64h-3q-29 51 -68.5 79.5t-99.5 28.5q-27 0 -46 -7.5t-31.5 -19t-18 -26t-5.5 -27.5q0 -16 5.5 -29.5t22.5 -29.5t48.5 -36.5t84.5 -50.5q55 -32 91 -56.5t57.5 -46.5t30 -43.5t8.5 -47.5q0 -45 -29.5 -79
t-78.5 -57q38 -29 54.5 -59.5t16.5 -71.5q0 -29 -11 -56t-33.5 -48t-57 -34t-80.5 -13q-45 0 -80 12.5t-61.5 30.5t-43.5 38t-24 35l42 63h3q29 -50 68.5 -79t99.5 -29q27 0 46.5 7.5t31.5 19t17.5 25.5t5.5 28q0 16 -5.5 29.5t-22.5 29.5t-48.5 36.5t-83.5 50.5
q-55 32 -91.5 56.5t-58 46.5t-30 43.5t-8.5 47.5q0 46 29.5 79.5t79.5 56.5q-38 29 -55 60t-17 72q0 28 11.5 55t34 48t57 34t80.5 13zM217 393q-45 -20 -65 -44t-20 -50q0 -16 5.5 -28.5t27.5 -30.5t66.5 -45.5t123.5 -72.5q45 20 65.5 44.5t20.5 50.5q0 16 -5 29
t-27.5 30.5t-67.5 44.5z" />
    <glyph glyph-name="dieresis" unicode="&#xa8;" horiz-adv-x="418" 
d="M111 731q27 0 42 -15.5t15 -41.5q0 -25 -15 -40t-42 -15q-26 0 -40.5 15t-14.5 40q0 26 14.5 41.5t40.5 15.5zM307 731q26 0 40.5 -15t14.5 -40q0 -26 -14.5 -41.5t-40.5 -15.5q-28 0 -42.5 15.5t-14.5 41.5q0 25 14.5 40t42.5 15z" />
    <glyph glyph-name="copyright" unicode="&#xa9;" horiz-adv-x="835" 
d="M417 712q78 0 144.5 -28.5t115 -77.5t76 -115.5t27.5 -141.5t-27 -141t-75 -114.5t-115 -77t-146 -28.5q-80 0 -146 28.5t-114 77t-74.5 114.5t-26.5 141t27 141.5t75 115.5t114.5 77.5t144.5 28.5zM423 563q32 0 58 -9.5t46.5 -24t34 -31.5t20.5 -33l-42 -51h-4
q-14 38 -42 64t-71 26q-30 0 -53 -12.5t-38.5 -34t-24 -49.5t-8.5 -59q0 -65 31 -106t93 -41q26 0 46.5 8.5t35.5 22.5t24.5 33t14.5 39h3l52 -46q-20 -51 -63.5 -85t-112.5 -34q-47 0 -82.5 16t-59.5 44t-36 66t-12 83t15 84t40.5 68t60 45.5t74.5 16.5zM417 651
q-65 0 -119 -23t-93 -63.5t-61 -96t-22 -119.5t22 -119t61 -95t93 -63t119 -23q64 0 118.5 23t94.5 63.5t62 95t22 118.5t-22 119.5t-62 96t-94.5 63.5t-118.5 23z" />
    <glyph glyph-name="ordfeminine" unicode="&#xaa;" horiz-adv-x="321" 
d="M162 706q52 0 87 -27t35 -82v-233h-50l-6 44h-2q-15 -23 -40.5 -36.5t-58.5 -13.5q-48 0 -74 24t-26 68q0 41 24 65.5t84 37.5q30 6 47.5 12t27.5 12.5t13 14t3 16.5q0 20 -16.5 32t-48.5 12q-33 0 -57.5 -19t-41.5 -49h-3l-32 49q20 32 54 52.5t81 20.5zM224 539
q-5 -8 -21 -16t-54 -16q-37 -8 -50.5 -21t-13.5 -33q0 -41 48 -41q16 0 32.5 5t30 14t22 21.5t8.5 27.5v59h-2z" />
    <glyph glyph-name="guillemotleft" unicode="&#xab;" horiz-adv-x="442" 
d="M290 277l96 -208h-68l-111 208l111 208h68zM139 277l96 -208h-68l-111 208l111 208h68z" />
    <glyph glyph-name="logicalnot" unicode="&#xac;" horiz-adv-x="602" 
d="M547 176h-68v221h-423v68h491v-289z" />
    <glyph glyph-name="uni00AD" unicode="&#xad;" horiz-adv-x="406" 
d="M351 281h-295v68h295v-68z" />
    <glyph glyph-name="registered" unicode="&#xae;" horiz-adv-x="835" 
d="M417 712q78 0 144.5 -28.5t115 -77.5t76 -115.5t27.5 -141.5t-27 -141t-75 -114.5t-115 -77t-146 -28.5q-80 0 -146 28.5t-114 77t-74.5 114.5t-26.5 141t27 141.5t75 115.5t114.5 77.5t144.5 28.5zM417 651q-65 0 -119 -23t-93 -63.5t-61 -96t-22 -119.5t22 -119t61 -95
t93 -63t119 -23q64 0 118.5 23t94.5 63.5t62 95t22 118.5t-22 119.5t-62 96t-94.5 63.5t-118.5 23zM435 557q68 0 101.5 -30t33.5 -82q0 -57 -31 -88t-90 -37l116 -174h-69l-111 173h-19v-173h-62v411h131zM366 502v-127h51q50 0 71.5 17.5t21.5 46.5q0 28 -15.5 45.5
t-66.5 17.5h-62z" />
    <glyph glyph-name="macron" unicode="&#xaf;" horiz-adv-x="394" 
d="M339 625h-283v66h283v-66z" />
    <glyph glyph-name="degree" unicode="&#xb0;" horiz-adv-x="424" 
d="M212 745q34 0 63 -12t50 -33.5t32.5 -50t11.5 -61.5t-11.5 -61.5t-32 -49.5t-49.5 -33t-64 -12t-63.5 12t-49 33t-32 49.5t-11.5 61.5t11.5 61.5t32 50t49 33.5t63.5 12zM212 679q-40 0 -63 -26.5t-23 -64.5t23 -64t63 -26t63 26t23 64t-23 64.5t-63 26.5z" />
    <glyph glyph-name="plusminus" unicode="&#xb1;" horiz-adv-x="574" 
d="M324 457h195v-68h-195v-191h-73v191h-195v68h195v180h73v-180zM496 77h-415v68h415v-68z" />
    <glyph glyph-name="acute" unicode="&#xb4;" horiz-adv-x="301" 
d="M145 625h-89l62 106h128z" />
    <glyph glyph-name="paragraph" unicode="&#xb6;" horiz-adv-x="614" 
d="M508 -113h-72v751h-111v-751h-72v452q-51 0 -91 13t-68 36.5t-43 57t-15 74.5q0 47 16 81t45.5 56t71.5 32.5t93 10.5h246v-813z" />
    <glyph glyph-name="periodcentered" unicode="&#xb7;" horiz-adv-x="234" 
d="M117 461q27 0 44 -17.5t17 -44.5q0 -26 -17 -43t-44 -17q-26 0 -43.5 17t-17.5 43q0 27 17.5 44.5t43.5 17.5z" />
    <glyph glyph-name="cedilla" unicode="&#xb8;" horiz-adv-x="331" 
d="M120 -75l1 -1q11 6 26.5 10t33.5 4q17 0 33 -4.5t29 -14.5t20.5 -26t7.5 -39q0 -46 -31.5 -69t-82.5 -23q-35 0 -59.5 9t-40.5 20l17 54h3q13 -11 31.5 -19.5t39.5 -8.5q24 0 38.5 10t14.5 28q0 38 -52 38q-31 0 -53 -14l-31 23l56 98h46z" />
    <glyph glyph-name="ordmasculine" unicode="&#xba;" horiz-adv-x="363" 
d="M182 706q33 0 61.5 -13.5t49.5 -37.5t33 -56.5t12 -69.5t-10.5 -68t-30.5 -54t-49 -36t-66 -13t-66 13t-49 36t-30.5 54t-10.5 68t12 69.5t33 56.5t49.5 37.5t61.5 13.5zM182 652q-24 0 -42.5 -10t-30.5 -27t-18.5 -39.5t-6.5 -46.5q0 -51 25 -83t73 -32t73 32t25 83
q0 24 -6.5 46.5t-18.5 39.5t-30.5 27t-42.5 10z" />
    <glyph glyph-name="guillemotright" unicode="&#xbb;" horiz-adv-x="442" 
d="M152.018 277l-95.9941 -208h67.9961l110.993 208l-110.993 208h-67.9961zM303.009 277l-95.9941 -208h67.9951l110.994 208l-110.994 208h-67.9951z" />
    <glyph glyph-name="onequarter" unicode="&#xbc;" horiz-adv-x="813" 
d="M211 280h-65v329h-2l-77 -84l-46 47l123 128h67v-420zM633 702l-418 -747l-59 35l419 747zM743 136h44v-59h-43v-76h-65v76h-204v55l161 289h107v-285zM676 374l-133 -238h135v238h-2z" />
    <glyph glyph-name="onehalf" unicode="&#xbd;" horiz-adv-x="854" 
d="M211 280h-65v329h-2l-77 -84l-46 47l123 128h67v-420zM633 702l-418 -747l-59 35l419 747zM675 427q62 0 99 -35.5t37 -88.5q0 -29 -11.5 -54t-31.5 -49.5t-47.5 -50.5l-60.5 -57l-27 -26l181 -1v-64h-271v69l68 59q60 52 96.5 91.5t36.5 79.5q0 29 -19 47.5t-51 18.5
q-20 0 -36 -8t-28.5 -21.5t-21.5 -31.5t-15 -37h-2l-46 50q5 17 17 36t30.5 35.5t44 27t58.5 10.5z" />
    <glyph glyph-name="threequarters" unicode="&#xbe;" horiz-adv-x="901" 
d="M323 639l-127 -102l1 -1q8 2 18 2q22 0 44 -7t40 -22.5t29 -40t11 -58.5q0 -33 -12 -58t-32 -42.5t-48 -26.5t-59 -9q-33 0 -59.5 9t-46 22.5t-32.5 30.5t-20 32l38 50h3q7 -15 16.5 -30t23 -27t32.5 -19.5t44 -7.5q41 0 64.5 22t23.5 59q0 38 -23 59.5t-70 21.5
q-17 0 -31.5 -3.5t-25.5 -8.5l-28 43l143 113v2h-178v58h261v-61zM721 702l-418 -747l-59 35l419 747zM831 136h44v-59h-43v-76h-65v76h-204v55l161 289h107v-285zM764 374l-133 -238h135v238h-2z" />
    <glyph glyph-name="questiondown" unicode="&#xbf;" horiz-adv-x="516" 
d="M239.017 -150.957q-38.9971 0 -70.4951 11.5q-31.498 11.499 -52.9971 30.998t-33.498 45.9971t-11.999 55.4971q0 28.998 8.49902 50.4961q8.5 21.499 26.499 38.998t45.4971 33.498t64.4961 34.998q38.9971 19.998 61.4961 32.998q22.499 12.999 33.998 23.498
t14.499 20.499q3 9.99902 3 22.998q0 23.999 -15.499 35.998t-44.4971 11.999q-13 0 -29.499 -4.99902q-16.499 -5 -32.998 -13.999q-16.499 -9 -31.998 -21.999t-26.498 -28.998h-4l-38.9971 61.9961q11.999 15.999 29.998 30.498t40.4971 25.498q22.499 11 47.9971 17.499
q25.499 6.5 52.4971 6.5q57.9961 0 94.9941 -32.498t36.998 -86.4951q0 -23.998 -6 -42.9971q-5.99902 -18.999 -21.498 -36.498t-41.998 -34.998q-26.498 -17.498 -68.4961 -38.4971l-60.4961 -31.998q-23.498 -12.999 -36.9971 -24.499q-13.5 -11.499 -17.999 -22.998
q-4.5 -11.499 -4.5 -27.498q0 -28.999 23.498 -48.9971q23.499 -19.999 65.4961 -19.999q48.9971 0 87.9951 30.998q38.9971 30.998 61.9961 75.9951h4l47.9971 -67.9961q-10 -17.998 -27.999 -37.9971q-17.998 -19.999 -43.4971 -36.498q-25.498 -16.499 -57.9961 -27.498
q-32.498 -11 -71.4961 -11zM252.016 432.008q-32.9971 0 -50.4961 18.999t-17.499 47.9971t17.499 48.4971t50.4961 19.499q32.998 0 50.4971 -19.499t17.499 -48.4971t-17.499 -47.9971t-50.4971 -18.999z" />
    <glyph glyph-name="Agrave" unicode="&#xc0;" horiz-adv-x="654" 
d="M634 0h-86l-73 214h-295l-74 -214h-85l247 700h118zM325 636l-125 -354h253l-125 354h-3zM360 762h-89l-101 106h128z" />
    <glyph glyph-name="Aacute" unicode="&#xc1;" horiz-adv-x="654" 
d="M634 0h-86l-73 214h-295l-74 -214h-85l247 700h118zM325 636l-125 -354h253l-125 354h-3zM372 762h-89l62 106h128z" />
    <glyph glyph-name="Acircumflex" unicode="&#xc2;" horiz-adv-x="654" 
d="M634 0h-86l-73 214h-295l-74 -214h-85l247 700h118zM325 636l-125 -354h253l-125 354h-3zM468 762h-92l-47 72h-3l-47 -72h-92l78 105h125z" />
    <glyph glyph-name="Atilde" unicode="&#xc3;" horiz-adv-x="654" 
d="M634 0h-86l-73 214h-295l-74 -214h-85l247 700h118zM325 636l-125 -354h253l-125 354h-3zM277 864q20 0 35 -5.5t27.5 -12l23.5 -12t23 -5.5q16 0 23 8t11 22h48q-9 -46 -28 -73.5t-62 -27.5q-20 0 -35 5.5t-27.5 12l-23.5 12t-24 5.5q-26 0 -34 -31h-47q8 46 28 74
t62 28z" />
    <glyph glyph-name="Adieresis" unicode="&#xc4;" horiz-adv-x="654" 
d="M634 0h-86l-73 214h-295l-74 -214h-85l247 700h118zM325 636l-125 -354h253l-125 354h-3zM229 867q27 0 42 -15t15 -41q0 -25 -15 -40t-42 -15q-26 0 -40.5 15t-14.5 40q0 26 14.5 41t40.5 15zM425 867q26 0 40.5 -14.5t14.5 -40.5t-14.5 -41t-40.5 -15q-28 0 -42.5 15
t-14.5 41t14.5 40.5t42.5 14.5z" />
    <glyph glyph-name="Aring" unicode="&#xc5;" horiz-adv-x="654" 
d="M634 0h-86l-73 214h-295l-74 -214h-85l247 700h118zM325 636l-125 -354h253l-125 354h-3zM328 937q22 0 40.5 -8t32 -21.5t21 -32t7.5 -39.5t-7.5 -39.5t-21 -32t-32 -21.5t-40.5 -8t-40.5 8t-32 21.5t-21 32t-7.5 39.5t7.5 39.5t21 32t32 21.5t40.5 8zM327 884
q-21 0 -33.5 -14t-12.5 -34t12.5 -34t33.5 -14q22 0 34.5 14t12.5 34t-12.5 34t-34.5 14z" />
    <glyph glyph-name="AE" unicode="&#xc6;" horiz-adv-x="872" 
d="M806 627h-268v-239h268v-68h-268v-247h268v-73h-345v214h-254l-114 -214h-87l371 700h429v-73zM421 627l-178 -345h217v345h-39z" />
    <glyph glyph-name="Ccedilla" unicode="&#xc7;" horiz-adv-x="659" 
d="M358 712q54 0 96.5 -16t74.5 -41.5t54.5 -57.5t34.5 -63l-59 -54h-4q-14 34 -32 63.5t-42 50.5t-54 33t-69 12q-54 0 -96.5 -24.5t-71.5 -65t-44 -92t-15 -104.5q0 -65 15 -118.5t44.5 -91.5t71.5 -59t96 -21q43 0 78 14.5t61 40.5t43.5 62t26.5 79h4l68 -53
q-31 -103 -102.5 -160.5t-178.5 -57.5q-70 0 -127 24.5t-97 71t-61.5 114.5t-21.5 155q0 68 21.5 132.5t61.5 115t97 81t127 30.5zM313 -75l1 -1q11 6 26.5 10t33.5 4q17 0 33 -4.5t29 -14.5t20.5 -26t7.5 -39q0 -46 -31.5 -69t-82.5 -23q-35 0 -59.5 9t-40.5 20l17 54h3
q13 -11 31.5 -19.5t39.5 -8.5q24 0 38.5 10t14.5 28q0 38 -52 38q-31 0 -53 -14l-31 23l56 98h46z" />
    <glyph glyph-name="Egrave" unicode="&#xc8;" horiz-adv-x="554" 
d="M489 627h-323v-239h323v-68h-323v-247h323v-73h-403v700h403v-73zM323 762h-89l-101 106h128z" />
    <glyph glyph-name="Eacute" unicode="&#xc9;" horiz-adv-x="554" 
d="M489 627h-323v-239h323v-68h-323v-247h323v-73h-403v700h403v-73zM335 762h-89l62 106h128z" />
    <glyph glyph-name="Ecircumflex" unicode="&#xca;" horiz-adv-x="554" 
d="M489 627h-323v-239h323v-68h-323v-247h323v-73h-403v700h403v-73zM431 762h-92l-47 72h-3l-47 -72h-92l78 105h125z" />
    <glyph glyph-name="Edieresis" unicode="&#xcb;" horiz-adv-x="554" 
d="M489 627h-323v-239h323v-68h-323v-247h323v-73h-403v700h403v-73zM192 867q27 0 42 -15t15 -41q0 -25 -15 -40t-42 -15q-26 0 -40.5 15t-14.5 40q0 26 14.5 41t40.5 15zM388 867q26 0 40.5 -14.5t14.5 -40.5t-14.5 -41t-40.5 -15q-28 0 -42.5 15t-14.5 41t14.5 40.5
t42.5 14.5z" />
    <glyph glyph-name="Igrave" unicode="&#xcc;" horiz-adv-x="251" 
d="M166 0h-80v700h80v-700zM160 762h-89l-101 106h128z" />
    <glyph glyph-name="Iacute" unicode="&#xcd;" horiz-adv-x="251" 
d="M166 0h-80v700h80v-700zM171 762h-89l62 106h128z" />
    <glyph glyph-name="Icircumflex" unicode="&#xce;" horiz-adv-x="251" 
d="M166 0h-80v700h80v-700zM268 762h-92l-47 72h-3l-47 -72h-92l78 105h125z" />
    <glyph glyph-name="Idieresis" unicode="&#xcf;" horiz-adv-x="251" 
d="M166 0h-80v700h80v-700zM29 867q27 0 42 -15t15 -41q0 -25 -15 -40t-42 -15q-26 0 -40.5 15t-14.5 40q0 26 14.5 41t40.5 15zM225 867q26 0 40.5 -14.5t14.5 -40.5t-14.5 -41t-40.5 -15q-28 0 -42.5 15t-14.5 41t14.5 40.5t42.5 14.5z" />
    <glyph glyph-name="Eth" unicode="&#xd0;" horiz-adv-x="702" 
d="M315 700q86 0 148.5 -20t103.5 -62.5t60.5 -108t19.5 -156.5q0 -182 -85.5 -267.5t-250.5 -85.5h-205v321h-85v70h85v309h209zM186 627v-236h176v-70h-176v-248h133q66 0 113 19.5t77 55.5t44 88t14 117q0 67 -12 118.5t-40 86t-75.5 52t-117.5 17.5h-136z" />
    <glyph glyph-name="Ntilde" unicode="&#xd1;" horiz-adv-x="691" 
d="M606 0h-128l-311 627h-2v-627h-79v700h128l311 -627h2v627h79v-700zM298 864q20 0 35 -5.5t27.5 -12l23.5 -12t23 -5.5q16 0 23 8t11 22h48q-9 -46 -28 -73.5t-62 -27.5q-20 0 -35 5.5t-27.5 12l-23.5 12t-24 5.5q-26 0 -34 -31h-47q8 46 28 74t62 28z" />
    <glyph glyph-name="Ograve" unicode="&#xd2;" horiz-adv-x="715" 
d="M358 712q70 0 127 -30.5t97 -81t61.5 -115t21.5 -132.5q0 -89 -22 -157t-62 -114.5t-96.5 -70t-126.5 -23.5t-127 23.5t-97 70t-61.5 114.5t-21.5 157q0 68 21.5 132.5t61.5 115t97 81t127 30.5zM358 641q-55 0 -97.5 -25t-71 -65.5t-43.5 -92.5t-15 -105
q0 -65 15 -118.5t44.5 -91.5t71.5 -59t96 -21t96 20.5t71.5 58.5t44.5 91.5t15 119.5q0 54 -15 105.5t-43.5 92t-71 65.5t-97.5 25zM390 762h-89l-101 106h128z" />
    <glyph glyph-name="Oacute" unicode="&#xd3;" horiz-adv-x="715" 
d="M358 712q70 0 127 -30.5t97 -81t61.5 -115t21.5 -132.5q0 -89 -22 -157t-62 -114.5t-96.5 -70t-126.5 -23.5t-127 23.5t-97 70t-61.5 114.5t-21.5 157q0 68 21.5 132.5t61.5 115t97 81t127 30.5zM358 641q-55 0 -97.5 -25t-71 -65.5t-43.5 -92.5t-15 -105
q0 -65 15 -118.5t44.5 -91.5t71.5 -59t96 -21t96 20.5t71.5 58.5t44.5 91.5t15 119.5q0 54 -15 105.5t-43.5 92t-71 65.5t-97.5 25zM402 762h-89l62 106h128z" />
    <glyph glyph-name="Ocircumflex" unicode="&#xd4;" horiz-adv-x="715" 
d="M358 712q70 0 127 -30.5t97 -81t61.5 -115t21.5 -132.5q0 -89 -22 -157t-62 -114.5t-96.5 -70t-126.5 -23.5t-127 23.5t-97 70t-61.5 114.5t-21.5 157q0 68 21.5 132.5t61.5 115t97 81t127 30.5zM358 641q-55 0 -97.5 -25t-71 -65.5t-43.5 -92.5t-15 -105
q0 -65 15 -118.5t44.5 -91.5t71.5 -59t96 -21t96 20.5t71.5 58.5t44.5 91.5t15 119.5q0 54 -15 105.5t-43.5 92t-71 65.5t-97.5 25zM498 762h-92l-47 72h-3l-47 -72h-92l78 105h125z" />
    <glyph glyph-name="Otilde" unicode="&#xd5;" horiz-adv-x="715" 
d="M358 712q70 0 127 -30.5t97 -81t61.5 -115t21.5 -132.5q0 -89 -22 -157t-62 -114.5t-96.5 -70t-126.5 -23.5t-127 23.5t-97 70t-61.5 114.5t-21.5 157q0 68 21.5 132.5t61.5 115t97 81t127 30.5zM358 641q-55 0 -97.5 -25t-71 -65.5t-43.5 -92.5t-15 -105
q0 -65 15 -118.5t44.5 -91.5t71.5 -59t96 -21t96 20.5t71.5 58.5t44.5 91.5t15 119.5q0 54 -15 105.5t-43.5 92t-71 65.5t-97.5 25zM307 864q20 0 35 -5.5t27.5 -12l23.5 -12t23 -5.5q16 0 23 8t11 22h48q-9 -46 -28 -73.5t-62 -27.5q-20 0 -35 5.5t-27.5 12l-23.5 12
t-24 5.5q-26 0 -34 -31h-47q8 46 28 74t62 28z" />
    <glyph glyph-name="Odieresis" unicode="&#xd6;" horiz-adv-x="715" 
d="M358 712q70 0 127 -30.5t97 -81t61.5 -115t21.5 -132.5q0 -89 -22 -157t-62 -114.5t-96.5 -70t-126.5 -23.5t-127 23.5t-97 70t-61.5 114.5t-21.5 157q0 68 21.5 132.5t61.5 115t97 81t127 30.5zM358 641q-55 0 -97.5 -25t-71 -65.5t-43.5 -92.5t-15 -105
q0 -65 15 -118.5t44.5 -91.5t71.5 -59t96 -21t96 20.5t71.5 58.5t44.5 91.5t15 119.5q0 54 -15 105.5t-43.5 92t-71 65.5t-97.5 25zM259 867q27 0 42 -15t15 -41q0 -25 -15 -40t-42 -15q-26 0 -40.5 15t-14.5 40q0 26 14.5 41t40.5 15zM455 867q26 0 40.5 -14.5t14.5 -40.5
t-14.5 -41t-40.5 -15q-28 0 -42.5 15t-14.5 41t14.5 40.5t42.5 14.5z" />
    <glyph glyph-name="multiply" unicode="&#xd7;" horiz-adv-x="533" 
d="M477 521l-165 -164l166 -166l-45 -47l-166 166l-166 -166l-45 47l165 166l-164 164l45 47l165 -166l165 166z" />
    <glyph glyph-name="Oslash" unicode="&#xd8;" horiz-adv-x="715" 
d="M89 24l42 61q-38 47 -59 113.5t-21 154.5q0 68 21.5 132.5t61.5 115t97 81t127 30.5q48 0 90 -15.5t77 -41.5l37 54l56 -39l-43 -62q43 -51 66.5 -117.5t23.5 -137.5q0 -89 -22 -157t-62 -114.5t-96.5 -70t-126.5 -23.5q-105 0 -177 51l-37 -55zM358 641q-55 0 -97.5 -25
t-71 -65.5t-43.5 -92.5t-15 -105q0 -122 50 -196l303 438q-26 21 -57 33.5t-69 12.5zM227 105q54 -42 131 -42q54 0 96 20.5t71.5 58.5t44.5 91.5t15 119.5q0 51 -14 100.5t-41 89.5z" />
    <glyph glyph-name="Ugrave" unicode="&#xd9;" horiz-adv-x="676" 
d="M601 258q0 -60 -15.5 -109.5t-48 -85t-82 -55.5t-116.5 -20q-68 0 -117.5 20t-81.5 55.5t-48 85t-16 109.5v442h80v-435q0 -97 45.5 -150t137.5 -53t137 53t45 150v435h80v-442zM371 762h-89l-101 106h128z" />
    <glyph glyph-name="Uacute" unicode="&#xda;" horiz-adv-x="676" 
d="M601 258q0 -60 -15.5 -109.5t-48 -85t-82 -55.5t-116.5 -20q-68 0 -117.5 20t-81.5 55.5t-48 85t-16 109.5v442h80v-435q0 -97 45.5 -150t137.5 -53t137 53t45 150v435h80v-442zM383 762h-89l62 106h128z" />
    <glyph glyph-name="Ucircumflex" unicode="&#xdb;" horiz-adv-x="676" 
d="M601 258q0 -60 -15.5 -109.5t-48 -85t-82 -55.5t-116.5 -20q-68 0 -117.5 20t-81.5 55.5t-48 85t-16 109.5v442h80v-435q0 -97 45.5 -150t137.5 -53t137 53t45 150v435h80v-442zM479 762h-92l-47 72h-3l-47 -72h-92l78 105h125z" />
    <glyph glyph-name="Udieresis" unicode="&#xdc;" horiz-adv-x="676" 
d="M601 258q0 -60 -15.5 -109.5t-48 -85t-82 -55.5t-116.5 -20q-68 0 -117.5 20t-81.5 55.5t-48 85t-16 109.5v442h80v-435q0 -97 45.5 -150t137.5 -53t137 53t45 150v435h80v-442zM240 867q27 0 42 -15t15 -41q0 -25 -15 -40t-42 -15q-26 0 -40.5 15t-14.5 40q0 26 14.5 41
t40.5 15zM436 867q26 0 40.5 -14.5t14.5 -40.5t-14.5 -41t-40.5 -15q-28 0 -42.5 15t-14.5 41t14.5 40.5t42.5 14.5z" />
    <glyph glyph-name="Yacute" unicode="&#xdd;" horiz-adv-x="545" 
d="M312 264v-264h-78v264l-218 436h89l168 -351l168 351h89zM318 762h-89l62 106h128z" />
    <glyph glyph-name="Thorn" unicode="&#xde;" horiz-adv-x="592" 
d="M166 585h163q105 0 166.5 -47.5t61.5 -153.5q0 -54 -18.5 -93t-50.5 -63.5t-74.5 -36.5t-91.5 -12h-156v-179h-80v700h80v-115zM166 512v-260h144q83 0 125 31.5t42 100.5q0 66 -34 97t-118 31h-159z" />
    <glyph glyph-name="germandbls" unicode="&#xdf;" horiz-adv-x="569" 
d="M277 712q48 0 84 -15t60.5 -40.5t37 -58.5t12.5 -69q0 -33 -9.5 -58.5t-26 -44t-37.5 -30.5t-44 -18v-2q35 -5 64.5 -21t50.5 -41t32.5 -59t11.5 -74q0 -41 -11.5 -76t-34 -61t-57 -41t-80.5 -15q-34 0 -62.5 6.5t-48.5 15.5l10 73h2q17 -9 41 -17.5t53 -8.5q20 0 41 6.5
t37.5 21.5t27 39t10.5 59q0 70 -42.5 109t-117.5 39h-44v68q80 5 120.5 38.5t40.5 87.5q0 56 -33.5 87.5t-87.5 31.5q-25 0 -48 -8t-40 -27.5t-27.5 -52.5t-10.5 -82v-474h-75v488q0 49 13.5 90.5t39.5 71t63.5 46t84.5 16.5z" />
    <glyph glyph-name="agrave" unicode="&#xe0;" horiz-adv-x="525" 
d="M269 572q42 0 77 -11.5t60 -32.5t39 -51t14 -67v-410h-64l-10 74h-3q-26 -38 -68.5 -62t-101.5 -24q-76 0 -118 42.5t-42 110.5q0 31 9 58t30 49t55 38.5t85 26.5t81 21.5t46.5 24t21.5 27t5 31.5q0 39 -29.5 63t-87.5 24q-57 0 -100.5 -33t-68.5 -84h-3l-45 64
q15 25 36.5 47t49.5 38.5t61 26t71 9.5zM382 311q-5 -9 -13 -16.5t-23 -14.5t-38.5 -14.5t-59.5 -15.5t-60 -19t-38 -24.5t-19.5 -29.5t-5.5 -34q0 -38 24 -62t68 -24q30 0 59.5 10t53.5 27.5t39 41.5t15 53v122h-2zM306 625h-89l-101 106h128z" />
    <glyph glyph-name="aacute" unicode="&#xe1;" horiz-adv-x="525" 
d="M269 572q42 0 77 -11.5t60 -32.5t39 -51t14 -67v-410h-64l-10 74h-3q-26 -38 -68.5 -62t-101.5 -24q-76 0 -118 42.5t-42 110.5q0 31 9 58t30 49t55 38.5t85 26.5t81 21.5t46.5 24t21.5 27t5 31.5q0 39 -29.5 63t-87.5 24q-57 0 -100.5 -33t-68.5 -84h-3l-45 64
q15 25 36.5 47t49.5 38.5t61 26t71 9.5zM382 311q-5 -9 -13 -16.5t-23 -14.5t-38.5 -14.5t-59.5 -15.5t-60 -19t-38 -24.5t-19.5 -29.5t-5.5 -34q0 -38 24 -62t68 -24q30 0 59.5 10t53.5 27.5t39 41.5t15 53v122h-2zM311 625h-89l62 106h128z" />
    <glyph glyph-name="acircumflex" unicode="&#xe2;" horiz-adv-x="525" 
d="M269 572q42 0 77 -11.5t60 -32.5t39 -51t14 -67v-410h-64l-10 74h-3q-26 -38 -68.5 -62t-101.5 -24q-76 0 -118 42.5t-42 110.5q0 31 9 58t30 49t55 38.5t85 26.5t81 21.5t46.5 24t21.5 27t5 31.5q0 39 -29.5 63t-87.5 24q-57 0 -100.5 -33t-68.5 -84h-3l-45 64
q15 25 36.5 47t49.5 38.5t61 26t71 9.5zM382 311q-5 -9 -13 -16.5t-23 -14.5t-38.5 -14.5t-59.5 -15.5t-60 -19t-38 -24.5t-19.5 -29.5t-5.5 -34q0 -38 24 -62t68 -24q30 0 59.5 10t53.5 27.5t39 41.5t15 53v122h-2zM407 625h-92l-47 72h-3l-47 -72h-92l78 105h125z" />
    <glyph glyph-name="atilde" unicode="&#xe3;" horiz-adv-x="525" 
d="M269 572q42 0 77 -11.5t60 -32.5t39 -51t14 -67v-410h-64l-10 74h-3q-26 -38 -68.5 -62t-101.5 -24q-76 0 -118 42.5t-42 110.5q0 31 9 58t30 49t55 38.5t85 26.5t81 21.5t46.5 24t21.5 27t5 31.5q0 39 -29.5 63t-87.5 24q-57 0 -100.5 -33t-68.5 -84h-3l-45 64
q15 25 36.5 47t49.5 38.5t61 26t71 9.5zM382 311q-5 -9 -13 -16.5t-23 -14.5t-38.5 -14.5t-59.5 -15.5t-60 -19t-38 -24.5t-19.5 -29.5t-5.5 -34q0 -38 24 -62t68 -24q30 0 59.5 10t53.5 27.5t39 41.5t15 53v122h-2zM216 727q20 0 35 -5.5t27.5 -12l23.5 -12t23 -5.5
q16 0 23 8t11 22h48q-9 -46 -28 -73.5t-62 -27.5q-20 0 -35 5.5t-27.5 12l-23.5 12t-24 5.5q-26 0 -34 -31h-47q8 46 28 74t62 28z" />
    <glyph glyph-name="adieresis" unicode="&#xe4;" horiz-adv-x="525" 
d="M269 572q42 0 77 -11.5t60 -32.5t39 -51t14 -67v-410h-64l-10 74h-3q-26 -38 -68.5 -62t-101.5 -24q-76 0 -118 42.5t-42 110.5q0 31 9 58t30 49t55 38.5t85 26.5t81 21.5t46.5 24t21.5 27t5 31.5q0 39 -29.5 63t-87.5 24q-57 0 -100.5 -33t-68.5 -84h-3l-45 64
q15 25 36.5 47t49.5 38.5t61 26t71 9.5zM382 311q-5 -9 -13 -16.5t-23 -14.5t-38.5 -14.5t-59.5 -15.5t-60 -19t-38 -24.5t-19.5 -29.5t-5.5 -34q0 -38 24 -62t68 -24q30 0 59.5 10t53.5 27.5t39 41.5t15 53v122h-2zM168 731q27 0 42 -15.5t15 -41.5q0 -25 -15 -40t-42 -15
q-26 0 -40.5 15t-14.5 40q0 26 14.5 41.5t40.5 15.5zM364 731q26 0 40.5 -15t14.5 -40q0 -26 -14.5 -41.5t-40.5 -15.5q-28 0 -42.5 15.5t-14.5 41.5q0 25 14.5 40t42.5 15z" />
    <glyph glyph-name="aring" unicode="&#xe5;" horiz-adv-x="525" 
d="M269 572q42 0 77 -11.5t60 -32.5t39 -51t14 -67v-410h-64l-10 74h-3q-26 -38 -68.5 -62t-101.5 -24q-76 0 -118 42.5t-42 110.5q0 31 9 58t30 49t55 38.5t85 26.5t81 21.5t46.5 24t21.5 27t5 31.5q0 39 -29.5 63t-87.5 24q-57 0 -100.5 -33t-68.5 -84h-3l-45 64
q15 25 36.5 47t49.5 38.5t61 26t71 9.5zM382 311q-5 -9 -13 -16.5t-23 -14.5t-38.5 -14.5t-59.5 -15.5t-60 -19t-38 -24.5t-19.5 -29.5t-5.5 -34q0 -38 24 -62t68 -24q30 0 59.5 10t53.5 27.5t39 41.5t15 53v122h-2zM267 800q22 0 40.5 -8t32 -21.5t21 -32t7.5 -39.5
t-7.5 -39.5t-21 -32t-32 -21.5t-40.5 -8t-40.5 8t-32 21.5t-21 32t-7.5 39.5t7.5 39.5t21 32t32 21.5t40.5 8zM266 747q-21 0 -33.5 -14t-12.5 -34q0 -21 12.5 -34.5t33.5 -13.5q22 0 34.5 13.5t12.5 34.5q0 20 -12.5 34t-34.5 14z" />
    <glyph glyph-name="ae" unicode="&#xe6;" horiz-adv-x="915" 
d="M628 572q51 0 95.5 -19.5t76.5 -56.5t50.5 -89.5t18.5 -118.5v-19t-1 -14h-418q2 -44 15.5 -80.5t37.5 -62.5t57 -40t74 -14q34 0 62 10t50 25.5t38.5 34t27.5 35.5h3l34 -71q-32 -44 -88 -74t-126 -30q-78 0 -131.5 31.5t-85.5 88.5q-26 -53 -79.5 -86.5t-132.5 -33.5
q-76 0 -118 40.5t-42 112.5q0 32 9 59t30 49t55 37.5t84 25.5q51 10 81.5 21.5t47 24.5t21.5 27.5t5 31.5q0 39 -29.5 63.5t-87.5 24.5q-57 0 -101 -32.5t-67 -92.5h-3l-45 62q13 28 35 52t49.5 41.5t61 27t70.5 9.5q66 0 112 -26.5t64 -71.5q31 43 80 70.5t110 27.5z
M376 311q-5 -9 -13 -16t-23 -14.5t-39 -14.5t-60 -16q-36 -8 -60 -18t-38 -22.5t-19.5 -29t-5.5 -37.5q0 -44 25.5 -65.5t72.5 -20.5q30 1 59 11.5t52 28t37 41.5t14 51v122h-2zM627 506q-35 0 -65.5 -14t-53.5 -39t-37.5 -59.5t-18.5 -74.5h343q-5 91 -51.5 139t-116.5 48z
" />
    <glyph glyph-name="ccedilla" unicode="&#xe7;" horiz-adv-x="559" 
d="M304 572q44 0 80 -13t63 -34t45.5 -47t29.5 -53l-55 -53h-3q-20 58 -58.5 95t-101.5 37q-44 0 -78 -19t-57 -50.5t-35.5 -73t-12.5 -86.5q0 -47 12 -87t35.5 -68.5t57.5 -44.5t78 -16q37 0 65.5 12.5t49 34t34 49.5t20.5 60h3l62 -48q-12 -39 -32.5 -72t-50 -56.5
t-67 -37t-83.5 -13.5q-63 0 -111 21t-81 59.5t-50 91t-17 115.5t19.5 117t54 94t81.5 63t103 23zM262 -75l1 -1q11 6 26.5 10t33.5 4q17 0 33 -4.5t29 -14.5t20.5 -26t7.5 -39q0 -46 -31.5 -69t-82.5 -23q-35 0 -59.5 9t-40.5 20l17 54h3q13 -11 31.5 -19.5t39.5 -8.5
q24 0 38.5 10t14.5 28q0 38 -52 38q-31 0 -53 -14l-31 23l56 98h46z" />
    <glyph glyph-name="egrave" unicode="&#xe8;" horiz-adv-x="584" 
d="M298 572q51 0 95 -19.5t76.5 -56.5t51 -89.5t18.5 -118.5q0 -6 -0.5 -11.5t-0.5 -10.5v-11h-417q2 -44 15.5 -80t37 -62t56 -40t73.5 -14q34 0 62 10t50 25.5t38 34t27 35.5h4l37 -70q-32 -45 -89.5 -75.5t-127.5 -30.5q-64 0 -112.5 22t-80.5 61t-48.5 93t-16.5 118
t20 117t54.5 91.5t80.5 60t97 21.5zM297 504q-36 0 -66 -14t-53 -38.5t-37 -58t-18 -72.5h341q-3 45 -16.5 79.5t-36 57.5t-51.5 34.5t-63 11.5zM338 625h-89l-101 106h128z" />
    <glyph glyph-name="eacute" unicode="&#xe9;" horiz-adv-x="584" 
d="M298 572q51 0 95 -19.5t76.5 -56.5t51 -89.5t18.5 -118.5q0 -6 -0.5 -11.5t-0.5 -10.5v-11h-417q2 -44 15.5 -80t37 -62t56 -40t73.5 -14q34 0 62 10t50 25.5t38 34t27 35.5h4l37 -70q-32 -45 -89.5 -75.5t-127.5 -30.5q-64 0 -112.5 22t-80.5 61t-48.5 93t-16.5 118
t20 117t54.5 91.5t80.5 60t97 21.5zM297 504q-36 0 -66 -14t-53 -38.5t-37 -58t-18 -72.5h341q-3 45 -16.5 79.5t-36 57.5t-51.5 34.5t-63 11.5zM343 625h-89l62 106h128z" />
    <glyph glyph-name="ecircumflex" unicode="&#xea;" horiz-adv-x="584" 
d="M298 572q51 0 95 -19.5t76.5 -56.5t51 -89.5t18.5 -118.5q0 -6 -0.5 -11.5t-0.5 -10.5v-11h-417q2 -44 15.5 -80t37 -62t56 -40t73.5 -14q34 0 62 10t50 25.5t38 34t27 35.5h4l37 -70q-32 -45 -89.5 -75.5t-127.5 -30.5q-64 0 -112.5 22t-80.5 61t-48.5 93t-16.5 118
t20 117t54.5 91.5t80.5 60t97 21.5zM297 504q-36 0 -66 -14t-53 -38.5t-37 -58t-18 -72.5h341q-3 45 -16.5 79.5t-36 57.5t-51.5 34.5t-63 11.5zM439 625h-92l-47 72h-3l-47 -72h-92l78 105h125z" />
    <glyph glyph-name="edieresis" unicode="&#xeb;" horiz-adv-x="584" 
d="M298 572q51 0 95 -19.5t76.5 -56.5t51 -89.5t18.5 -118.5q0 -6 -0.5 -11.5t-0.5 -10.5v-11h-417q2 -44 15.5 -80t37 -62t56 -40t73.5 -14q34 0 62 10t50 25.5t38 34t27 35.5h4l37 -70q-32 -45 -89.5 -75.5t-127.5 -30.5q-64 0 -112.5 22t-80.5 61t-48.5 93t-16.5 118
t20 117t54.5 91.5t80.5 60t97 21.5zM297 504q-36 0 -66 -14t-53 -38.5t-37 -58t-18 -72.5h341q-3 45 -16.5 79.5t-36 57.5t-51.5 34.5t-63 11.5zM200 731q27 0 42 -15.5t15 -41.5q0 -25 -15 -40t-42 -15q-26 0 -40.5 15t-14.5 40q0 26 14.5 41.5t40.5 15.5zM396 731
q26 0 40.5 -15t14.5 -40q0 -26 -14.5 -41.5t-40.5 -15.5q-28 0 -42.5 15.5t-14.5 41.5q0 25 14.5 40t42.5 15z" />
    <glyph glyph-name="igrave" unicode="&#xec;" horiz-adv-x="226" 
d="M151 0h-75v560h75v-560zM155 625h-89l-101 106h128z" />
    <glyph glyph-name="iacute" unicode="&#xed;" horiz-adv-x="226" 
d="M151 0h-75v560h75v-560zM159 625h-89l62 106h128z" />
    <glyph glyph-name="icircumflex" unicode="&#xee;" horiz-adv-x="226" 
d="M151 0h-75v560h75v-560zM256 625h-92l-47 72h-3l-47 -72h-92l78 105h125z" />
    <glyph glyph-name="idieresis" unicode="&#xef;" horiz-adv-x="226" 
d="M151 0h-75v560h75v-560zM17 731q27 0 42 -15.5t15 -41.5q0 -25 -15 -40t-42 -15q-26 0 -40.5 15t-14.5 40q0 26 14.5 41.5t40.5 15.5zM213 731q26 0 40.5 -15t14.5 -40q0 -26 -14.5 -41.5t-40.5 -15.5q-28 0 -42.5 15.5t-14.5 41.5q0 25 14.5 40t42.5 15z" />
    <glyph glyph-name="eth" unicode="&#xf0;" horiz-adv-x="614" 
d="M305 -12q-63 0 -111.5 21.5t-81.5 60t-49.5 91t-16.5 114.5q0 61 19 115.5t53 94.5t81 63.5t103 23.5q31 0 58 -7.5t48.5 -20t38 -28t26.5 -31.5l2 1q-15 60 -46 106.5t-76 80.5l-108 -68l-28 47l86 54q-32 17 -70 32l-1 2l25 62q34 -13 58 -25.5t52 -30.5l114 72l29 -46
l-98 -62q78 -69 117.5 -169.5t39.5 -232.5q0 -60 -13.5 -117.5t-44.5 -102.5t-81.5 -72.5t-124.5 -27.5zM304 504q-44 0 -78 -18.5t-57 -50.5t-35.5 -74t-12.5 -89q0 -45 12 -84t35.5 -67.5t58 -45t78.5 -16.5q45 0 79 18t57 47.5t34.5 68.5t11.5 82q0 48 -12 90t-35.5 73
t-57.5 48.5t-78 17.5z" />
    <glyph glyph-name="ntilde" unicode="&#xf1;" horiz-adv-x="586" 
d="M329 572q48 0 84 -16t60 -44t36 -65.5t12 -80.5v-366h-75v351q0 74 -32.5 113.5t-98.5 39.5q-35 0 -65 -14.5t-52 -41t-34.5 -64.5t-12.5 -84v-300h-75v560h66l9 -77h2q26 39 71 64t105 25zM269 727q20 0 35 -5.5t27.5 -12l23.5 -12t23 -5.5q16 0 23 8t11 22h48
q-9 -46 -28 -73.5t-62 -27.5q-20 0 -35 5.5t-27.5 12l-23.5 12t-24 5.5q-26 0 -34 -31h-47q8 46 28 74t62 28z" />
    <glyph glyph-name="ograve" unicode="&#xf2;" horiz-adv-x="607" 
d="M304 572q56 0 103.5 -23.5t82 -63.5t53.5 -94.5t19 -115.5q0 -62 -16.5 -115t-49 -91t-80.5 -59.5t-111 -21.5t-111 21.5t-81 60t-50 91t-17 114.5q0 61 19.5 115.5t54 94.5t81.5 63.5t103 23.5zM304 504q-44 0 -78 -19t-57 -50.5t-35.5 -73t-12.5 -86.5q0 -47 12 -87
t35.5 -68.5t58 -44.5t78.5 -16t78 16t57 44.5t35 68.5t12 87q0 46 -12 87.5t-35.5 73t-57.5 50t-78 18.5zM344 625h-89l-101 106h128z" />
    <glyph glyph-name="oacute" unicode="&#xf3;" horiz-adv-x="607" 
d="M304 572q56 0 103.5 -23.5t82 -63.5t53.5 -94.5t19 -115.5q0 -62 -16.5 -115t-49 -91t-80.5 -59.5t-111 -21.5t-111 21.5t-81 60t-50 91t-17 114.5q0 61 19.5 115.5t54 94.5t81.5 63.5t103 23.5zM304 504q-44 0 -78 -19t-57 -50.5t-35.5 -73t-12.5 -86.5q0 -47 12 -87
t35.5 -68.5t58 -44.5t78.5 -16t78 16t57 44.5t35 68.5t12 87q0 46 -12 87.5t-35.5 73t-57.5 50t-78 18.5zM349 625h-89l62 106h128z" />
    <glyph glyph-name="ocircumflex" unicode="&#xf4;" horiz-adv-x="607" 
d="M304 572q56 0 103.5 -23.5t82 -63.5t53.5 -94.5t19 -115.5q0 -62 -16.5 -115t-49 -91t-80.5 -59.5t-111 -21.5t-111 21.5t-81 60t-50 91t-17 114.5q0 61 19.5 115.5t54 94.5t81.5 63.5t103 23.5zM304 504q-44 0 -78 -19t-57 -50.5t-35.5 -73t-12.5 -86.5q0 -47 12 -87
t35.5 -68.5t58 -44.5t78.5 -16t78 16t57 44.5t35 68.5t12 87q0 46 -12 87.5t-35.5 73t-57.5 50t-78 18.5zM445 625h-92l-47 72h-3l-47 -72h-92l78 105h125z" />
    <glyph glyph-name="otilde" unicode="&#xf5;" horiz-adv-x="607" 
d="M304 572q56 0 103.5 -23.5t82 -63.5t53.5 -94.5t19 -115.5q0 -62 -16.5 -115t-49 -91t-80.5 -59.5t-111 -21.5t-111 21.5t-81 60t-50 91t-17 114.5q0 61 19.5 115.5t54 94.5t81.5 63.5t103 23.5zM304 504q-44 0 -78 -19t-57 -50.5t-35.5 -73t-12.5 -86.5q0 -47 12 -87
t35.5 -68.5t58 -44.5t78.5 -16t78 16t57 44.5t35 68.5t12 87q0 46 -12 87.5t-35.5 73t-57.5 50t-78 18.5zM254 727q20 0 35 -5.5t27.5 -12l23.5 -12t23 -5.5q16 0 23 8t11 22h48q-9 -46 -28 -73.5t-62 -27.5q-20 0 -35 5.5t-27.5 12l-23.5 12t-24 5.5q-26 0 -34 -31h-47
q8 46 28 74t62 28z" />
    <glyph glyph-name="odieresis" unicode="&#xf6;" horiz-adv-x="607" 
d="M304 572q56 0 103.5 -23.5t82 -63.5t53.5 -94.5t19 -115.5q0 -62 -16.5 -115t-49 -91t-80.5 -59.5t-111 -21.5t-111 21.5t-81 60t-50 91t-17 114.5q0 61 19.5 115.5t54 94.5t81.5 63.5t103 23.5zM304 504q-44 0 -78 -19t-57 -50.5t-35.5 -73t-12.5 -86.5q0 -47 12 -87
t35.5 -68.5t58 -44.5t78.5 -16t78 16t57 44.5t35 68.5t12 87q0 46 -12 87.5t-35.5 73t-57.5 50t-78 18.5zM206 731q27 0 42 -15.5t15 -41.5q0 -25 -15 -40t-42 -15q-26 0 -40.5 15t-14.5 40q0 26 14.5 41.5t40.5 15.5zM402 731q26 0 40.5 -15t14.5 -40q0 -26 -14.5 -41.5
t-40.5 -15.5q-28 0 -42.5 15.5t-14.5 41.5q0 25 14.5 40t42.5 15z" />
    <glyph glyph-name="divide" unicode="&#xf7;" horiz-adv-x="567" 
d="M512 320h-456v68h456v-68zM284 226q30 0 48.5 -20t18.5 -48t-18.5 -47.5t-48.5 -19.5q-29 0 -48 19.5t-19 47.5t19 48t48 20zM284 618q30 0 48.5 -19.5t18.5 -47.5t-18.5 -48t-48.5 -20q-29 0 -48 20t-19 48t19 47.5t48 19.5z" />
    <glyph glyph-name="oslash" unicode="&#xf8;" horiz-adv-x="607" 
d="M305 -12q-87 0 -146 41l-29 -40l-51 39l32 44q-32 38 -48.5 90t-16.5 113t19.5 115.5t54 94.5t81.5 63.5t103 23.5q39 0 73.5 -11.5t63.5 -32.5l34 46l54 -39l-38 -52q34 -41 52.5 -94t18.5 -114q0 -62 -16.5 -115t-49 -91t-80.5 -59.5t-111 -21.5zM304 504
q-44 0 -78 -19t-57 -50.5t-35.5 -73t-12.5 -86.5q0 -41 9 -76t27 -63l244 337q-40 31 -97 31zM203 89q20 -14 46 -22t56 -8q44 0 78 16t57 44.5t35 68.5t12 87q0 85 -40 148z" />
    <glyph glyph-name="ugrave" unicode="&#xf9;" horiz-adv-x="555" 
d="M491 0h-66l-11 78h-2q-21 -37 -63 -63.5t-101 -26.5q-45 0 -79.5 14.5t-57 40t-34 61.5t-11.5 79v377h75v-366q0 -136 116 -136q33 0 62 12.5t50.5 35.5t34 55.5t12.5 71.5v327h75v-560zM317 625h-89l-101 106h128z" />
    <glyph glyph-name="uacute" unicode="&#xfa;" horiz-adv-x="555" 
d="M491 0h-66l-11 78h-2q-21 -37 -63 -63.5t-101 -26.5q-45 0 -79.5 14.5t-57 40t-34 61.5t-11.5 79v377h75v-366q0 -136 116 -136q33 0 62 12.5t50.5 35.5t34 55.5t12.5 71.5v327h75v-560zM322 625h-89l62 106h128z" />
    <glyph glyph-name="ucircumflex" unicode="&#xfb;" horiz-adv-x="555" 
d="M491 0h-66l-11 78h-2q-21 -37 -63 -63.5t-101 -26.5q-45 0 -79.5 14.5t-57 40t-34 61.5t-11.5 79v377h75v-366q0 -136 116 -136q33 0 62 12.5t50.5 35.5t34 55.5t12.5 71.5v327h75v-560zM418 625h-92l-47 72h-3l-47 -72h-92l78 105h125z" />
    <glyph glyph-name="udieresis" unicode="&#xfc;" horiz-adv-x="555" 
d="M491 0h-66l-11 78h-2q-21 -37 -63 -63.5t-101 -26.5q-45 0 -79.5 14.5t-57 40t-34 61.5t-11.5 79v377h75v-366q0 -136 116 -136q33 0 62 12.5t50.5 35.5t34 55.5t12.5 71.5v327h75v-560zM179 731q27 0 42 -15.5t15 -41.5q0 -25 -15 -40t-42 -15q-26 0 -40.5 15t-14.5 40
q0 26 14.5 41.5t40.5 15.5zM375 731q26 0 40.5 -15t14.5 -40q0 -26 -14.5 -41.5t-40.5 -15.5q-28 0 -42.5 15.5t-14.5 41.5q0 25 14.5 40t42.5 15z" />
    <glyph glyph-name="yacute" unicode="&#xfd;" horiz-adv-x="511" 
d="M229 -185h-85l79 222l-197 523h85l151 -431h2l137 431h85zM301 625h-89l62 106h128z" />
    <glyph glyph-name="thorn" unicode="&#xfe;" horiz-adv-x="612" 
d="M151 481h3q10 17 27 33.5t38.5 29t48.5 20.5t59 8q54 0 98 -23t75.5 -63.5t49 -94.5t17.5 -116q0 -63 -16 -115.5t-46.5 -90.5t-75 -59.5t-102.5 -21.5q-66 0 -108.5 26.5t-65.5 61.5h-2v-262h-75v914h75v-247zM321 504q-41 0 -73 -17t-54.5 -47.5t-34 -72t-11.5 -90.5
t11.5 -89t34 -68.5t55 -44.5t73.5 -16q42 0 74 16t53 45t32 68.5t11 86.5t-11.5 89t-33 73t-53.5 49t-73 18z" />
    <glyph glyph-name="ydieresis" unicode="&#xff;" horiz-adv-x="511" 
d="M229 -185h-85l79 222l-197 523h85l151 -431h2l137 431h85zM158 731q27 0 42 -15.5t15 -41.5q0 -25 -15 -40t-42 -15q-26 0 -40.5 15t-14.5 40q0 26 14.5 41.5t40.5 15.5zM354 731q26 0 40.5 -15t14.5 -40q0 -26 -14.5 -41.5t-40.5 -15.5q-28 0 -42.5 15.5t-14.5 41.5
q0 25 14.5 40t42.5 15z" />
    <glyph glyph-name="Amacron" unicode="&#x100;" horiz-adv-x="654" 
d="M634 0h-86l-73 214h-295l-74 -214h-85l247 700h118zM325 636l-125 -354h253l-125 354h-3zM469 762h-283v68h283v-68z" />
    <glyph glyph-name="amacron" unicode="&#x101;" horiz-adv-x="525" 
d="M269 572q42 0 77 -11.5t60 -32.5t39 -51t14 -67v-410h-64l-10 74h-3q-26 -38 -68.5 -62t-101.5 -24q-76 0 -118 42.5t-42 110.5q0 31 9 58t30 49t55 38.5t85 26.5t81 21.5t46.5 24t21.5 27t5 31.5q0 39 -29.5 63t-87.5 24q-57 0 -100.5 -33t-68.5 -84h-3l-45 64
q15 25 36.5 47t49.5 38.5t61 26t71 9.5zM382 311q-5 -9 -13 -16.5t-23 -14.5t-38.5 -14.5t-59.5 -15.5t-60 -19t-38 -24.5t-19.5 -29.5t-5.5 -34q0 -38 24 -62t68 -24q30 0 59.5 10t53.5 27.5t39 41.5t15 53v122h-2zM408 625h-283v66h283v-66z" />
    <glyph glyph-name="Abreve" unicode="&#x102;" horiz-adv-x="654" 
d="M634 0h-86l-73 214h-295l-74 -214h-85l247 700h118zM325 636l-125 -354h253l-125 354h-3zM452 887q0 -60 -33.5 -95.5t-90.5 -35.5t-90.5 35.5t-33.5 95.5h44q11 -58 80 -58q33 0 54 15t26 43h44z" />
    <glyph glyph-name="abreve" unicode="&#x103;" horiz-adv-x="525" 
d="M269 572q42 0 77 -11.5t60 -32.5t39 -51t14 -67v-410h-64l-10 74h-3q-26 -38 -68.5 -62t-101.5 -24q-76 0 -118 42.5t-42 110.5q0 31 9 58t30 49t55 38.5t85 26.5t81 21.5t46.5 24t21.5 27t5 31.5q0 39 -29.5 63t-87.5 24q-57 0 -100.5 -33t-68.5 -84h-3l-45 64
q15 25 36.5 47t49.5 38.5t61 26t71 9.5zM382 311q-5 -9 -13 -16.5t-23 -14.5t-38.5 -14.5t-59.5 -15.5t-60 -19t-38 -24.5t-19.5 -29.5t-5.5 -34q0 -38 24 -62t68 -24q30 0 59.5 10t53.5 27.5t39 41.5t15 53v122h-2zM391 750q0 -60 -33.5 -95.5t-90.5 -35.5t-90.5 35.5
t-33.5 95.5h44q11 -58 80 -58q33 0 54 15t26 43h44z" />
    <glyph glyph-name="Aogonek" unicode="&#x104;" horiz-adv-x="654" 
d="M634 0h-86l-73 214h-295l-74 -214h-85l247 700h118zM325 636l-125 -354h253l-125 354h-3zM613 0q-25 -14 -44 -42t-19 -60q0 -20 10 -32.5t35 -12.5q18 0 36 11t28 29h4l27 -38q-16 -28 -45 -48t-68 -20q-27 0 -46 7.5t-31 19.5t-17.5 27.5t-5.5 32.5q0 35 20 70t52 56
h64z" />
    <glyph glyph-name="aogonek" unicode="&#x105;" horiz-adv-x="525" 
d="M269 572q42 0 77 -11.5t60 -32.5t39 -51t14 -67v-410h-64l-10 74h-3q-26 -38 -68.5 -62t-101.5 -24q-76 0 -118 42.5t-42 110.5q0 31 9 58t30 49t55 38.5t85 26.5t81 21.5t46.5 24t21.5 27t5 31.5q0 39 -29.5 63t-87.5 24q-57 0 -100.5 -33t-68.5 -84h-3l-45 64
q15 25 36.5 47t49.5 38.5t61 26t71 9.5zM382 311q-5 -9 -13 -16.5t-23 -14.5t-38.5 -14.5t-59.5 -15.5t-60 -19t-38 -24.5t-19.5 -29.5t-5.5 -34q0 -38 24 -62t68 -24q30 0 59.5 10t53.5 27.5t39 41.5t15 53v122h-2zM460 0q-25 -14 -44 -42t-19 -60q0 -20 10 -32.5t35 -12.5
q18 0 36 11t28 29h4l27 -38q-16 -28 -45 -48t-68 -20q-27 0 -46 7.5t-31 19.5t-17.5 27.5t-5.5 32.5q0 35 20 70t52 56h64z" />
    <glyph glyph-name="Cacute" unicode="&#x106;" horiz-adv-x="659" 
d="M358 712q54 0 96.5 -16t74.5 -41.5t54.5 -57.5t34.5 -63l-59 -54h-4q-14 34 -32 63.5t-42 50.5t-54 33t-69 12q-54 0 -96.5 -24.5t-71.5 -65t-44 -92t-15 -104.5q0 -65 15 -118.5t44.5 -91.5t71.5 -59t96 -21q43 0 78 14.5t61 40.5t43.5 62t26.5 79h4l68 -53
q-31 -103 -102.5 -160.5t-178.5 -57.5q-70 0 -127 24.5t-97 71t-61.5 114.5t-21.5 155q0 68 21.5 132.5t61.5 115t97 81t127 30.5zM402 762h-89l62 106h128z" />
    <glyph glyph-name="cacute" unicode="&#x107;" horiz-adv-x="559" 
d="M304 572q44 0 80 -13t63 -34t45.5 -47t29.5 -53l-55 -53h-3q-20 58 -58.5 95t-101.5 37q-44 0 -78 -19t-57 -50.5t-35.5 -73t-12.5 -86.5q0 -47 12 -87t35.5 -68.5t57.5 -44.5t78 -16q37 0 65.5 12.5t49 34t34 49.5t20.5 60h3l62 -48q-12 -39 -32.5 -72t-50 -56.5
t-67 -37t-83.5 -13.5q-63 0 -111 21t-81 59.5t-50 91t-17 115.5t19.5 117t54 94t81.5 63t103 23zM340 625h-89l62 106h128z" />
    <glyph glyph-name="Ccircumflex" unicode="&#x108;" horiz-adv-x="659" 
d="M358 712q54 0 96.5 -16t74.5 -41.5t54.5 -57.5t34.5 -63l-59 -54h-4q-14 34 -32 63.5t-42 50.5t-54 33t-69 12q-54 0 -96.5 -24.5t-71.5 -65t-44 -92t-15 -104.5q0 -65 15 -118.5t44.5 -91.5t71.5 -59t96 -21q43 0 78 14.5t61 40.5t43.5 62t26.5 79h4l68 -53
q-31 -103 -102.5 -160.5t-178.5 -57.5q-70 0 -127 24.5t-97 71t-61.5 114.5t-21.5 155q0 68 21.5 132.5t61.5 115t97 81t127 30.5zM498 762h-92l-47 72h-3l-47 -72h-92l78 105h125z" />
    <glyph glyph-name="ccircumflex" unicode="&#x109;" horiz-adv-x="559" 
d="M304 572q44 0 80 -13t63 -34t45.5 -47t29.5 -53l-55 -53h-3q-20 58 -58.5 95t-101.5 37q-44 0 -78 -19t-57 -50.5t-35.5 -73t-12.5 -86.5q0 -47 12 -87t35.5 -68.5t57.5 -44.5t78 -16q37 0 65.5 12.5t49 34t34 49.5t20.5 60h3l62 -48q-12 -39 -32.5 -72t-50 -56.5
t-67 -37t-83.5 -13.5q-63 0 -111 21t-81 59.5t-50 91t-17 115.5t19.5 117t54 94t81.5 63t103 23zM436 625h-92l-47 72h-3l-47 -72h-92l78 105h125z" />
    <glyph glyph-name="Cdotaccent" unicode="&#x10a;" horiz-adv-x="659" 
d="M358 712q54 0 96.5 -16t74.5 -41.5t54.5 -57.5t34.5 -63l-59 -54h-4q-14 34 -32 63.5t-42 50.5t-54 33t-69 12q-54 0 -96.5 -24.5t-71.5 -65t-44 -92t-15 -104.5q0 -65 15 -118.5t44.5 -91.5t71.5 -59t96 -21q43 0 78 14.5t61 40.5t43.5 62t26.5 79h4l68 -53
q-31 -103 -102.5 -160.5t-178.5 -57.5q-70 0 -127 24.5t-97 71t-61.5 114.5t-21.5 155q0 68 21.5 132.5t61.5 115t97 81t127 30.5zM358 872q28 0 43 -16t15 -42t-15 -42t-43 -16q-29 0 -44 16t-15 42t15 42t44 16z" />
    <glyph glyph-name="cdotaccent" unicode="&#x10b;" horiz-adv-x="559" 
d="M304 572q44 0 80 -13t63 -34t45.5 -47t29.5 -53l-55 -53h-3q-20 58 -58.5 95t-101.5 37q-44 0 -78 -19t-57 -50.5t-35.5 -73t-12.5 -86.5q0 -47 12 -87t35.5 -68.5t57.5 -44.5t78 -16q37 0 65.5 12.5t49 34t34 49.5t20.5 60h3l62 -48q-12 -39 -32.5 -72t-50 -56.5
t-67 -37t-83.5 -13.5q-63 0 -111 21t-81 59.5t-50 91t-17 115.5t19.5 117t54 94t81.5 63t103 23zM296 733q28 0 43 -16t15 -42t-15 -42t-43 -16q-29 0 -44 16t-15 42t15 42t44 16z" />
    <glyph glyph-name="Ccaron" unicode="&#x10c;" horiz-adv-x="659" 
d="M358 712q54 0 96.5 -16t74.5 -41.5t54.5 -57.5t34.5 -63l-59 -54h-4q-14 34 -32 63.5t-42 50.5t-54 33t-69 12q-54 0 -96.5 -24.5t-71.5 -65t-44 -92t-15 -104.5q0 -65 15 -118.5t44.5 -91.5t71.5 -59t96 -21q43 0 78 14.5t61 40.5t43.5 62t26.5 79h4l68 -53
q-31 -103 -102.5 -160.5t-178.5 -57.5q-70 0 -127 24.5t-97 71t-61.5 114.5t-21.5 155q0 68 21.5 132.5t61.5 115t97 81t127 30.5zM420 762h-125l-78 105h92l47 -73h3l47 73h92z" />
    <glyph glyph-name="ccaron" unicode="&#x10d;" horiz-adv-x="559" 
d="M304 572q44 0 80 -13t63 -34t45.5 -47t29.5 -53l-55 -53h-3q-20 58 -58.5 95t-101.5 37q-44 0 -78 -19t-57 -50.5t-35.5 -73t-12.5 -86.5q0 -47 12 -87t35.5 -68.5t57.5 -44.5t78 -16q37 0 65.5 12.5t49 34t34 49.5t20.5 60h3l62 -48q-12 -39 -32.5 -72t-50 -56.5
t-67 -37t-83.5 -13.5q-63 0 -111 21t-81 59.5t-50 91t-17 115.5t19.5 117t54 94t81.5 63t103 23zM358 625h-125l-78 105h92l47 -73h3l47 73h92z" />
    <glyph glyph-name="Dcaron" unicode="&#x10e;" horiz-adv-x="671" 
d="M289 700q173 0 252.5 -83t79.5 -264q0 -183 -83.5 -268t-256.5 -85h-191v700h199zM170 627v-554h118q70 0 118.5 19.5t78.5 55.5t43 88t13 117q0 67 -11.5 118.5t-40 86t-76.5 52t-120 17.5h-123zM377 762h-125l-78 105h92l47 -73h3l47 73h92z" />
    <glyph glyph-name="dcaron" unicode="&#x10f;" horiz-adv-x="659" 
d="M542 0h-66l-11 74h-2q-23 -35 -67.5 -60.5t-108.5 -25.5q-58 0 -103 21.5t-75.5 59.5t-46.5 90.5t-16 115.5q0 62 18.5 116t51 94.5t77 63.5t97.5 23q31 0 58.5 -7.5t49.5 -20t39 -28.5t28 -32h2v258h75v-742zM294 504q-42 0 -74.5 -18.5t-54 -49.5t-33 -73t-11.5 -88
q0 -47 11 -86.5t33 -68.5t54.5 -45t74.5 -16q82 0 127.5 59t45.5 159q0 51 -11.5 93t-34 71.5t-54.5 46t-73 16.5zM638 748q26 0 41.5 -18t15.5 -47q0 -33 -17 -66.5t-36 -53.5h-36v2q9 16 19.5 37t10.5 41h-8q-20 0 -33 14.5t-13 36.5q0 24 15 39t41 15z" />
    <glyph glyph-name="Dcroat" unicode="&#x110;" horiz-adv-x="702" 
d="M315 700q86 0 148.5 -20t103.5 -62.5t60.5 -108t19.5 -156.5q0 -182 -85.5 -267.5t-250.5 -85.5h-205v321h-85v70h85v309h209zM186 627v-236h176v-70h-176v-248h133q66 0 113 19.5t77 55.5t44 88t14 117q0 67 -12 118.5t-40 86t-75.5 52t-117.5 17.5h-136z" />
    <glyph glyph-name="dcroat" unicode="&#x111;" horiz-adv-x="619" 
d="M542 700h71v-59h-71v-641h-66l-11 74h-2q-23 -35 -67.5 -60.5t-108.5 -25.5q-58 0 -103 21.5t-75.5 59.5t-46.5 90.5t-16 115.5q0 62 18.5 116t51 94.5t77 63.5t97.5 23q31 0 58.5 -7.5t49.5 -20t39 -28.5t28 -32h2v157h-137v59h137v42h75v-42zM294 504
q-42 0 -74.5 -18.5t-54 -49.5t-33 -73t-11.5 -88q0 -47 11 -86.5t33 -68.5t54.5 -45t74.5 -16q82 0 127.5 59t45.5 159q0 51 -11.5 93t-34 71.5t-54.5 46t-73 16.5z" />
    <glyph glyph-name="Emacron" unicode="&#x112;" horiz-adv-x="554" 
d="M489 627h-323v-239h323v-68h-323v-247h323v-73h-403v700h403v-73zM432 762h-283v68h283v-68z" />
    <glyph glyph-name="emacron" unicode="&#x113;" horiz-adv-x="584" 
d="M298 572q51 0 95 -19.5t76.5 -56.5t51 -89.5t18.5 -118.5q0 -6 -0.5 -11.5t-0.5 -10.5v-11h-417q2 -44 15.5 -80t37 -62t56 -40t73.5 -14q34 0 62 10t50 25.5t38 34t27 35.5h4l37 -70q-32 -45 -89.5 -75.5t-127.5 -30.5q-64 0 -112.5 22t-80.5 61t-48.5 93t-16.5 118
t20 117t54.5 91.5t80.5 60t97 21.5zM297 504q-36 0 -66 -14t-53 -38.5t-37 -58t-18 -72.5h341q-3 45 -16.5 79.5t-36 57.5t-51.5 34.5t-63 11.5zM440 625h-283v66h283v-66z" />
    <glyph glyph-name="Ebreve" unicode="&#x114;" horiz-adv-x="554" 
d="M489 627h-323v-239h323v-68h-323v-247h323v-73h-403v700h403v-73zM415 887q0 -60 -33.5 -95.5t-90.5 -35.5t-90.5 35.5t-33.5 95.5h44q11 -58 80 -58q33 0 54 15t26 43h44z" />
    <glyph glyph-name="ebreve" unicode="&#x115;" horiz-adv-x="584" 
d="M298 572q51 0 95 -19.5t76.5 -56.5t51 -89.5t18.5 -118.5q0 -6 -0.5 -11.5t-0.5 -10.5v-11h-417q2 -44 15.5 -80t37 -62t56 -40t73.5 -14q34 0 62 10t50 25.5t38 34t27 35.5h4l37 -70q-32 -45 -89.5 -75.5t-127.5 -30.5q-64 0 -112.5 22t-80.5 61t-48.5 93t-16.5 118
t20 117t54.5 91.5t80.5 60t97 21.5zM297 504q-36 0 -66 -14t-53 -38.5t-37 -58t-18 -72.5h341q-3 45 -16.5 79.5t-36 57.5t-51.5 34.5t-63 11.5zM423 750q0 -60 -33.5 -95.5t-90.5 -35.5t-90.5 35.5t-33.5 95.5h44q11 -58 80 -58q33 0 54 15t26 43h44z" />
    <glyph glyph-name="Edotaccent" unicode="&#x116;" horiz-adv-x="554" 
d="M489 627h-323v-239h323v-68h-323v-247h323v-73h-403v700h403v-73zM291 872q28 0 43 -16t15 -42t-15 -42t-43 -16q-29 0 -44 16t-15 42t15 42t44 16z" />
    <glyph glyph-name="edotaccent" unicode="&#x117;" horiz-adv-x="584" 
d="M298 572q51 0 95 -19.5t76.5 -56.5t51 -89.5t18.5 -118.5q0 -6 -0.5 -11.5t-0.5 -10.5v-11h-417q2 -44 15.5 -80t37 -62t56 -40t73.5 -14q34 0 62 10t50 25.5t38 34t27 35.5h4l37 -70q-32 -45 -89.5 -75.5t-127.5 -30.5q-64 0 -112.5 22t-80.5 61t-48.5 93t-16.5 118
t20 117t54.5 91.5t80.5 60t97 21.5zM297 504q-36 0 -66 -14t-53 -38.5t-37 -58t-18 -72.5h341q-3 45 -16.5 79.5t-36 57.5t-51.5 34.5t-63 11.5zM299 733q28 0 43 -16t15 -42t-15 -42t-43 -16q-29 0 -44 16t-15 42t15 42t44 16z" />
    <glyph glyph-name="Eogonek" unicode="&#x118;" horiz-adv-x="554" 
d="M489 627h-323v-239h323v-68h-323v-247h323v-73h-403v700h403v-73zM422 0q-25 -14 -44 -42t-19 -60q0 -20 10 -32.5t35 -12.5q18 0 36 11t28 29h4l27 -38q-16 -28 -45 -48t-68 -20q-27 0 -46 7.5t-31 19.5t-17.5 27.5t-5.5 32.5q0 35 20 70t52 56h64z" />
    <glyph glyph-name="eogonek" unicode="&#x119;" horiz-adv-x="584" 
d="M298 572q51 0 95 -19.5t76.5 -56.5t51 -89.5t18.5 -118.5q0 -6 -0.5 -11.5t-0.5 -10.5v-11h-417q2 -44 15.5 -80t37 -62t56 -40t73.5 -14q34 0 62 10t50 25.5t38 34t27 35.5h4l37 -70q-32 -45 -89.5 -75.5t-127.5 -30.5q-64 0 -112.5 22t-80.5 61t-48.5 93t-16.5 118
t20 117t54.5 91.5t80.5 60t97 21.5zM297 504q-36 0 -66 -14t-53 -38.5t-37 -58t-18 -72.5h341q-3 45 -16.5 79.5t-36 57.5t-51.5 34.5t-63 11.5zM386 0q-25 -14 -44 -42t-19 -60q0 -20 10 -32.5t35 -12.5q18 0 36 11t28 29h4l27 -38q-16 -28 -45 -48t-68 -20q-27 0 -46 7.5
t-31 19.5t-17.5 27.5t-5.5 32.5q0 35 20 70t52 56h64z" />
    <glyph glyph-name="Ecaron" unicode="&#x11a;" horiz-adv-x="554" 
d="M489 627h-323v-239h323v-68h-323v-247h323v-73h-403v700h403v-73zM353 762h-125l-78 105h92l47 -73h3l47 73h92z" />
    <glyph glyph-name="ecaron" unicode="&#x11b;" horiz-adv-x="584" 
d="M298 572q51 0 95 -19.5t76.5 -56.5t51 -89.5t18.5 -118.5q0 -6 -0.5 -11.5t-0.5 -10.5v-11h-417q2 -44 15.5 -80t37 -62t56 -40t73.5 -14q34 0 62 10t50 25.5t38 34t27 35.5h4l37 -70q-32 -45 -89.5 -75.5t-127.5 -30.5q-64 0 -112.5 22t-80.5 61t-48.5 93t-16.5 118
t20 117t54.5 91.5t80.5 60t97 21.5zM297 504q-36 0 -66 -14t-53 -38.5t-37 -58t-18 -72.5h341q-3 45 -16.5 79.5t-36 57.5t-51.5 34.5t-63 11.5zM361 625h-125l-78 105h92l47 -73h3l47 73h92z" />
    <glyph glyph-name="Gcircumflex" unicode="&#x11c;" horiz-adv-x="672" 
d="M358 712q54 0 96.5 -16t74.5 -41.5t54 -57t35 -61.5l-58 -56h-5q-14 34 -31.5 63.5t-41.5 51t-54.5 34t-69.5 12.5q-54 0 -96.5 -25t-71.5 -65.5t-44 -92.5t-15 -105q0 -65 15 -118.5t44.5 -91.5t71.5 -59t96 -21q36 0 67 8t55 21t41.5 28.5t27.5 30.5v99h-143v68h216
v-318h-47l-27 67h-2q-12 -14 -30 -28.5t-41.5 -25.5t-53 -18t-66.5 -7q-69 0 -125 23.5t-96 70t-61.5 114.5t-21.5 157q0 68 21.5 132.5t61.5 115t97 81t127 30.5zM499 762h-92l-47 72h-3l-47 -72h-92l78 105h125z" />
    <glyph glyph-name="gcircumflex" unicode="&#x11d;" horiz-adv-x="597" 
d="M278 572q65 0 105 -25.5t61 -59.5h3l9 73h66v-525q0 -61 -16.5 -104.5t-46 -72t-71 -42t-91.5 -13.5q-35 0 -66 8.5t-56.5 21.5t-45 29t-32.5 31l35 65h3q11 -15 28 -30t37 -27.5t43.5 -20.5t47.5 -8q76 0 116 40.5t40 135.5v77h-4q-20 -30 -61 -53.5t-101 -23.5
q-55 0 -98.5 18.5t-74 52t-46.5 80.5t-16 105q0 57 17.5 106t49 85t73.5 56.5t92 20.5zM286 504q-42 0 -73 -16.5t-51.5 -44t-30.5 -64t-10 -75.5q0 -40 10.5 -74t31 -59t50.5 -39t69 -14q78 0 121.5 49t43.5 143q0 42 -11 77.5t-31.5 61.5t-50 40.5t-68.5 14.5zM419 625
h-92l-47 72h-3l-47 -72h-92l78 105h125z" />
    <glyph glyph-name="Gbreve" unicode="&#x11e;" horiz-adv-x="672" 
d="M358 712q54 0 96.5 -16t74.5 -41.5t54 -57t35 -61.5l-58 -56h-5q-14 34 -31.5 63.5t-41.5 51t-54.5 34t-69.5 12.5q-54 0 -96.5 -25t-71.5 -65.5t-44 -92.5t-15 -105q0 -65 15 -118.5t44.5 -91.5t71.5 -59t96 -21q36 0 67 8t55 21t41.5 28.5t27.5 30.5v99h-143v68h216
v-318h-47l-27 67h-2q-12 -14 -30 -28.5t-41.5 -25.5t-53 -18t-66.5 -7q-69 0 -125 23.5t-96 70t-61.5 114.5t-21.5 157q0 68 21.5 132.5t61.5 115t97 81t127 30.5zM483 887q0 -60 -33.5 -95.5t-90.5 -35.5t-90.5 35.5t-33.5 95.5h44q11 -58 80 -58q33 0 54 15t26 43h44z" />
    <glyph glyph-name="gbreve" unicode="&#x11f;" horiz-adv-x="597" 
d="M278 572q65 0 105 -25.5t61 -59.5h3l9 73h66v-525q0 -61 -16.5 -104.5t-46 -72t-71 -42t-91.5 -13.5q-35 0 -66 8.5t-56.5 21.5t-45 29t-32.5 31l35 65h3q11 -15 28 -30t37 -27.5t43.5 -20.5t47.5 -8q76 0 116 40.5t40 135.5v77h-4q-20 -30 -61 -53.5t-101 -23.5
q-55 0 -98.5 18.5t-74 52t-46.5 80.5t-16 105q0 57 17.5 106t49 85t73.5 56.5t92 20.5zM286 504q-42 0 -73 -16.5t-51.5 -44t-30.5 -64t-10 -75.5q0 -40 10.5 -74t31 -59t50.5 -39t69 -14q78 0 121.5 49t43.5 143q0 42 -11 77.5t-31.5 61.5t-50 40.5t-68.5 14.5zM403 750
q0 -60 -33.5 -95.5t-90.5 -35.5t-90.5 35.5t-33.5 95.5h44q11 -58 80 -58q33 0 54 15t26 43h44z" />
    <glyph glyph-name="Gdotaccent" unicode="&#x120;" horiz-adv-x="672" 
d="M358 712q54 0 96.5 -16t74.5 -41.5t54 -57t35 -61.5l-58 -56h-5q-14 34 -31.5 63.5t-41.5 51t-54.5 34t-69.5 12.5q-54 0 -96.5 -25t-71.5 -65.5t-44 -92.5t-15 -105q0 -65 15 -118.5t44.5 -91.5t71.5 -59t96 -21q36 0 67 8t55 21t41.5 28.5t27.5 30.5v99h-143v68h216
v-318h-47l-27 67h-2q-12 -14 -30 -28.5t-41.5 -25.5t-53 -18t-66.5 -7q-69 0 -125 23.5t-96 70t-61.5 114.5t-21.5 157q0 68 21.5 132.5t61.5 115t97 81t127 30.5zM359 872q28 0 43 -16t15 -42t-15 -42t-43 -16q-29 0 -44 16t-15 42t15 42t44 16z" />
    <glyph glyph-name="gdotaccent" unicode="&#x121;" horiz-adv-x="597" 
d="M278 572q65 0 105 -25.5t61 -59.5h3l9 73h66v-525q0 -61 -16.5 -104.5t-46 -72t-71 -42t-91.5 -13.5q-35 0 -66 8.5t-56.5 21.5t-45 29t-32.5 31l35 65h3q11 -15 28 -30t37 -27.5t43.5 -20.5t47.5 -8q76 0 116 40.5t40 135.5v77h-4q-20 -30 -61 -53.5t-101 -23.5
q-55 0 -98.5 18.5t-74 52t-46.5 80.5t-16 105q0 57 17.5 106t49 85t73.5 56.5t92 20.5zM286 504q-42 0 -73 -16.5t-51.5 -44t-30.5 -64t-10 -75.5q0 -40 10.5 -74t31 -59t50.5 -39t69 -14q78 0 121.5 49t43.5 143q0 42 -11 77.5t-31.5 61.5t-50 40.5t-68.5 14.5zM279 733
q28 0 43 -16t15 -42t-15 -42t-43 -16q-29 0 -44 16t-15 42t15 42t44 16z" />
    <glyph glyph-name="Gcommaaccent" unicode="&#x122;" horiz-adv-x="672" 
d="M358 712q54 0 96.5 -16t74.5 -41.5t54 -57t35 -61.5l-58 -56h-5q-14 34 -31.5 63.5t-41.5 51t-54.5 34t-69.5 12.5q-54 0 -96.5 -25t-71.5 -65.5t-44 -92.5t-15 -105q0 -65 15 -118.5t44.5 -91.5t71.5 -59t96 -21q36 0 67 8t55 21t41.5 28.5t27.5 30.5v99h-143v68h216
v-318h-47l-27 67h-2q-12 -14 -30 -28.5t-41.5 -25.5t-53 -18t-66.5 -7q-69 0 -125 23.5t-96 70t-61.5 114.5t-21.5 157q0 68 21.5 132.5t61.5 115t97 81t127 30.5zM348 -55q28 0 44.5 -19t16.5 -49q0 -33 -17.5 -65.5t-37.5 -53.5h-37v3q11 16 20.5 35t9.5 40
q-29 0 -42.5 14.5t-13.5 37.5q0 26 14.5 41.5t42.5 15.5z" />
    <glyph glyph-name="gcommaaccent" unicode="&#x123;" horiz-adv-x="597" 
d="M278 572q65 0 105 -25.5t61 -59.5h3l9 73h66v-525q0 -61 -16.5 -104.5t-46 -72t-71 -42t-91.5 -13.5q-35 0 -66 8.5t-56.5 21.5t-45 29t-32.5 31l35 65h3q11 -15 28 -30t37 -27.5t43.5 -20.5t47.5 -8q76 0 116 40.5t40 135.5v77h-4q-20 -30 -61 -53.5t-101 -23.5
q-55 0 -98.5 18.5t-74 52t-46.5 80.5t-16 105q0 57 17.5 106t49 85t73.5 56.5t92 20.5zM286 504q-42 0 -73 -16.5t-51.5 -44t-30.5 -64t-10 -75.5q0 -40 10.5 -74t31 -59t50.5 -39t69 -14q78 0 121.5 49t43.5 143q0 42 -11 77.5t-31.5 61.5t-50 40.5t-68.5 14.5z
M281.993 614.997q-27.999 0 -44.4971 18.998q-16.499 18.999 -16.499 48.9971q0 32.998 17.498 65.4961q17.499 32.498 37.498 53.4971h36.998v-3q-10.999 -15.999 -20.499 -34.998q-9.49902 -18.999 -9.49902 -39.9971q28.998 0 42.4971 -14.499t13.499 -37.498
q0 -25.998 -14.499 -41.4971t-42.4971 -15.499z" />
    <glyph glyph-name="Hcircumflex" unicode="&#x124;" horiz-adv-x="658" 
d="M573 0h-80v323h-327v-323h-80v700h80v-310h327v310h80v-700zM471 762h-92l-47 72h-3l-47 -72h-92l78 105h125z" />
    <glyph glyph-name="hcircumflex" unicode="&#x125;" horiz-adv-x="585" 
d="M151 476h2q26 43 70.5 69.5t105.5 26.5q49 0 85 -16t59.5 -44t35 -65.5t11.5 -80.5v-366h-75v351q0 74 -32.5 113.5t-97.5 39.5q-36 0 -66 -14.5t-51.5 -41.5t-34 -66t-12.5 -89v-293h-75v742h75v-266zM450 762h-92l-47 72h-3l-47 -72h-92l78 105h125z" />
    <glyph glyph-name="Hbar" unicode="&#x126;" horiz-adv-x="695" 
d="M597 592h78v-63h-78v-529h-80v318h-338v-318h-80v529h-78v63h78v108h80v-108h338v108h80v-108zM178 529v-143h338v143h-338z" />
    <glyph glyph-name="hbar" unicode="&#x127;" horiz-adv-x="585" 
d="M151 700h138v-59h-138v-165h2q7 13 21.5 30t36 31.5t51 24.5t67.5 10q49 0 85 -16t59.5 -44t35 -65.5t11.5 -80.5v-366h-75v351q0 74 -32.5 113.5t-97.5 39.5q-36 0 -66 -14.5t-51.5 -41.5t-34 -66t-12.5 -89v-293h-75v641h-70v59h70v42h75v-42z" />
    <glyph glyph-name="Itilde" unicode="&#x128;" horiz-adv-x="251" 
d="M166 0h-80v700h80v-700zM77 864q20 0 35 -5.5t27.5 -12l23.5 -12t23 -5.5q16 0 23 8t11 22h48q-9 -46 -28 -73.5t-62 -27.5q-20 0 -35 5.5t-27.5 12l-23.5 12t-24 5.5q-26 0 -34 -31h-47q8 46 28 74t62 28z" />
    <glyph glyph-name="itilde" unicode="&#x129;" horiz-adv-x="226" 
d="M151 0h-75v560h75v-560zM65 727q20 0 35 -5.5t27.5 -12l23.5 -12t23 -5.5q16 0 23 8t11 22h48q-9 -46 -28 -73.5t-62 -27.5q-20 0 -35 5.5t-27.5 12l-23.5 12t-24 5.5q-26 0 -34 -31h-47q8 46 28 74t62 28z" />
    <glyph glyph-name="Imacron" unicode="&#x12a;" horiz-adv-x="251" 
d="M166 0h-80v700h80v-700zM269 762h-283v68h283v-68z" />
    <glyph glyph-name="imacron" unicode="&#x12b;" horiz-adv-x="226" 
d="M151 0h-75v560h75v-560zM257 625h-283v66h283v-66z" />
    <glyph glyph-name="Ibreve" unicode="&#x12c;" horiz-adv-x="251" 
d="M166 0h-80v700h80v-700zM252 887q0 -60 -33.5 -95.5t-90.5 -35.5t-90.5 35.5t-33.5 95.5h44q11 -58 80 -58q33 0 54 15t26 43h44z" />
    <glyph glyph-name="ibreve" unicode="&#x12d;" horiz-adv-x="226" 
d="M151 0h-75v560h75v-560zM240 750q0 -60 -33.5 -95.5t-90.5 -35.5t-90.5 35.5t-33.5 95.5h44q11 -58 80 -58q33 0 54 15t26 43h44z" />
    <glyph glyph-name="Iogonek" unicode="&#x12e;" horiz-adv-x="251" 
d="M166 0h-80v700h80v-700zM152 0q-25 -14 -44 -42t-19 -60q0 -20 10 -32.5t35 -12.5q18 0 36 11t28 29h4l27 -38q-16 -28 -45 -48t-68 -20q-27 0 -46 7.5t-31 19.5t-17.5 27.5t-5.5 32.5q0 35 20 70t52 56h64z" />
    <glyph glyph-name="iogonek" unicode="&#x12f;" horiz-adv-x="226" 
d="M151 0h-75v560h75v-560zM115 733q28 0 43 -16t15 -42t-15 -42t-43 -16q-29 0 -44 16t-15 42t15 42t44 16zM142 0q-25 -14 -44 -42t-19 -60q0 -20 10 -32.5t35 -12.5q18 0 36 11t28 29h4l27 -38q-16 -28 -45 -48t-68 -20q-27 0 -46 7.5t-31 19.5t-17.5 27.5t-5.5 32.5
q0 35 20 70t52 56h64z" />
    <glyph glyph-name="Idotaccent" unicode="&#x130;" horiz-adv-x="251" 
d="M166 0h-80v700h80v-700zM127 872q28 0 43 -16t15 -42t-15 -42t-43 -16q-29 0 -44 16t-15 42t15 42t44 16z" />
    <glyph glyph-name="dotlessi" unicode="&#x131;" horiz-adv-x="226" 
d="M151 0h-75v560h75v-560z" />
    <glyph glyph-name="Jcircumflex" unicode="&#x134;" horiz-adv-x="466" 
d="M391 179q0 -42 -12.5 -77t-36.5 -60.5t-59 -39.5t-80 -14q-38 0 -68.5 11.5t-54 28.5t-39.5 38t-25 41l49 63h4q9 -20 22 -39t29.5 -33.5t36.5 -23.5t44 -9q49 0 79.5 30.5t30.5 99.5v505h80v-521zM301 374h-92l-47 72h-3l-47 -72h-92l78 105h125z" />
    <glyph glyph-name="jcircumflex" unicode="&#x135;" horiz-adv-x="215" 
d="M139 -49q0 -31 -8.5 -52.5t-22.5 -35t-32.5 -19.5t-38.5 -6q-21 0 -41.5 5.5t-34.5 13.5l11 71h3q11 -6 22.5 -10.5t25.5 -4.5q19 0 30 9.5t11 29.5v608h75v-609zM244 625h-92l-47 72h-3l-47 -72h-92l78 105h125z" />
    <glyph glyph-name="Kcommaaccent" unicode="&#x136;" horiz-adv-x="577" 
d="M248 359l314 -359h-108l-287 332h-2v-332h-79v700h79v-322h2l275 322h103zM313 -55q28 0 44.5 -19t16.5 -49q0 -33 -17.5 -65.5t-37.5 -53.5h-37v3q11 16 20.5 35t9.5 40q-29 0 -42.5 14.5t-13.5 37.5q0 26 14.5 41.5t42.5 15.5z" />
    <glyph glyph-name="kcommaaccent" unicode="&#x137;" horiz-adv-x="479" 
d="M151 292h2l222 268h97l-240 -277l242 -283h-100l-220 266h-2v-266h-76v742h75v-450zM244 -55q28 0 44.5 -19t16.5 -49q0 -33 -17.5 -65.5t-37.5 -53.5h-37v3q11 16 20.5 35t9.5 40q-29 0 -42.5 14.5t-13.5 37.5q0 26 14.5 41.5t42.5 15.5z" />
    <glyph glyph-name="kgreenlandic" unicode="&#x138;" horiz-adv-x="502" 
d="M235 282l262 -282h-104l-239 266h-2v-266h-76v560h75v-268h2l241 268h97z" />
    <glyph glyph-name="Lacute" unicode="&#x139;" horiz-adv-x="474" 
d="M166 72h283v-72h-363v700h80v-628zM172 762h-89l62 106h128z" />
    <glyph glyph-name="lacute" unicode="&#x13a;" horiz-adv-x="226" 
d="M151 0h-75v742h75v-742zM158 802h-89l62 106h128z" />
    <glyph glyph-name="Lcommaaccent" unicode="&#x13b;" horiz-adv-x="474" 
d="M166 72h283v-72h-363v700h80v-628zM270 -55q28 0 44.5 -19t16.5 -49q0 -33 -17.5 -65.5t-37.5 -53.5h-37v3q11 16 20.5 35t9.5 40q-29 0 -42.5 14.5t-13.5 37.5q0 26 14.5 41.5t42.5 15.5z" />
    <glyph glyph-name="lcommaaccent" unicode="&#x13c;" horiz-adv-x="226" 
d="M151 0h-75v742h75v-742zM112 -55q28 0 44.5 -19t16.5 -49q0 -33 -17.5 -65.5t-37.5 -53.5h-37v3q11 16 20.5 35t9.5 40q-29 0 -42.5 14.5t-13.5 37.5q0 26 14.5 41.5t42.5 15.5z" />
    <glyph glyph-name="Lcaron" unicode="&#x13d;" horiz-adv-x="474" 
d="M166 72h283v-72h-363v700h80v-628zM377 706q26 0 41.5 -18t15.5 -47q0 -33 -17 -66.5t-36 -53.5h-36v2q9 16 19.5 37t10.5 41h-8q-20 0 -33 14.5t-13 36.5q0 24 15 39t41 15z" />
    <glyph glyph-name="lcaron" unicode="&#x13e;" horiz-adv-x="305" 
d="M151 0h-75v742h75v-742zM269 748q26 0 41.5 -18t15.5 -47q0 -33 -17 -66.5t-36 -53.5h-36v2q9 16 19.5 37t10.5 41h-8q-20 0 -33 14.5t-13 36.5q0 24 15 39t41 15z" />
    <glyph glyph-name="Ldot" unicode="&#x13f;" horiz-adv-x="474" 
d="M166 72h283v-72h-363v700h80v-628zM359 461q27 0 44 -17.5t17 -44.5q0 -26 -17 -43t-44 -17q-26 0 -43.5 17t-17.5 43q0 27 17.5 44.5t43.5 17.5z" />
    <glyph glyph-name="ldot" unicode="&#x140;" horiz-adv-x="296" 
d="M151 0h-75v742h75v-742zM270 461q27 0 44 -17.5t17 -44.5q0 -26 -17 -43t-44 -17q-26 0 -43.5 17t-17.5 43q0 27 17.5 44.5t43.5 17.5z" />
    <glyph glyph-name="Lslash" unicode="&#x141;" horiz-adv-x="501" 
d="M188 398l157 92l36 -62l-193 -111v-245h288v-72h-368v274l-57 -32l-35 61l92 52v345h80v-302z" />
    <glyph glyph-name="lslash" unicode="&#x142;" horiz-adv-x="281" 
d="M178 449l70 42l28 -48l-98 -58v-385h-75v345l-70 -42l-27 49l97 55v335h75v-293z" />
    <glyph glyph-name="Nacute" unicode="&#x143;" horiz-adv-x="691" 
d="M606 0h-128l-311 627h-2v-627h-79v700h128l311 -627h2v627h79v-700zM393 762h-89l62 106h128z" />
    <glyph glyph-name="nacute" unicode="&#x144;" horiz-adv-x="586" 
d="M329 572q48 0 84 -16t60 -44t36 -65.5t12 -80.5v-366h-75v351q0 74 -32.5 113.5t-98.5 39.5q-35 0 -65 -14.5t-52 -41t-34.5 -64.5t-12.5 -84v-300h-75v560h66l9 -77h2q26 39 71 64t105 25zM364 625h-89l62 106h128z" />
    <glyph glyph-name="Ncommaaccent" unicode="&#x145;" horiz-adv-x="691" 
d="M606 0h-128l-311 627h-2v-627h-79v700h128l311 -627h2v627h79v-700zM347 -55q28 0 44.5 -19t16.5 -49q0 -33 -17.5 -65.5t-37.5 -53.5h-37v3q11 16 20.5 35t9.5 40q-29 0 -42.5 14.5t-13.5 37.5q0 26 14.5 41.5t42.5 15.5z" />
    <glyph glyph-name="ncommaaccent" unicode="&#x146;" horiz-adv-x="586" 
d="M329 572q48 0 84 -16t60 -44t36 -65.5t12 -80.5v-366h-75v351q0 74 -32.5 113.5t-98.5 39.5q-35 0 -65 -14.5t-52 -41t-34.5 -64.5t-12.5 -84v-300h-75v560h66l9 -77h2q26 39 71 64t105 25zM284 -55q28 0 44.5 -19t16.5 -49q0 -33 -17.5 -65.5t-37.5 -53.5h-37v3
q11 16 20.5 35t9.5 40q-29 0 -42.5 14.5t-13.5 37.5q0 26 14.5 41.5t42.5 15.5z" />
    <glyph glyph-name="Ncaron" unicode="&#x147;" horiz-adv-x="691" 
d="M606 0h-128l-311 627h-2v-627h-79v700h128l311 -627h2v627h79v-700zM411 762h-125l-78 105h92l47 -73h3l47 73h92z" />
    <glyph glyph-name="ncaron" unicode="&#x148;" horiz-adv-x="586" 
d="M329 572q48 0 84 -16t60 -44t36 -65.5t12 -80.5v-366h-75v351q0 74 -32.5 113.5t-98.5 39.5q-35 0 -65 -14.5t-52 -41t-34.5 -64.5t-12.5 -84v-300h-75v560h66l9 -77h2q26 39 71 64t105 25zM382 625h-125l-78 105h92l47 -73h3l47 73h92z" />
    <glyph glyph-name="Eng" unicode="&#x14a;" horiz-adv-x="685" 
d="M86 700h124l311 -627h2v627h79v-752q0 -31 -8.5 -52.5t-22.5 -35t-32.5 -19.5t-39.5 -6q-20 0 -39 4.5t-33 12.5l11 72h2q10 -5 21.5 -9.5t24.5 -4.5q20 0 30.5 11t10.5 40v39h-49l-311 627h-2v-627h-79v700z" />
    <glyph glyph-name="eng" unicode="&#x14b;" horiz-adv-x="586" 
d="M329 572q48 0 84 -16t60 -44t36 -65.5t12 -80.5v-419q0 -31 -8.5 -52.5t-22.5 -35t-32.5 -19.5t-39.5 -6q-20 0 -41.5 5t-35.5 13l11 72h2q11 -6 24 -10.5t27 -4.5q19 0 30 9.5t11 34.5v398q0 74 -32.5 113.5t-98.5 39.5q-35 0 -65 -14.5t-52 -41t-34.5 -64.5t-12.5 -84
v-300h-75v560h66l9 -77h2q26 39 71 64t105 25z" />
    <glyph glyph-name="Omacron" unicode="&#x14c;" horiz-adv-x="715" 
d="M358 712q70 0 127 -30.5t97 -81t61.5 -115t21.5 -132.5q0 -89 -22 -157t-62 -114.5t-96.5 -70t-126.5 -23.5t-127 23.5t-97 70t-61.5 114.5t-21.5 157q0 68 21.5 132.5t61.5 115t97 81t127 30.5zM358 641q-55 0 -97.5 -25t-71 -65.5t-43.5 -92.5t-15 -105
q0 -65 15 -118.5t44.5 -91.5t71.5 -59t96 -21t96 20.5t71.5 58.5t44.5 91.5t15 119.5q0 54 -15 105.5t-43.5 92t-71 65.5t-97.5 25zM499 762h-283v68h283v-68z" />
    <glyph glyph-name="omacron" unicode="&#x14d;" horiz-adv-x="607" 
d="M304 572q56 0 103.5 -23.5t82 -63.5t53.5 -94.5t19 -115.5q0 -62 -16.5 -115t-49 -91t-80.5 -59.5t-111 -21.5t-111 21.5t-81 60t-50 91t-17 114.5q0 61 19.5 115.5t54 94.5t81.5 63.5t103 23.5zM304 504q-44 0 -78 -19t-57 -50.5t-35.5 -73t-12.5 -86.5q0 -47 12 -87
t35.5 -68.5t58 -44.5t78.5 -16t78 16t57 44.5t35 68.5t12 87q0 46 -12 87.5t-35.5 73t-57.5 50t-78 18.5zM446 625h-283v66h283v-66z" />
    <glyph glyph-name="Obreve" unicode="&#x14e;" horiz-adv-x="715" 
d="M358 712q70 0 127 -30.5t97 -81t61.5 -115t21.5 -132.5q0 -89 -22 -157t-62 -114.5t-96.5 -70t-126.5 -23.5t-127 23.5t-97 70t-61.5 114.5t-21.5 157q0 68 21.5 132.5t61.5 115t97 81t127 30.5zM358 641q-55 0 -97.5 -25t-71 -65.5t-43.5 -92.5t-15 -105
q0 -65 15 -118.5t44.5 -91.5t71.5 -59t96 -21t96 20.5t71.5 58.5t44.5 91.5t15 119.5q0 54 -15 105.5t-43.5 92t-71 65.5t-97.5 25zM482 887q0 -60 -33.5 -95.5t-90.5 -35.5t-90.5 35.5t-33.5 95.5h44q11 -58 80 -58q33 0 54 15t26 43h44z" />
    <glyph glyph-name="obreve" unicode="&#x14f;" horiz-adv-x="607" 
d="M304 572q56 0 103.5 -23.5t82 -63.5t53.5 -94.5t19 -115.5q0 -62 -16.5 -115t-49 -91t-80.5 -59.5t-111 -21.5t-111 21.5t-81 60t-50 91t-17 114.5q0 61 19.5 115.5t54 94.5t81.5 63.5t103 23.5zM304 504q-44 0 -78 -19t-57 -50.5t-35.5 -73t-12.5 -86.5q0 -47 12 -87
t35.5 -68.5t58 -44.5t78.5 -16t78 16t57 44.5t35 68.5t12 87q0 46 -12 87.5t-35.5 73t-57.5 50t-78 18.5zM429 750q0 -60 -33.5 -95.5t-90.5 -35.5t-90.5 35.5t-33.5 95.5h44q11 -58 80 -58q33 0 54 15t26 43h44z" />
    <glyph glyph-name="Ohungarumlaut" unicode="&#x150;" horiz-adv-x="715" 
d="M358 712q70 0 127 -30.5t97 -81t61.5 -115t21.5 -132.5q0 -89 -22 -157t-62 -114.5t-96.5 -70t-126.5 -23.5t-127 23.5t-97 70t-61.5 114.5t-21.5 157q0 68 21.5 132.5t61.5 115t97 81t127 30.5zM358 641q-55 0 -97.5 -25t-71 -65.5t-43.5 -92.5t-15 -105
q0 -65 15 -118.5t44.5 -91.5t71.5 -59t96 -21t96 20.5t71.5 58.5t44.5 91.5t15 119.5q0 54 -15 105.5t-43.5 92t-71 65.5t-97.5 25zM479 762h-85l69 105h119zM308 762h-85l69 105h119z" />
    <glyph glyph-name="ohungarumlaut" unicode="&#x151;" horiz-adv-x="607" 
d="M304 572q56 0 103.5 -23.5t82 -63.5t53.5 -94.5t19 -115.5q0 -62 -16.5 -115t-49 -91t-80.5 -59.5t-111 -21.5t-111 21.5t-81 60t-50 91t-17 114.5q0 61 19.5 115.5t54 94.5t81.5 63.5t103 23.5zM304 504q-44 0 -78 -19t-57 -50.5t-35.5 -73t-12.5 -86.5q0 -47 12 -87
t35.5 -68.5t58 -44.5t78.5 -16t78 16t57 44.5t35 68.5t12 87q0 46 -12 87.5t-35.5 73t-57.5 50t-78 18.5zM424 625h-85l69 105h119zM253 625h-85l69 105h119z" />
    <glyph glyph-name="OE" unicode="&#x152;" horiz-adv-x="856" 
d="M357 712q23 0 44 -3.5t33 -8.5h357v-73h-285v-239h285v-67h-285v-248h285v-73h-350q-16 -5 -39 -8.5t-45 -3.5q-72 0 -129 24.5t-96.5 70.5t-60 113t-20.5 153t23 153.5t63.5 114t97 71t122.5 24.5zM357 637q-54 0 -96 -20.5t-71 -58t-44 -91t-15 -118.5t15 -117.5
t44 -90t71 -57.5t96 -20q20 0 40 3t31 10v544q-11 7 -30 11.5t-41 4.5z" />
    <glyph glyph-name="oe" unicode="&#x153;" horiz-adv-x="1025" 
d="M739 572q51 0 95 -19.5t76.5 -56.5t51 -89.5t18.5 -118.5q0 -6 -0.5 -11.5t-0.5 -10.5v-11h-419q2 -44 15.5 -80.5t37.5 -62.5t57 -40t74 -14q34 0 62.5 10t50.5 25.5t38 34t27 35.5h3l35 -71q-32 -44 -88 -74t-126 -30q-81 0 -136 33.5t-86 93.5q-31 -60 -85.5 -93.5
t-133.5 -33.5q-63 0 -111 21.5t-81 60t-50 91t-17 114.5q0 61 19.5 115.5t54 94.5t81.5 63.5t103 23.5q73 0 130 -38.5t89 -101.5q34 65 90.5 102.5t125.5 37.5zM304 505q-44 0 -78 -19t-57.5 -50.5t-36 -73.5t-12.5 -87q0 -47 12.5 -87t36 -69t58 -45t78.5 -16t78 16
t57.5 44.5t35.5 68.5t12 89q0 47 -13 89t-36.5 73t-57.5 49t-77 18zM738 506q-35 0 -65.5 -14t-53.5 -39t-37.5 -59.5t-18.5 -74.5h343q-5 91 -51.5 139t-116.5 48z" />
    <glyph glyph-name="Racute" unicode="&#x154;" horiz-adv-x="629" 
d="M350 700q114 0 166 -51t52 -139q0 -90 -60 -138.5t-170 -51.5l227 -320h-100l-220 319h-79v-319h-80v700h264zM166 627v-238h154q81 0 124.5 29.5t43.5 91.5q0 64 -34.5 90.5t-115.5 26.5h-172zM350 762h-89l62 106h128z" />
    <glyph glyph-name="racute" unicode="&#x155;" horiz-adv-x="370" 
d="M262 572q30 0 54.5 -10.5t36.5 -24.5l-15 -80h-4q-14 17 -34.5 27.5t-44.5 10.5q-46 0 -75 -45t-29 -136v-314h-75v560h64l9 -74h3q3 8 11 22.5t21.5 28.5t33 24.5t44.5 10.5zM262 625h-89l62 106h128z" />
    <glyph glyph-name="Rcommaaccent" unicode="&#x156;" horiz-adv-x="629" 
d="M350 700q114 0 166 -51t52 -139q0 -90 -60 -138.5t-170 -51.5l227 -320h-100l-220 319h-79v-319h-80v700h264zM166 627v-238h154q81 0 124.5 29.5t43.5 91.5q0 64 -34.5 90.5t-115.5 26.5h-172zM305 -55q28 0 44.5 -19t16.5 -49q0 -33 -17.5 -65.5t-37.5 -53.5h-37v3
q11 16 20.5 35t9.5 40q-29 0 -42.5 14.5t-13.5 37.5q0 26 14.5 41.5t42.5 15.5z" />
    <glyph glyph-name="rcommaaccent" unicode="&#x157;" horiz-adv-x="370" 
d="M262 572q30 0 54.5 -10.5t36.5 -24.5l-15 -80h-4q-14 17 -34.5 27.5t-44.5 10.5q-46 0 -75 -45t-29 -136v-314h-75v560h64l9 -74h3q3 8 11 22.5t21.5 28.5t33 24.5t44.5 10.5zM115 -55q28 0 44.5 -19t16.5 -49q0 -33 -17.5 -65.5t-37.5 -53.5h-37v3q11 16 20.5 35t9.5 40
q-29 0 -42.5 14.5t-13.5 37.5q0 26 14.5 41.5t42.5 15.5z" />
    <glyph glyph-name="Rcaron" unicode="&#x158;" horiz-adv-x="629" 
d="M350 700q114 0 166 -51t52 -139q0 -90 -60 -138.5t-170 -51.5l227 -320h-100l-220 319h-79v-319h-80v700h264zM166 627v-238h154q81 0 124.5 29.5t43.5 91.5q0 64 -34.5 90.5t-115.5 26.5h-172zM368 762h-125l-78 105h92l47 -73h3l47 73h92z" />
    <glyph glyph-name="rcaron" unicode="&#x159;" horiz-adv-x="370" 
d="M262 572q30 0 54.5 -10.5t36.5 -24.5l-15 -80h-4q-14 17 -34.5 27.5t-44.5 10.5q-46 0 -75 -45t-29 -136v-314h-75v560h64l9 -74h3q3 8 11 22.5t21.5 28.5t33 24.5t44.5 10.5zM280 625h-125l-78 105h92l47 -73h3l47 73h92z" />
    <glyph glyph-name="Sacute" unicode="&#x15a;" horiz-adv-x="604" 
d="M281 712q43 0 80.5 -11t69 -29t55.5 -41t40 -48l-44 -70h-5q-15 26 -35.5 49t-45 40t-53 27t-60.5 10q-35 0 -61 -9.5t-43 -25t-25.5 -36t-8.5 -42.5q0 -24 8 -42.5t28.5 -34t57 -29.5t93.5 -30q50 -14 91.5 -30t71.5 -39t46.5 -55.5t16.5 -78.5q0 -96 -63 -147.5
t-175 -51.5q-51 0 -95 13t-80.5 34t-64 46.5t-44.5 51.5l44 74h4q18 -27 41.5 -52.5t53 -46t64.5 -33t75 -12.5q82 0 122 32.5t40 89.5q0 30 -12 50.5t-37 36.5t-63.5 29t-90.5 28q-51 14 -90.5 31.5t-66 41t-40.5 53.5t-14 69q0 40 15 74.5t43 59.5t68 39.5t89 14.5z
M326 762h-89l62 106h128z" />
    <glyph glyph-name="sacute" unicode="&#x15b;" horiz-adv-x="525" 
d="M248 572q42 0 76.5 -10.5t61.5 -27t46 -36t30 -36.5l-41 -63h-4q-26 42 -68 73.5t-102 31.5q-29 0 -49.5 -8t-33.5 -20t-19 -27t-6 -29q0 -15 5 -28t21 -25.5t46.5 -25t81.5 -25.5q100 -26 143.5 -65.5t43.5 -107.5q0 -35 -14.5 -63.5t-40.5 -48.5t-62 -31.5t-78 -11.5
t-80 11t-69 28.5t-54.5 40t-36.5 45.5l43 65h3q31 -51 78.5 -85.5t112.5 -34.5t94.5 26t29.5 59q0 18 -5 33t-22.5 29t-50 27t-86.5 27q-95 24 -136 61t-41 99q0 29 12 56.5t35 49t57 34.5t79 13zM294 625h-89l62 106h128z" />
    <glyph glyph-name="Scircumflex" unicode="&#x15c;" horiz-adv-x="604" 
d="M281 712q43 0 80.5 -11t69 -29t55.5 -41t40 -48l-44 -70h-5q-15 26 -35.5 49t-45 40t-53 27t-60.5 10q-35 0 -61 -9.5t-43 -25t-25.5 -36t-8.5 -42.5q0 -24 8 -42.5t28.5 -34t57 -29.5t93.5 -30q50 -14 91.5 -30t71.5 -39t46.5 -55.5t16.5 -78.5q0 -96 -63 -147.5
t-175 -51.5q-51 0 -95 13t-80.5 34t-64 46.5t-44.5 51.5l44 74h4q18 -27 41.5 -52.5t53 -46t64.5 -33t75 -12.5q82 0 122 32.5t40 89.5q0 30 -12 50.5t-37 36.5t-63.5 29t-90.5 28q-51 14 -90.5 31.5t-66 41t-40.5 53.5t-14 69q0 40 15 74.5t43 59.5t68 39.5t89 14.5z
M422 762h-92l-47 72h-3l-47 -72h-92l78 105h125z" />
    <glyph glyph-name="scircumflex" unicode="&#x15d;" horiz-adv-x="525" 
d="M248 572q42 0 76.5 -10.5t61.5 -27t46 -36t30 -36.5l-41 -63h-4q-26 42 -68 73.5t-102 31.5q-29 0 -49.5 -8t-33.5 -20t-19 -27t-6 -29q0 -15 5 -28t21 -25.5t46.5 -25t81.5 -25.5q100 -26 143.5 -65.5t43.5 -107.5q0 -35 -14.5 -63.5t-40.5 -48.5t-62 -31.5t-78 -11.5
t-80 11t-69 28.5t-54.5 40t-36.5 45.5l43 65h3q31 -51 78.5 -85.5t112.5 -34.5t94.5 26t29.5 59q0 18 -5 33t-22.5 29t-50 27t-86.5 27q-95 24 -136 61t-41 99q0 29 12 56.5t35 49t57 34.5t79 13zM390 625h-92l-47 72h-3l-47 -72h-92l78 105h125z" />
    <glyph glyph-name="Scedilla" unicode="&#x15e;" horiz-adv-x="604" 
d="M281 712q43 0 80.5 -11t69 -29t55.5 -41t40 -48l-44 -70h-5q-15 26 -35.5 49t-45 40t-53 27t-60.5 10q-35 0 -61 -9.5t-43 -25t-25.5 -36t-8.5 -42.5q0 -24 8 -42.5t28.5 -34t57 -29.5t93.5 -30q50 -14 91.5 -30t71.5 -39t46.5 -55.5t16.5 -78.5q0 -96 -63 -147.5
t-175 -51.5q-51 0 -95 13t-80.5 34t-64 46.5t-44.5 51.5l44 74h4q18 -27 41.5 -52.5t53 -46t64.5 -33t75 -12.5q82 0 122 32.5t40 89.5q0 30 -12 50.5t-37 36.5t-63.5 29t-90.5 28q-51 14 -90.5 31.5t-66 41t-40.5 53.5t-14 69q0 40 15 74.5t43 59.5t68 39.5t89 14.5z
M301 -75l1 -1q11 6 26.5 10t33.5 4q17 0 33 -4.5t29 -14.5t20.5 -26t7.5 -39q0 -46 -31.5 -69t-82.5 -23q-35 0 -59.5 9t-40.5 20l17 54h3q13 -11 31.5 -19.5t39.5 -8.5q24 0 38.5 10t14.5 28q0 38 -52 38q-31 0 -53 -14l-31 23l56 98h46z" />
    <glyph glyph-name="scedilla" unicode="&#x15f;" horiz-adv-x="525" 
d="M248 572q42 0 76.5 -10.5t61.5 -27t46 -36t30 -36.5l-41 -63h-4q-26 42 -68 73.5t-102 31.5q-29 0 -49.5 -8t-33.5 -20t-19 -27t-6 -29q0 -15 5 -28t21 -25.5t46.5 -25t81.5 -25.5q100 -26 143.5 -65.5t43.5 -107.5q0 -35 -14.5 -63.5t-40.5 -48.5t-62 -31.5t-78 -11.5
t-80 11t-69 28.5t-54.5 40t-36.5 45.5l43 65h3q31 -51 78.5 -85.5t112.5 -34.5t94.5 26t29.5 59q0 18 -5 33t-22.5 29t-50 27t-86.5 27q-95 24 -136 61t-41 99q0 29 12 56.5t35 49t57 34.5t79 13zM258 -75l1 -1q11 6 26.5 10t33.5 4q17 0 33 -4.5t29 -14.5t20.5 -26t7.5 -39
q0 -46 -31.5 -69t-82.5 -23q-35 0 -59.5 9t-40.5 20l17 54h3q13 -11 31.5 -19.5t39.5 -8.5q24 0 38.5 10t14.5 28q0 38 -52 38q-31 0 -53 -14l-31 23l56 98h46z" />
    <glyph glyph-name="Scaron" unicode="&#x160;" horiz-adv-x="604" 
d="M281 712q43 0 80.5 -11t69 -29t55.5 -41t40 -48l-44 -70h-5q-15 26 -35.5 49t-45 40t-53 27t-60.5 10q-35 0 -61 -9.5t-43 -25t-25.5 -36t-8.5 -42.5q0 -24 8 -42.5t28.5 -34t57 -29.5t93.5 -30q50 -14 91.5 -30t71.5 -39t46.5 -55.5t16.5 -78.5q0 -96 -63 -147.5
t-175 -51.5q-51 0 -95 13t-80.5 34t-64 46.5t-44.5 51.5l44 74h4q18 -27 41.5 -52.5t53 -46t64.5 -33t75 -12.5q82 0 122 32.5t40 89.5q0 30 -12 50.5t-37 36.5t-63.5 29t-90.5 28q-51 14 -90.5 31.5t-66 41t-40.5 53.5t-14 69q0 40 15 74.5t43 59.5t68 39.5t89 14.5z
M344 762h-125l-78 105h92l47 -73h3l47 73h92z" />
    <glyph glyph-name="scaron" unicode="&#x161;" horiz-adv-x="525" 
d="M248 572q42 0 76.5 -10.5t61.5 -27t46 -36t30 -36.5l-41 -63h-4q-26 42 -68 73.5t-102 31.5q-29 0 -49.5 -8t-33.5 -20t-19 -27t-6 -29q0 -15 5 -28t21 -25.5t46.5 -25t81.5 -25.5q100 -26 143.5 -65.5t43.5 -107.5q0 -35 -14.5 -63.5t-40.5 -48.5t-62 -31.5t-78 -11.5
t-80 11t-69 28.5t-54.5 40t-36.5 45.5l43 65h3q31 -51 78.5 -85.5t112.5 -34.5t94.5 26t29.5 59q0 18 -5 33t-22.5 29t-50 27t-86.5 27q-95 24 -136 61t-41 99q0 29 12 56.5t35 49t57 34.5t79 13zM312 625h-125l-78 105h92l47 -73h3l47 73h92z" />
    <glyph glyph-name="Tcedilla" unicode="&#x162;" horiz-adv-x="554" 
d="M529 627h-212v-627h-80v627h-211v73h503v-73zM250 -75l1 -1q11 6 26.5 10t33.5 4q17 0 33 -4.5t29 -14.5t20.5 -26t7.5 -39q0 -46 -31.5 -69t-82.5 -23q-35 0 -59.5 9t-40.5 20l17 54h3q13 -11 31.5 -19.5t39.5 -8.5q24 0 38.5 10t14.5 28q0 38 -52 38q-31 0 -53 -14
l-31 23l56 98h46z" />
    <glyph glyph-name="tcedilla" unicode="&#x163;" horiz-adv-x="380" 
d="M191 560h162v-68h-162v-369q0 -35 13.5 -48t33.5 -13t39 8.5t30 16.5h3l19 -71q-15 -11 -43 -19.5t-57 -8.5q-21 0 -41.5 6.5t-36.5 20.5t-25.5 35t-9.5 51v391h-88v47q48 20 77.5 63.5t42.5 97.5h43v-140zM198 -75l1 -1q11 6 26.5 10t33.5 4q17 0 33 -4.5t29 -14.5
t20.5 -26t7.5 -39q0 -46 -31.5 -69t-82.5 -23q-35 0 -59.5 9t-40.5 20l17 54h3q13 -11 31.5 -19.5t39.5 -8.5q24 0 38.5 10t14.5 28q0 38 -52 38q-31 0 -53 -14l-31 23l56 98h46z" />
    <glyph glyph-name="Tcaron" unicode="&#x164;" horiz-adv-x="554" 
d="M529 627h-212v-627h-80v627h-211v73h503v-73zM340 762h-125l-78 105h92l47 -73h3l47 73h92z" />
    <glyph glyph-name="tcaron" unicode="&#x165;" horiz-adv-x="380" 
d="M191 560h162v-68h-162v-369q0 -35 13.5 -48t33.5 -13t39 8.5t30 16.5h3l19 -71q-15 -11 -43 -19.5t-57 -8.5q-21 0 -41.5 6.5t-36.5 20.5t-25.5 35t-9.5 51v391h-88v47q48 20 77.5 63.5t42.5 97.5h43v-140zM280 791q26 0 41.5 -18t15.5 -47q0 -33 -17 -66.5t-36 -53.5
h-36v2q9 16 19.5 37t10.5 41h-8q-20 0 -33 14.5t-13 36.5q0 24 15 39t41 15z" />
    <glyph glyph-name="Tbar" unicode="&#x166;" horiz-adv-x="554" 
d="M529 627h-212v-240h152v-69h-152v-318h-80v318h-151v69h151v240h-211v73h503v-73z" />
    <glyph glyph-name="tbar" unicode="&#x167;" horiz-adv-x="400" 
d="M201 560h162v-68h-162v-158h162v-68h-162v-143q0 -35 13.5 -48t33.5 -13t39.5 9t30.5 17h2l19 -72q-15 -11 -43 -19.5t-57 -8.5q-21 0 -41.5 6.5t-36.5 20.5t-25.5 35t-9.5 51v165h-88v68h88v158h-88v47q47 20 76.5 61.5t43.5 99.5h43v-140z" />
    <glyph glyph-name="Utilde" unicode="&#x168;" horiz-adv-x="676" 
d="M601 258q0 -60 -15.5 -109.5t-48 -85t-82 -55.5t-116.5 -20q-68 0 -117.5 20t-81.5 55.5t-48 85t-16 109.5v442h80v-435q0 -97 45.5 -150t137.5 -53t137 53t45 150v435h80v-442zM288 864q20 0 35 -5.5t27.5 -12l23.5 -12t23 -5.5q16 0 23 8t11 22h48q-9 -46 -28 -73.5
t-62 -27.5q-20 0 -35 5.5t-27.5 12l-23.5 12t-24 5.5q-26 0 -34 -31h-47q8 46 28 74t62 28z" />
    <glyph glyph-name="utilde" unicode="&#x169;" horiz-adv-x="555" 
d="M491 0h-66l-11 78h-2q-21 -37 -63 -63.5t-101 -26.5q-45 0 -79.5 14.5t-57 40t-34 61.5t-11.5 79v377h75v-366q0 -136 116 -136q33 0 62 12.5t50.5 35.5t34 55.5t12.5 71.5v327h75v-560zM227 727q20 0 35 -5.5t27.5 -12l23.5 -12t23 -5.5q16 0 23 8t11 22h48
q-9 -46 -28 -73.5t-62 -27.5q-20 0 -35 5.5t-27.5 12l-23.5 12t-24 5.5q-26 0 -34 -31h-47q8 46 28 74t62 28z" />
    <glyph glyph-name="Umacron" unicode="&#x16a;" horiz-adv-x="676" 
d="M601 258q0 -60 -15.5 -109.5t-48 -85t-82 -55.5t-116.5 -20q-68 0 -117.5 20t-81.5 55.5t-48 85t-16 109.5v442h80v-435q0 -97 45.5 -150t137.5 -53t137 53t45 150v435h80v-442zM480 762h-283v68h283v-68z" />
    <glyph glyph-name="umacron" unicode="&#x16b;" horiz-adv-x="555" 
d="M491 0h-66l-11 78h-2q-21 -37 -63 -63.5t-101 -26.5q-45 0 -79.5 14.5t-57 40t-34 61.5t-11.5 79v377h75v-366q0 -136 116 -136q33 0 62 12.5t50.5 35.5t34 55.5t12.5 71.5v327h75v-560zM419 625h-283v66h283v-66z" />
    <glyph glyph-name="Ubreve" unicode="&#x16c;" horiz-adv-x="676" 
d="M601 258q0 -60 -15.5 -109.5t-48 -85t-82 -55.5t-116.5 -20q-68 0 -117.5 20t-81.5 55.5t-48 85t-16 109.5v442h80v-435q0 -97 45.5 -150t137.5 -53t137 53t45 150v435h80v-442zM463 887q0 -60 -33.5 -95.5t-90.5 -35.5t-90.5 35.5t-33.5 95.5h44q11 -58 80 -58
q33 0 54 15t26 43h44z" />
    <glyph glyph-name="ubreve" unicode="&#x16d;" horiz-adv-x="555" 
d="M491 0h-66l-11 78h-2q-21 -37 -63 -63.5t-101 -26.5q-45 0 -79.5 14.5t-57 40t-34 61.5t-11.5 79v377h75v-366q0 -136 116 -136q33 0 62 12.5t50.5 35.5t34 55.5t12.5 71.5v327h75v-560zM402 750q0 -60 -33.5 -95.5t-90.5 -35.5t-90.5 35.5t-33.5 95.5h44q11 -58 80 -58
q33 0 54 15t26 43h44z" />
    <glyph glyph-name="Uring" unicode="&#x16e;" horiz-adv-x="676" 
d="M601 258q0 -60 -15.5 -109.5t-48 -85t-82 -55.5t-116.5 -20q-68 0 -117.5 20t-81.5 55.5t-48 85t-16 109.5v442h80v-435q0 -97 45.5 -150t137.5 -53t137 53t45 150v435h80v-442zM339 937q22 0 40.5 -8t32 -21.5t21 -32t7.5 -39.5t-7.5 -39.5t-21 -32t-32 -21.5t-40.5 -8
t-40.5 8t-32 21.5t-21 32t-7.5 39.5t7.5 39.5t21 32t32 21.5t40.5 8zM338 884q-21 0 -33.5 -14t-12.5 -34t12.5 -34t33.5 -14q22 0 34.5 14t12.5 34t-12.5 34t-34.5 14z" />
    <glyph glyph-name="uring" unicode="&#x16f;" horiz-adv-x="555" 
d="M491 0h-66l-11 78h-2q-21 -37 -63 -63.5t-101 -26.5q-45 0 -79.5 14.5t-57 40t-34 61.5t-11.5 79v377h75v-366q0 -136 116 -136q33 0 62 12.5t50.5 35.5t34 55.5t12.5 71.5v327h75v-560zM278 800q22 0 40.5 -8t32 -21.5t21 -32t7.5 -39.5t-7.5 -39.5t-21 -32t-32 -21.5
t-40.5 -8t-40.5 8t-32 21.5t-21 32t-7.5 39.5t7.5 39.5t21 32t32 21.5t40.5 8zM277 747q-21 0 -33.5 -14t-12.5 -34q0 -21 12.5 -34.5t33.5 -13.5q22 0 34.5 13.5t12.5 34.5q0 20 -12.5 34t-34.5 14z" />
    <glyph glyph-name="Uhungarumlaut" unicode="&#x170;" horiz-adv-x="676" 
d="M601 258q0 -60 -15.5 -109.5t-48 -85t-82 -55.5t-116.5 -20q-68 0 -117.5 20t-81.5 55.5t-48 85t-16 109.5v442h80v-435q0 -97 45.5 -150t137.5 -53t137 53t45 150v435h80v-442zM460 762h-85l69 105h119zM289 762h-85l69 105h119z" />
    <glyph glyph-name="uhungarumlaut" unicode="&#x171;" horiz-adv-x="555" 
d="M491 0h-66l-11 78h-2q-21 -37 -63 -63.5t-101 -26.5q-45 0 -79.5 14.5t-57 40t-34 61.5t-11.5 79v377h75v-366q0 -136 116 -136q33 0 62 12.5t50.5 35.5t34 55.5t12.5 71.5v327h75v-560zM397 625h-85l69 105h119zM226 625h-85l69 105h119z" />
    <glyph glyph-name="Uogonek" unicode="&#x172;" horiz-adv-x="676" 
d="M601 258q0 -60 -15.5 -109.5t-48 -85t-82 -55.5t-116.5 -20q-68 0 -117.5 20t-81.5 55.5t-48 85t-16 109.5v442h80v-435q0 -97 45.5 -150t137.5 -53t137 53t45 150v435h80v-442zM430 0q-25 -14 -44 -42t-19 -60q0 -20 10 -32.5t35 -12.5q18 0 36 11t28 29h4l27 -38
q-16 -28 -45 -48t-68 -20q-27 0 -46 7.5t-31 19.5t-17.5 27.5t-5.5 32.5q0 35 20 70t52 56h64z" />
    <glyph glyph-name="uogonek" unicode="&#x173;" horiz-adv-x="555" 
d="M491 0h-66l-11 78h-2q-21 -37 -63 -63.5t-101 -26.5q-45 0 -79.5 14.5t-57 40t-34 61.5t-11.5 79v377h75v-366q0 -136 116 -136q33 0 62 12.5t50.5 35.5t34 55.5t12.5 71.5v327h75v-560zM490 0q-25 -14 -44 -42t-19 -60q0 -20 10 -32.5t35 -12.5q18 0 36 11t28 29h4
l27 -38q-16 -28 -45 -48t-68 -20q-27 0 -46 7.5t-31 19.5t-17.5 27.5t-5.5 32.5q0 35 20 70t52 56h64z" />
    <glyph glyph-name="Wcircumflex" unicode="&#x174;" horiz-adv-x="959" 
d="M741 0h-109l-152 611h-2l-150 -611h-110l-182 700h86l148 -611h2l151 611h114l151 -611h2l148 611h85zM621 762h-92l-47 72h-3l-47 -72h-92l78 105h125z" />
    <glyph glyph-name="wcircumflex" unicode="&#x175;" horiz-adv-x="808" 
d="M642 0h-105l-132 487h-2l-132 -487h-105l-135 560h79l109 -481h2l131 481h105l131 -481h2l108 481h79zM545 625h-92l-47 72h-3l-47 -72h-92l78 105h125z" />
    <glyph glyph-name="Ycircumflex" unicode="&#x176;" horiz-adv-x="545" 
d="M312 264v-264h-78v264l-218 436h89l168 -351l168 351h89zM414 762h-92l-47 72h-3l-47 -72h-92l78 105h125z" />
    <glyph glyph-name="ycircumflex" unicode="&#x177;" horiz-adv-x="511" 
d="M229 -185h-85l79 222l-197 523h85l151 -431h2l137 431h85zM397 625h-92l-47 72h-3l-47 -72h-92l78 105h125z" />
    <glyph glyph-name="Ydieresis" unicode="&#x178;" horiz-adv-x="545" 
d="M312 264v-264h-78v264l-218 436h89l168 -351l168 351h89zM175 867q27 0 42 -15t15 -41q0 -25 -15 -40t-42 -15q-26 0 -40.5 15t-14.5 40q0 26 14.5 41t40.5 15zM371 867q26 0 40.5 -14.5t14.5 -40.5t-14.5 -41t-40.5 -15q-28 0 -42.5 15t-14.5 41t14.5 40.5t42.5 14.5z
" />
    <glyph glyph-name="Zacute" unicode="&#x179;" horiz-adv-x="526" 
d="M491 624l-369 -551h359v-73h-445v77l370 550h-361v73h446v-76zM308 762h-89l62 106h128z" />
    <glyph glyph-name="zacute" unicode="&#x17a;" horiz-adv-x="514" 
d="M448 485l-301 -417h302v-68h-383v77l300 415h-300v68h382v-75zM301 625h-89l62 106h128z" />
    <glyph glyph-name="Zdotaccent" unicode="&#x17b;" horiz-adv-x="526" 
d="M491 624l-369 -551h359v-73h-445v77l370 550h-361v73h446v-76zM264 872q28 0 43 -16t15 -42t-15 -42t-43 -16q-29 0 -44 16t-15 42t15 42t44 16z" />
    <glyph glyph-name="zdotaccent" unicode="&#x17c;" horiz-adv-x="514" 
d="M448 485l-301 -417h302v-68h-383v77l300 415h-300v68h382v-75zM257 733q28 0 43 -16t15 -42t-15 -42t-43 -16q-29 0 -44 16t-15 42t15 42t44 16z" />
    <glyph glyph-name="Zcaron" unicode="&#x17d;" horiz-adv-x="526" 
d="M491 624l-369 -551h359v-73h-445v77l370 550h-361v73h446v-76zM326 762h-125l-78 105h92l47 -73h3l47 73h92z" />
    <glyph glyph-name="zcaron" unicode="&#x17e;" horiz-adv-x="514" 
d="M448 485l-301 -417h302v-68h-383v77l300 415h-300v68h382v-75zM319 625h-125l-78 105h92l47 -73h3l47 73h92z" />
    <glyph glyph-name="longs" unicode="&#x17f;" horiz-adv-x="280" 
d="M224 806q42 0 74.5 -16.5t46.5 -31.5l-22 -72h-3q-5 6 -13.5 14t-20 15t-24.5 12t-27 5q-50 0 -50 -59v-673h-75v492h-94v68h94v126q0 60 33 90t81 30z" />
    <glyph glyph-name="Ereversed" unicode="&#x18e;" horiz-adv-x="554" 
d="M65.0303 627h322.979v-239h-322.979v-68h322.979v-247h-322.979v-73h402.975v700h-402.975v-73z" />
    <glyph glyph-name="Schwa" unicode="&#x18f;" horiz-adv-x="715" 
d="M356 712q67 0 123 -25.5t96.5 -72.5t62.5 -113.5t22 -148.5q0 -87 -21.5 -155t-62 -114.5t-97.5 -70.5t-127 -24q-71 0 -126 25t-93 70.5t-57.5 109.5t-19.5 141v15.5t1 13.5q0 7 1 14h520q-3 62 -20 110.5t-46 82.5t-68.5 51.5t-86.5 17.5q-38 0 -73 -12t-64 -31.5
t-51 -43.5t-34 -48h-3l-37 80q17 24 43 47t59 41t73.5 29t85.5 11zM137 306q2 -49 15 -93t39.5 -77.5t66 -53t93.5 -19.5t95 18.5t69 51t43 77t17 96.5h-438z" />
    <glyph glyph-name="florin" unicode="&#x192;" horiz-adv-x="458" 
d="M342 736q42 0 73 -16.5t48 -38.5l-27 -65h-3q-13 17 -34.5 33t-48.5 16t-41 -14.5t-19 -46.5l-111 -789h-74l87 613h-126v68h134l18 125q8 53 37.5 84t86.5 31z" />
    <glyph glyph-name="Aringacute" unicode="&#x1fa;" horiz-adv-x="654" 
d="M634 0h-86l-73 214h-295l-74 -214h-85l247 700h118zM325 636l-125 -354h253l-125 354h-3zM328 937q22 0 40.5 -8t32 -21.5t21 -32t7.5 -39.5t-7.5 -39.5t-21 -32t-32 -21.5t-40.5 -8t-40.5 8t-32 21.5t-21 32t-7.5 39.5t7.5 39.5t21 32t32 21.5t40.5 8zM327 884
q-21 0 -33.5 -14t-12.5 -34t12.5 -34t33.5 -14q22 0 34.5 14t12.5 34t-12.5 34t-34.5 14zM372 957h-89l62 106h128z" />
    <glyph glyph-name="aringacute" unicode="&#x1fb;" horiz-adv-x="525" 
d="M269 572q42 0 77 -11.5t60 -32.5t39 -51t14 -67v-410h-64l-10 74h-3q-26 -38 -68.5 -62t-101.5 -24q-76 0 -118 42.5t-42 110.5q0 31 9 58t30 49t55 38.5t85 26.5t81 21.5t46.5 24t21.5 27t5 31.5q0 39 -29.5 63t-87.5 24q-57 0 -100.5 -33t-68.5 -84h-3l-45 64
q15 25 36.5 47t49.5 38.5t61 26t71 9.5zM382 311q-5 -9 -13 -16.5t-23 -14.5t-38.5 -14.5t-59.5 -15.5t-60 -19t-38 -24.5t-19.5 -29.5t-5.5 -34q0 -38 24 -62t68 -24q30 0 59.5 10t53.5 27.5t39 41.5t15 53v122h-2zM267 800q22 0 40.5 -8t32 -21.5t21 -32t7.5 -39.5
t-7.5 -39.5t-21 -32t-32 -21.5t-40.5 -8t-40.5 8t-32 21.5t-21 32t-7.5 39.5t7.5 39.5t21 32t32 21.5t40.5 8zM266 747q-21 0 -33.5 -14t-12.5 -34q0 -21 12.5 -34.5t33.5 -13.5q22 0 34.5 13.5t12.5 34.5q0 20 -12.5 34t-34.5 14zM311 820h-89l62 106h128z" />
    <glyph glyph-name="AEacute" unicode="&#x1fc;" horiz-adv-x="872" 
d="M806 627h-268v-239h268v-68h-268v-247h268v-73h-345v214h-254l-114 -214h-87l371 700h429v-73zM421 627l-178 -345h217v345h-39zM490 762h-89l62 106h128z" />
    <glyph glyph-name="aeacute" unicode="&#x1fd;" horiz-adv-x="915" 
d="M628 572q51 0 95.5 -19.5t76.5 -56.5t50.5 -89.5t18.5 -118.5v-19t-1 -14h-418q2 -44 15.5 -80.5t37.5 -62.5t57 -40t74 -14q34 0 62 10t50 25.5t38.5 34t27.5 35.5h3l34 -71q-32 -44 -88 -74t-126 -30q-78 0 -131.5 31.5t-85.5 88.5q-26 -53 -79.5 -86.5t-132.5 -33.5
q-76 0 -118 40.5t-42 112.5q0 32 9 59t30 49t55 37.5t84 25.5q51 10 81.5 21.5t47 24.5t21.5 27.5t5 31.5q0 39 -29.5 63.5t-87.5 24.5q-57 0 -101 -32.5t-67 -92.5h-3l-45 62q13 28 35 52t49.5 41.5t61 27t70.5 9.5q66 0 112 -26.5t64 -71.5q31 43 80 70.5t110 27.5z
M376 311q-5 -9 -13 -16t-23 -14.5t-39 -14.5t-60 -16q-36 -8 -60 -18t-38 -22.5t-19.5 -29t-5.5 -37.5q0 -44 25.5 -65.5t72.5 -20.5q30 1 59 11.5t52 28t37 41.5t14 51v122h-2zM627 506q-35 0 -65.5 -14t-53.5 -39t-37.5 -59.5t-18.5 -74.5h343q-5 91 -51.5 139t-116.5 48z
M310 625h-89l62 106h128z" />
    <glyph glyph-name="Oslashacute" unicode="&#x1fe;" horiz-adv-x="715" 
d="M89 24l42 61q-38 47 -59 113.5t-21 154.5q0 68 21.5 132.5t61.5 115t97 81t127 30.5q48 0 90 -15.5t77 -41.5l37 54l56 -39l-43 -62q43 -51 66.5 -117.5t23.5 -137.5q0 -89 -22 -157t-62 -114.5t-96.5 -70t-126.5 -23.5q-105 0 -177 51l-37 -55zM358 641q-55 0 -97.5 -25
t-71 -65.5t-43.5 -92.5t-15 -105q0 -122 50 -196l303 438q-26 21 -57 33.5t-69 12.5zM227 105q54 -42 131 -42q54 0 96 20.5t71.5 58.5t44.5 91.5t15 119.5q0 51 -14 100.5t-41 89.5zM402 762h-89l62 106h128z" />
    <glyph glyph-name="oslashacute" unicode="&#x1ff;" horiz-adv-x="607" 
d="M305 -12q-87 0 -146 41l-29 -40l-51 39l32 44q-32 38 -48.5 90t-16.5 113t19.5 115.5t54 94.5t81.5 63.5t103 23.5q39 0 73.5 -11.5t63.5 -32.5l34 46l54 -39l-38 -52q34 -41 52.5 -94t18.5 -114q0 -62 -16.5 -115t-49 -91t-80.5 -59.5t-111 -21.5zM304 504
q-44 0 -78 -19t-57 -50.5t-35.5 -73t-12.5 -86.5q0 -41 9 -76t27 -63l244 337q-40 31 -97 31zM203 89q20 -14 46 -22t56 -8q44 0 78 16t57 44.5t35 68.5t12 87q0 85 -40 148zM349 625h-89l62 106h128z" />
    <glyph glyph-name="Scommaaccent" unicode="&#x218;" horiz-adv-x="604" 
d="M281 712q43 0 80.5 -11t69 -29t55.5 -41t40 -48l-44 -70h-5q-15 26 -35.5 49t-45 40t-53 27t-60.5 10q-35 0 -61 -9.5t-43 -25t-25.5 -36t-8.5 -42.5q0 -24 8 -42.5t28.5 -34t57 -29.5t93.5 -30q50 -14 91.5 -30t71.5 -39t46.5 -55.5t16.5 -78.5q0 -96 -63 -147.5
t-175 -51.5q-51 0 -95 13t-80.5 34t-64 46.5t-44.5 51.5l44 74h4q18 -27 41.5 -52.5t53 -46t64.5 -33t75 -12.5q82 0 122 32.5t40 89.5q0 30 -12 50.5t-37 36.5t-63.5 29t-90.5 28q-51 14 -90.5 31.5t-66 41t-40.5 53.5t-14 69q0 40 15 74.5t43 59.5t68 39.5t89 14.5z
M327 -55q28 0 44.5 -19t16.5 -49q0 -33 -17.5 -65.5t-37.5 -53.5h-37v3q11 16 20.5 35t9.5 40q-29 0 -42.5 14.5t-13.5 37.5q0 26 14.5 41.5t42.5 15.5z" />
    <glyph glyph-name="scommaaccent" unicode="&#x219;" horiz-adv-x="525" 
d="M248 572q42 0 76.5 -10.5t61.5 -27t46 -36t30 -36.5l-41 -63h-4q-26 42 -68 73.5t-102 31.5q-29 0 -49.5 -8t-33.5 -20t-19 -27t-6 -29q0 -15 5 -28t21 -25.5t46.5 -25t81.5 -25.5q100 -26 143.5 -65.5t43.5 -107.5q0 -35 -14.5 -63.5t-40.5 -48.5t-62 -31.5t-78 -11.5
t-80 11t-69 28.5t-54.5 40t-36.5 45.5l43 65h3q31 -51 78.5 -85.5t112.5 -34.5t94.5 26t29.5 59q0 18 -5 33t-22.5 29t-50 27t-86.5 27q-95 24 -136 61t-41 99q0 29 12 56.5t35 49t57 34.5t79 13zM284 -55q28 0 44.5 -19t16.5 -49q0 -33 -17.5 -65.5t-37.5 -53.5h-37v3
q11 16 20.5 35t9.5 40q-29 0 -42.5 14.5t-13.5 37.5q0 26 14.5 41.5t42.5 15.5z" />
    <glyph glyph-name="uni021A" unicode="&#x21a;" horiz-adv-x="554" 
d="M529 627h-212v-627h-80v627h-211v73h503v-73zM276 -55q28 0 44.5 -19t16.5 -49q0 -33 -17.5 -65.5t-37.5 -53.5h-37v3q11 16 20.5 35t9.5 40q-29 0 -42.5 14.5t-13.5 37.5q0 26 14.5 41.5t42.5 15.5z" />
    <glyph glyph-name="uni021B" unicode="&#x21b;" horiz-adv-x="380" 
d="M191 560h162v-68h-162v-369q0 -35 13.5 -48t33.5 -13t39 8.5t30 16.5h3l19 -71q-15 -11 -43 -19.5t-57 -8.5q-21 0 -41.5 6.5t-36.5 20.5t-25.5 35t-9.5 51v391h-88v47q48 20 77.5 63.5t42.5 97.5h43v-140zM224 -55q28 0 44.5 -19t16.5 -49q0 -33 -17.5 -65.5
t-37.5 -53.5h-37v3q11 16 20.5 35t9.5 40q-29 0 -42.5 14.5t-13.5 37.5q0 26 14.5 41.5t42.5 15.5z" />
    <glyph glyph-name="dotlessj" unicode="&#x237;" horiz-adv-x="215" 
d="M139 -49q0 -31 -8.5 -52.5t-22.5 -35t-32.5 -19.5t-38.5 -6q-21 0 -41.5 5.5t-34.5 13.5l11 71h3q11 -6 22.5 -10.5t25.5 -4.5q19 0 30 9.5t11 29.5v608h75v-609z" />
    <glyph glyph-name="schwa" unicode="&#x259;" horiz-adv-x="584" 
d="M286.019 -11.9648q-50.9971 0 -94.9941 19.498q-43.998 19.499 -76.4961 56.4971t-50.9971 89.4941q-18.498 52.4971 -18.498 118.493q0 6 0.5 11.499q0.5 5.5 0.5 10.5v10.999h416.975q-2 43.9971 -15.499 79.9951q-13.5 35.998 -36.998 61.9961
q-23.499 25.998 -55.9971 39.998q-32.498 13.999 -73.4951 13.999q-33.998 0 -61.9961 -10q-27.998 -9.99902 -49.9971 -25.498t-37.998 -33.998t-26.998 -35.498h-4l-36.9971 69.9961q31.998 44.9971 89.4941 75.4951t127.492 30.498q63.9961 0 112.493 -21.998
q48.4971 -21.999 80.4951 -60.9971q31.998 -38.9971 48.4971 -92.9941q16.499 -53.9961 16.499 -117.992t-19.999 -116.993t-54.4961 -91.4941q-34.498 -38.498 -80.4951 -59.9971q-45.998 -21.498 -96.9941 -21.498zM287.019 56.0312q35.9971 0 65.9951 13.999
q29.999 13.999 52.9971 38.4971q22.999 24.499 36.998 57.9971q13.999 33.4971 17.999 72.4951h-340.979q3 -44.9971 16.499 -79.4951t35.998 -57.4961q22.498 -22.999 51.4961 -34.498q28.999 -11.499 62.9971 -11.499z" />
    <glyph glyph-name="circumflex" unicode="&#x2c6;" horiz-adv-x="392" 
d="M337 625h-92l-47 72h-3l-47 -72h-92l78 105h125z" />
    <glyph glyph-name="caron" unicode="&#x2c7;" horiz-adv-x="392" 
d="M259 625h-125l-78 105h92l47 -73h3l47 73h92z" />
    <glyph glyph-name="breve" unicode="&#x2d8;" horiz-adv-x="359" 
d="M304 750q0 -60 -33.5 -95.5t-90.5 -35.5t-90.5 35.5t-33.5 95.5h44q11 -58 80 -58q33 0 54 15t26 43h44z" />
    <glyph glyph-name="dotaccent" unicode="&#x2d9;" horiz-adv-x="228" 
d="M115 733q28 0 43 -16t15 -42t-15 -42t-43 -16q-29 0 -44 16t-15 42t15 42t44 16z" />
    <glyph glyph-name="ring" unicode="&#x2da;" horiz-adv-x="313" 
d="M157 800q22 0 40.5 -8t32 -21.5t21 -32t7.5 -39.5t-7.5 -39.5t-21 -32t-32 -21.5t-40.5 -8t-40.5 8t-32 21.5t-21 32t-7.5 39.5t7.5 39.5t21 32t32 21.5t40.5 8zM156 747q-21 0 -33.5 -14t-12.5 -34q0 -21 12.5 -34.5t33.5 -13.5q22 0 34.5 13.5t12.5 34.5q0 20 -12.5 34
t-34.5 14z" />
    <glyph glyph-name="ogonek" unicode="&#x2db;" horiz-adv-x="324" 
d="M192 0q-25 -14 -44 -42t-19 -60q0 -20 10 -32.5t35 -12.5q18 0 36 11t28 29h4l27 -38q-16 -28 -45 -48t-68 -20q-27 0 -46 7.5t-31 19.5t-17.5 27.5t-5.5 32.5q0 35 20 70t52 56h64z" />
    <glyph glyph-name="tilde" unicode="&#x2dc;" horiz-adv-x="392" 
d="M146 727q20 0 35 -5.5t27.5 -12l23.5 -12t23 -5.5q16 0 23 8t11 22h48q-9 -46 -28 -73.5t-62 -27.5q-20 0 -35 5.5t-27.5 12l-23.5 12t-24 5.5q-26 0 -34 -31h-47q8 46 28 74t62 28z" />
    <glyph glyph-name="hungarumlaut" unicode="&#x2dd;" horiz-adv-x="471" 
d="M312 625h-85l69 105h119zM141 625h-85l69 105h119z" />
    <glyph glyph-name="uni0326" unicode="&#x326;" horiz-adv-x="0" 
d="M-116 -55q28 0 44.5 -19t16.5 -49q0 -33 -17.5 -65.5t-37.5 -53.5h-37v3q11 16 20.5 35t9.5 40q-29 0 -42.5 14.5t-13.5 37.5q0 26 14.5 41.5t42.5 15.5z" />
    <glyph glyph-name="Delta" unicode="&#x394;" horiz-adv-x="796" 
d="M741 0h-685l307 700h71zM161 70h473l-236 539z" />
    <glyph glyph-name="Omega" unicode="&#x3a9;" horiz-adv-x="779" 
d="M390 712q72 0 130 -30t99 -79.5t63 -115t22 -135.5q0 -44 -8.5 -86.5t-26 -79t-43 -66t-58.5 -48.5v-2h156v-70h-270v77q48 17 81.5 45t54 64t30 78t9.5 88q0 54 -16 106.5t-46.5 93.5t-75 66t-101.5 25t-101.5 -25t-75 -66t-46.5 -93.5t-16 -106.5q0 -46 9.5 -88t30 -78
t54 -64t81.5 -45v-77h-270v70h156v2q-33 19 -58.5 48.5t-43 66t-26 79t-8.5 86.5q0 70 22 135.5t63 115t99 79.5t130 30z" />
    <glyph glyph-name="mu" unicode="&#x3bc;" horiz-adv-x="536" 
d="M481 0h-65l-8 82h-3q-7 -12 -20 -28.5t-33 -31t-47 -24.5t-61 -10q-35 0 -65.5 11.5t-47.5 30.5v-215h-75v745h75v-351q0 -32 6 -60t20 -48.5t36.5 -32.5t55.5 -12q39 0 68.5 17t49 45t29.5 63.5t10 71.5v307h75v-560z" />
    <glyph glyph-name="pi" unicode="&#x3c0;" horiz-adv-x="683" 
d="M628 492h-123v-375q0 -29 10.5 -39.5t28.5 -10.5q15 0 29.5 5t24.5 10h2l12 -74q-14 -8 -36 -12.5t-44 -4.5q-21 0 -40 6t-33.5 19.5t-23 35.5t-8.5 54v386h-170v-492h-78v492h-123v68h572v-68z" />
    <glyph glyph-name="Bdotaccent" unicode="&#x1e02;" horiz-adv-x="616" 
d="M354 700q104 0 158 -47.5t54 -132.5q0 -60 -27.5 -99t-82.5 -62v-2q50 -19 80 -60.5t30 -109.5q0 -34 -11 -67.5t-38 -60t-72.5 -43t-115.5 -16.5h-243v700h268zM166 320v-247h166q81 0 118 33.5t37 90.5q0 58 -34.5 90.5t-111.5 32.5h-175zM166 627v-236h174
q63 0 104 32t41 91q0 51 -32 82t-105 31h-182zM293 872q28 0 43 -16t15 -42t-15 -42t-43 -16q-29 0 -44 16t-15 42t15 42t44 16z" />
    <glyph glyph-name="bdotaccent" unicode="&#x1e03;" horiz-adv-x="617" 
d="M151 484h2q11 16 28 32t39 28.5t49 20t59 7.5q53 0 97.5 -23t77 -63.5t51 -94.5t18.5 -116q0 -63 -16 -115.5t-46.5 -90.5t-76 -59.5t-103.5 -21.5q-64 0 -108 25.5t-67 60.5h-3l-10 -74h-66v742h75v-258zM323 504q-41 0 -73 -16.5t-54.5 -46t-34 -71.5t-11.5 -93
q0 -100 45.5 -159t128.5 -59q42 0 74 16t54 45t33 68.5t11 86.5q0 46 -11.5 88t-33 73t-54 49.5t-74.5 18.5zM329 738q28 0 43 -16t15 -42t-15 -42t-43 -16q-29 0 -44 16t-15 42t15 42t44 16z" />
    <glyph glyph-name="Ddotaccent" unicode="&#x1e0a;" horiz-adv-x="671" 
d="M289 700q173 0 252.5 -83t79.5 -264q0 -183 -83.5 -268t-256.5 -85h-191v700h199zM170 627v-554h118q70 0 118.5 19.5t78.5 55.5t43 88t13 117q0 67 -11.5 118.5t-40 86t-76.5 52t-120 17.5h-123zM315 872q28 0 43 -16t15 -42t-15 -42t-43 -16q-29 0 -44 16t-15 42t15 42
t44 16z" />
    <glyph glyph-name="ddotaccent" unicode="&#x1e0b;" horiz-adv-x="617" 
d="M542 0h-66l-11 74h-2q-23 -35 -67.5 -60.5t-108.5 -25.5q-58 0 -103 21.5t-75.5 59.5t-46.5 90.5t-16 115.5q0 62 18.5 116t51 94.5t77 63.5t97.5 23q31 0 58.5 -7.5t49.5 -20t39 -28.5t28 -32h2v258h75v-742zM294 504q-42 0 -74.5 -18.5t-54 -49.5t-33 -73t-11.5 -88
q0 -47 11 -86.5t33 -68.5t54.5 -45t74.5 -16q82 0 127.5 59t45.5 159q0 51 -11.5 93t-34 71.5t-54.5 46t-73 16.5zM290 733q28 0 43 -16t15 -42t-15 -42t-43 -16q-29 0 -44 16t-15 42t15 42t44 16z" />
    <glyph glyph-name="Fdotaccent" unicode="&#x1e1e;" horiz-adv-x="564" 
d="M509 627h-343v-246h339v-69h-339v-312h-80v700h423v-73zM298 872q28 0 43 -16t15 -42t-15 -42t-43 -16q-29 0 -44 16t-15 42t15 42t44 16z" />
    <glyph glyph-name="fdotaccent" unicode="&#x1e1f;" horiz-adv-x="356" 
d="M234 785q42 0 74.5 -16.5t47.5 -31.5l-23 -72h-3q-11 13 -34 29t-51 16q-50 0 -50 -55v-95h146v-68h-146v-492h-75v492h-104v68h104v105q0 60 33 90t81 30zM235 946q28 0 43 -16t15 -42t-15 -42t-43 -16q-29 0 -44 16t-15 42t15 42t44 16z" />
    <glyph glyph-name="Mdotaccent" unicode="&#x1e40;" horiz-adv-x="853" 
d="M768 0h-76v628h-2l-219 -628h-88l-219 628h-2v-628h-76v700h133l206 -592h3l207 592h133v-700zM425 872q28 0 43 -16t15 -42t-15 -42t-43 -16q-29 0 -44 16t-15 42t15 42t44 16z" />
    <glyph glyph-name="mdotaccent" unicode="&#x1e41;" horiz-adv-x="851" 
d="M623 572q76 0 119.5 -45.5t43.5 -127.5v-399h-75v371q0 73 -28.5 103t-77.5 30q-29 0 -53.5 -11.5t-43.5 -35t-29.5 -57.5t-10.5 -79v-321h-75v371q0 73 -28 103t-77 30q-29 0 -53.5 -12.5t-43.5 -35.5t-29.5 -57.5t-10.5 -77.5v-321h-75v560h66l8 -74h3q22 39 59.5 62.5
t94.5 23.5t94.5 -28t51.5 -67h2q20 39 62.5 67t105.5 28zM436 733q28 0 43 -16t15 -42t-15 -42t-43 -16q-29 0 -44 16t-15 42t15 42t44 16z" />
    <glyph glyph-name="Pdotaccent" unicode="&#x1e56;" horiz-adv-x="603" 
d="M347 700q104 0 162.5 -47.5t58.5 -153.5q0 -54 -18.5 -93t-50 -63.5t-74.5 -36.5t-91 -12h-168v-294h-80v700h261zM166 627v-260h154q82 0 125 31.5t43 100.5q0 66 -33 97t-117 31h-172zM297 872q28 0 43 -16t15 -42t-15 -42t-43 -16q-29 0 -44 16t-15 42t15 42t44 16z
" />
    <glyph glyph-name="pdotaccent" unicode="&#x1e57;" horiz-adv-x="612" 
d="M327 572q54 0 98 -23t75.5 -63.5t49 -94.5t17.5 -116q0 -63 -16 -115.5t-46.5 -90.5t-75 -59.5t-102.5 -21.5q-66 0 -108.5 26.5t-65.5 61.5h-2v-262h-75v746h69l9 -77h3q22 35 65 62t105 27zM321 504q-41 0 -73 -17t-54.5 -47.5t-34 -72t-11.5 -90.5t11.5 -89t34 -68.5
t55 -44.5t73.5 -16q42 0 74 16t53 45t32 68.5t11 86.5t-11.5 89t-33 73t-53.5 49t-73 18zM327 733q28 0 43 -16t15 -42t-15 -42t-43 -16q-29 0 -44 16t-15 42t15 42t44 16z" />
    <glyph glyph-name="Sdotaccent" unicode="&#x1e60;" horiz-adv-x="604" 
d="M281 712q43 0 80.5 -11t69 -29t55.5 -41t40 -48l-44 -70h-5q-15 26 -35.5 49t-45 40t-53 27t-60.5 10q-35 0 -61 -9.5t-43 -25t-25.5 -36t-8.5 -42.5q0 -24 8 -42.5t28.5 -34t57 -29.5t93.5 -30q50 -14 91.5 -30t71.5 -39t46.5 -55.5t16.5 -78.5q0 -96 -63 -147.5
t-175 -51.5q-51 0 -95 13t-80.5 34t-64 46.5t-44.5 51.5l44 74h4q18 -27 41.5 -52.5t53 -46t64.5 -33t75 -12.5q82 0 122 32.5t40 89.5q0 30 -12 50.5t-37 36.5t-63.5 29t-90.5 28q-51 14 -90.5 31.5t-66 41t-40.5 53.5t-14 69q0 40 15 74.5t43 59.5t68 39.5t89 14.5z
M282 872q28 0 43 -16t15 -42t-15 -42t-43 -16q-29 0 -44 16t-15 42t15 42t44 16z" />
    <glyph glyph-name="sdotaccent" unicode="&#x1e61;" horiz-adv-x="525" 
d="M248 572q42 0 76.5 -10.5t61.5 -27t46 -36t30 -36.5l-41 -63h-4q-26 42 -68 73.5t-102 31.5q-29 0 -49.5 -8t-33.5 -20t-19 -27t-6 -29q0 -15 5 -28t21 -25.5t46.5 -25t81.5 -25.5q100 -26 143.5 -65.5t43.5 -107.5q0 -35 -14.5 -63.5t-40.5 -48.5t-62 -31.5t-78 -11.5
t-80 11t-69 28.5t-54.5 40t-36.5 45.5l43 65h3q31 -51 78.5 -85.5t112.5 -34.5t94.5 26t29.5 59q0 18 -5 33t-22.5 29t-50 27t-86.5 27q-95 24 -136 61t-41 99q0 29 12 56.5t35 49t57 34.5t79 13zM250 733q28 0 43 -16t15 -42t-15 -42t-43 -16q-29 0 -44 16t-15 42t15 42
t44 16z" />
    <glyph glyph-name="Tdotaccent" unicode="&#x1e6a;" horiz-adv-x="554" 
d="M529 627h-212v-627h-80v627h-211v73h503v-73zM278 872q28 0 43 -16t15 -42t-15 -42t-43 -16q-29 0 -44 16t-15 42t15 42t44 16z" />
    <glyph glyph-name="tdotaccent" unicode="&#x1e6b;" horiz-adv-x="380" 
d="M191 560h162v-68h-162v-369q0 -35 13.5 -48t33.5 -13t39 8.5t30 16.5h3l19 -71q-15 -11 -43 -19.5t-57 -8.5q-21 0 -41.5 6.5t-36.5 20.5t-25.5 35t-9.5 51v391h-88v47q48 20 77.5 63.5t42.5 97.5h43v-140zM165 873q28 0 43 -16t15 -42t-15 -42t-43 -16q-29 0 -44 16
t-15 42t15 42t44 16z" />
    <glyph glyph-name="Wgrave" unicode="&#x1e80;" horiz-adv-x="959" 
d="M741 0h-109l-152 611h-2l-150 -611h-110l-182 700h86l148 -611h2l151 611h114l151 -611h2l148 611h85zM513 762h-89l-101 106h128z" />
    <glyph glyph-name="wgrave" unicode="&#x1e81;" horiz-adv-x="808" 
d="M642 0h-105l-132 487h-2l-132 -487h-105l-135 560h79l109 -481h2l131 481h105l131 -481h2l108 481h79zM444 625h-89l-101 106h128z" />
    <glyph glyph-name="Wacute" unicode="&#x1e82;" horiz-adv-x="959" 
d="M741 0h-109l-152 611h-2l-150 -611h-110l-182 700h86l148 -611h2l151 611h114l151 -611h2l148 611h85zM525 762h-89l62 106h128z" />
    <glyph glyph-name="wacute" unicode="&#x1e83;" horiz-adv-x="808" 
d="M642 0h-105l-132 487h-2l-132 -487h-105l-135 560h79l109 -481h2l131 481h105l131 -481h2l108 481h79zM449 625h-89l62 106h128z" />
    <glyph glyph-name="Wdieresis" unicode="&#x1e84;" horiz-adv-x="959" 
d="M741 0h-109l-152 611h-2l-150 -611h-110l-182 700h86l148 -611h2l151 611h114l151 -611h2l148 611h85zM382 867q27 0 42 -15t15 -41q0 -25 -15 -40t-42 -15q-26 0 -40.5 15t-14.5 40q0 26 14.5 41t40.5 15zM578 867q26 0 40.5 -14.5t14.5 -40.5t-14.5 -41t-40.5 -15
q-28 0 -42.5 15t-14.5 41t14.5 40.5t42.5 14.5z" />
    <glyph glyph-name="wdieresis" unicode="&#x1e85;" horiz-adv-x="808" 
d="M642 0h-105l-132 487h-2l-132 -487h-105l-135 560h79l109 -481h2l131 481h105l131 -481h2l108 481h79zM306 731q27 0 42 -15.5t15 -41.5q0 -25 -15 -40t-42 -15q-26 0 -40.5 15t-14.5 40q0 26 14.5 41.5t40.5 15.5zM502 731q26 0 40.5 -15t14.5 -40q0 -26 -14.5 -41.5
t-40.5 -15.5q-28 0 -42.5 15.5t-14.5 41.5q0 25 14.5 40t42.5 15z" />
    <glyph glyph-name="Ygrave" unicode="&#x1ef2;" horiz-adv-x="545" 
d="M312 264v-264h-78v264l-218 436h89l168 -351l168 351h89zM306 762h-89l-101 106h128z" />
    <glyph glyph-name="ygrave" unicode="&#x1ef3;" horiz-adv-x="511" 
d="M229 -185h-85l79 222l-197 523h85l151 -431h2l137 431h85zM296 625h-89l-101 106h128z" />
    <glyph glyph-name="enspace" unicode="&#x2002;" horiz-adv-x="500" 
 />
    <glyph glyph-name="uni2003" unicode="&#x2003;" horiz-adv-x="1000" 
 />
    <glyph glyph-name="uni2004" unicode="&#x2004;" horiz-adv-x="333" 
 />
    <glyph glyph-name="uni2005" unicode="&#x2005;" horiz-adv-x="250" 
 />
    <glyph glyph-name="uni2009" unicode="&#x2009;" horiz-adv-x="120" 
 />
    <glyph glyph-name="uni200A" unicode="&#x200a;" horiz-adv-x="75" 
 />
    <glyph glyph-name="endash" unicode="&#x2013;" horiz-adv-x="611" 
d="M556 281h-500v68h500v-68z" />
    <glyph glyph-name="emdash" unicode="&#x2014;" horiz-adv-x="910" 
d="M855 281h-799v68h799v-68z" />
    <glyph glyph-name="quoteleft" unicode="&#x2018;" horiz-adv-x="239" 
d="M119.938 498.154q-29.6934 0 -47.7881 20.4141t-18.0947 52.8916q0 18.5586 5.56836 36.6523q5.56738 18.0947 14.3818 34.7969q8.81543 16.7031 19.9512 31.5498q11.1348 14.8467 21.3418 25.9814h40.8281v-2.78418q-11.1348 -15.7744 -21.3418 -39.4355
q-10.207 -23.6621 -10.207 -42.2207q27.8369 0 43.1475 -16.7021q15.3115 -16.7031 15.3115 -40.8291q0 -26.9092 -16.7031 -43.6113q-16.7021 -16.7031 -46.3955 -16.7031z" />
    <glyph glyph-name="quoteright" unicode="&#x2019;" horiz-adv-x="239" 
d="M119.069 705.854q29.6953 0 47.791 -20.416q18.0957 -20.415 18.0957 -52.8945q0 -18.5596 -5.56836 -36.6553q-5.56738 -18.0957 -14.3838 -34.7988q-8.81543 -16.7041 -19.9512 -31.5518t-21.3438 -25.9834h-40.8311v2.78418q11.1357 15.7754 21.3438 39.4395
q10.208 23.6631 10.208 42.2227q-27.8398 0 -43.1514 16.7031q-15.3115 16.7041 -15.3115 40.832q0 26.9111 16.7031 43.6143q16.7041 16.7041 46.3994 16.7041z" />
    <glyph glyph-name="quotesinglbase" unicode="&#x201a;" horiz-adv-x="239" 
d="M119.069 117.854q29.6953 0 47.791 -20.416q18.0957 -20.415 18.0957 -52.8945q0 -18.5596 -5.56836 -36.6553q-5.56738 -18.0957 -14.3838 -34.7988q-8.81543 -16.7041 -19.9512 -31.5518t-21.3438 -25.9834h-40.8311v2.78418q11.1357 15.7754 21.3438 39.4395
q10.208 23.6631 10.208 42.2227q-27.8398 0 -43.1514 16.7031q-15.3115 16.7041 -15.3115 40.832q0 26.9111 16.7031 43.6143q16.7041 16.7041 46.3994 16.7041z" />
    <glyph glyph-name="quotedblleft" unicode="&#x201c;" horiz-adv-x="406" 
d="M119.938 498.154q-29.6934 0 -47.7881 20.4141t-18.0947 52.8916q0 18.5586 5.56836 36.6523q5.56738 18.0947 14.3818 34.7969q8.81543 16.7031 19.9512 31.5498q11.1348 14.8467 21.3418 25.9814h40.8281v-2.78418q-11.1348 -15.7744 -21.3418 -39.4355
q-10.207 -23.6621 -10.207 -42.2207q27.8369 0 43.1475 -16.7021q15.3115 -16.7031 15.3115 -40.8291q0 -26.9092 -16.7031 -43.6113q-16.7021 -16.7031 -46.3955 -16.7031zM286.938 498.154q-29.6934 0 -47.7881 20.4141t-18.0947 52.8916q0 18.5586 5.56836 36.6523
q5.56738 18.0947 14.3818 34.7969q8.81543 16.7031 19.9512 31.5498q11.1348 14.8467 21.3418 25.9814h40.8281v-2.78418q-11.1348 -15.7744 -21.3418 -39.4355q-10.207 -23.6621 -10.207 -42.2207q27.8369 0 43.1475 -16.7021q15.3115 -16.7031 15.3115 -40.8291
q0 -26.9092 -16.7031 -43.6113q-16.7021 -16.7031 -46.3955 -16.7031z" />
    <glyph glyph-name="quotedblright" unicode="&#x201d;" horiz-adv-x="406" 
d="M118.827 706.985q29.6328 0 47.6904 -20.4385t18.0576 -52.9541q0 -18.5801 -5.55664 -36.6963q-5.55566 -18.1152 -14.3535 -34.8379q-8.79688 -16.7227 -19.9092 -31.5869t-21.2988 -26.0117h-40.7451v2.78613q11.1123 15.7939 21.2988 39.4834
q10.1865 23.6904 10.1865 42.2705q-27.7812 0 -43.0605 16.7227q-15.2793 16.7217 -15.2793 40.876q0 26.9414 16.668 43.6641q16.6689 16.7227 46.3018 16.7227zM285.827 706.985q29.6328 0 47.6904 -20.4385t18.0576 -52.9541q0 -18.5801 -5.55664 -36.6963
q-5.55566 -18.1152 -14.3535 -34.8379q-8.79688 -16.7227 -19.9092 -31.5869t-21.2988 -26.0117h-40.7451v2.78613q11.1123 15.7939 21.2988 39.4834q10.1865 23.6904 10.1865 42.2705q-27.7812 0 -43.0605 16.7227q-15.2793 16.7217 -15.2793 40.876
q0 26.9414 16.668 43.6641q16.6689 16.7227 46.3018 16.7227z" />
    <glyph glyph-name="quotedblbase" unicode="&#x201e;" horiz-adv-x="407" 
d="M118.827 117.985q29.6328 0 47.6904 -20.4385t18.0576 -52.9541q0 -18.5801 -5.55664 -36.6963q-5.55566 -18.1152 -14.3535 -34.8379q-8.79688 -16.7227 -19.9092 -31.5869t-21.2988 -26.0117h-40.7451v2.78613q11.1123 15.7939 21.2988 39.4834
q10.1865 23.6904 10.1865 42.2705q-27.7812 0 -43.0605 16.7227q-15.2793 16.7217 -15.2793 40.876q0 26.9414 16.668 43.6641q16.6689 16.7227 46.3018 16.7227zM286.827 117.985q29.6328 0 47.6904 -20.4385t18.0576 -52.9541q0 -18.5801 -5.55664 -36.6963
q-5.55566 -18.1152 -14.3535 -34.8379q-8.79688 -16.7227 -19.9092 -31.5869t-21.2988 -26.0117h-40.7451v2.78613q11.1123 15.7939 21.2988 39.4834q10.1865 23.6904 10.1865 42.2705q-27.7812 0 -43.0605 16.7227q-15.2793 16.7217 -15.2793 40.876
q0 26.9414 16.668 43.6641q16.6689 16.7227 46.3018 16.7227z" />
    <glyph glyph-name="dagger" unicode="&#x2020;" horiz-adv-x="530" 
d="M301 560h174v-71h-174v-602h-73v602h-172v71h172v198h73v-198z" />
    <glyph glyph-name="daggerdbl" unicode="&#x2021;" horiz-adv-x="530" 
d="M301 560h174v-71h-174v-260h174v-70h-174v-272h-73v272h-172v70h172v260h-172v71h172v198h73v-198z" />
    <glyph glyph-name="bullet" unicode="&#x2022;" horiz-adv-x="262" 
d="M131 395q32 0 54 -22t22 -54t-22 -53t-54 -21t-53.5 21t-21.5 53t21.5 54t53.5 22z" />
    <glyph glyph-name="ellipsis" unicode="&#x2026;" horiz-adv-x="765" 
d="M124 129q32 0 49.5 -19t17.5 -48q0 -30 -17.5 -49t-49.5 -19q-33 0 -50.5 19t-17.5 49q0 29 17.5 48t50.5 19zM384 129q32 0 49.5 -19t17.5 -48q0 -30 -17.5 -49t-49.5 -19q-33 0 -50.5 19t-17.5 49q0 29 17.5 48t50.5 19zM642 129q32 0 49.5 -19t17.5 -48
q0 -30 -17.5 -49t-49.5 -19q-33 0 -50.5 19t-17.5 49q0 29 17.5 48t50.5 19z" />
    <glyph glyph-name="perthousand" unicode="&#x2030;" horiz-adv-x="1293" 
d="M221 706q41 0 72 -17.5t52 -48t31.5 -71t10.5 -85.5q0 -35 -7 -72t-26 -68t-51 -50.5t-82 -19.5t-81.5 19.5t-50.5 50.5t-26 68t-7 72q0 45 10.5 85.5t31.5 71t51.5 48t71.5 17.5zM221 643q-24 0 -42 -13t-30 -35t-18 -50.5t-6 -59.5q0 -26 4.5 -52t15 -47t29 -34
t47.5 -13q28 0 47 13t29.5 34t15 47t4.5 52q0 31 -6 59.5t-18 50.5t-30 35t-42 13zM689 702l-418 -747l-59 35l419 747zM694 427q41 0 72 -17.5t52 -48t31.5 -71t10.5 -85.5q0 -35 -7 -72t-26 -68t-51 -50.5t-82 -19.5t-81.5 19.5t-50.5 50.5t-26 68t-7 72q0 45 10.5 85.5
t31.5 71t51.5 48t71.5 17.5zM694 364q-24 0 -42 -13t-30 -35t-18 -50.5t-6 -59.5q0 -26 4.5 -52t15 -47t29 -34t47.5 -13q28 0 47 13t29.5 34t15 47t4.5 52q0 31 -6 59.5t-18 50.5t-30 35t-42 13zM1072 427q41 0 72 -17.5t52 -48t31.5 -71t10.5 -85.5q0 -35 -7 -72t-26 -68
t-51 -50.5t-82 -19.5t-81.5 19.5t-50.5 50.5t-26 68t-7 72q0 45 10.5 85.5t31.5 71t51.5 48t71.5 17.5zM1072 364q-24 0 -42 -13t-30 -35t-18 -50.5t-6 -59.5q0 -26 4.5 -52t15 -47t29 -34t47.5 -13q28 0 47 13t29.5 34t15 47t4.5 52q0 31 -6 59.5t-18 50.5t-30 35t-42 13z
" />
    <glyph glyph-name="guilsinglleft" unicode="&#x2039;" horiz-adv-x="297" 
d="M145 277l96 -208h-74l-111 208l111 208h74z" />
    <glyph glyph-name="guilsinglright" unicode="&#x203a;" horiz-adv-x="297" 
d="M152.009 277l-95.9941 -208h73.9951l110.994 208l-110.994 208h-73.9951z" />
    <glyph glyph-name="fraction" unicode="&#x2044;" horiz-adv-x="208" 
d="M342 702l-418 -747l-59 35l419 747z" />
    <glyph glyph-name="plussuperior" unicode="&#x207a;" horiz-adv-x="361" 
d="M209 694h117v-53h-117v-134h-56v134h-117v53h117v116h56v-116z" />
    <glyph glyph-name="uni207B" unicode="&#x207b;" horiz-adv-x="313" 
d="M278 641h-242v53h242v-53z" />
    <glyph glyph-name="uni208A" unicode="&#x208a;" horiz-adv-x="361" 
d="M215 61h117v-53h-117v-134h-56v134h-117v53h117v116h56v-116z" />
    <glyph glyph-name="uni208B" unicode="&#x208b;" horiz-adv-x="313" 
d="M284 11h-242v53h242v-53z" />
    <glyph glyph-name="Euro" unicode="&#x20ac;" horiz-adv-x="786" 
d="M452 712q53 0 95 -16t74.5 -41.5t54.5 -57.5t35 -64l-58 -58h-3q-12 34 -30 64t-42.5 52.5t-56 36t-69.5 13.5q-41 0 -74.5 -14.5t-60.5 -39t-46 -58t-30 -70.5h271v-63h-282q-3 -22 -3.5 -43.5t1.5 -38.5h284v-63h-276q21 -92 76 -140t141 -48q45 0 80 15t61 41
t42.5 61.5t24.5 77.5h3l67 -55q-12 -44 -35 -83t-57.5 -68.5t-81 -46.5t-105.5 -17q-118 0 -196.5 66t-101.5 197h-98v63h91q-1 17 -0.5 37.5t2.5 44.5h-93v63h103q13 52 39.5 98t64 80.5t85.5 54.5t104 20z" />
    <glyph glyph-name="afii61352" unicode="&#x2116;" horiz-adv-x="1096" 
d="M1024 143h-307v72h307v-72zM606 0h-128l-311 627h-2v-627h-79v700h128l311 -627h2v627h79v-700zM872 706q41 0 72 -17.5t52 -48t31.5 -71t10.5 -85.5q0 -35 -7 -72t-26 -68t-51 -50.5t-82 -19.5t-81.5 19.5t-50.5 50.5t-26 68t-7 72q0 45 10.5 85.5t31.5 71t51.5 48
t71.5 17.5zM872 643q-24 0 -42 -13t-30 -35t-18 -50.5t-6 -59.5q0 -26 4.5 -52t15 -47t29 -34t47.5 -13q28 0 47 13t29.5 34t15 47t4.5 52q0 31 -6 59.5t-18 50.5t-30 35t-42 13z" />
    <glyph glyph-name="uni2117" unicode="&#x2117;" horiz-adv-x="835" 
d="M417 712q78 0 144.5 -28.5t115 -77.5t76 -115.5t27.5 -141.5t-27 -141t-75 -114.5t-115 -77t-146 -28.5q-80 0 -146 28.5t-114 77t-74.5 114.5t-26.5 141t27 141.5t75 115.5t114.5 77.5t144.5 28.5zM417 651q-65 0 -119 -23t-93 -63.5t-61 -96t-22 -119.5t22 -119t61 -95
t93 -63t119 -23q64 0 118.5 23t94.5 63.5t62 95t22 118.5t-22 119.5t-62 96t-94.5 63.5t-118.5 23zM445 557q64 0 100 -29t36 -94q0 -33 -11.5 -56.5t-31 -39t-45.5 -22.5t-56 -7h-61v-163h-63v411h132zM376 502v-138h51q45 0 69 17.5t24 52.5t-18 51.5t-64 16.5h-62z" />
    <glyph glyph-name="trademark" unicode="&#x2122;" horiz-adv-x="847" 
d="M744 331h-59v314h-1l-95 -314h-78l-94 314h-2v-314h-59v369h102l91 -305h2l91 305h102v-369zM301 645h-101v-314h-61v314h-103v55h265v-55z" />
    <glyph glyph-name="uni2153" unicode="&#x2153;" horiz-adv-x="878" 
d="M211 280h-65v329h-2l-77 -84l-46 47l123 128h67v-420zM633 702l-418 -747l-59 35l419 747zM822 360l-127 -102l1 -1q8 2 18 2q22 0 44 -7t40 -22.5t29 -40t11 -58.5q0 -33 -12 -58t-32 -42.5t-48 -26.5t-59 -9q-33 0 -59.5 9t-46 22.5t-32.5 30.5t-20 32l38 50h3
q7 -15 16.5 -30t23 -27t32.5 -19.5t44 -7.5q41 0 64.5 22t23.5 59q0 38 -23 59.5t-70 21.5q-17 0 -31.5 -3.5t-25.5 -8.5l-28 43l143 113v2h-178v58h261v-61z" />
    <glyph glyph-name="uni2154" unicode="&#x2154;" horiz-adv-x="942" 
d="M176 706q62 0 99 -35.5t37 -88.5q0 -29 -11.5 -54t-31.5 -49.5t-47.5 -50.5l-60.5 -57l-27 -26l181 -1v-64h-271v69l68 59q60 52 96.5 91.5t36.5 79.5q0 29 -19 47.5t-51 18.5q-20 0 -36 -8t-28.5 -21.5t-21.5 -31.5t-15 -37h-2l-46 50q5 17 17 36t30.5 35.5t44 27
t58.5 10.5zM697 702l-418 -747l-59 35l419 747zM886 360l-127 -102l1 -1q8 2 18 2q22 0 44 -7t40 -22.5t29 -40t11 -58.5q0 -33 -12 -58t-32 -42.5t-48 -26.5t-59 -9q-33 0 -59.5 9t-46 22.5t-32.5 30.5t-20 32l38 50h3q7 -15 16.5 -30t23 -27t32.5 -19.5t44 -7.5
q41 0 64.5 22t23.5 59q0 38 -23 59.5t-70 21.5q-17 0 -31.5 -3.5t-25.5 -8.5l-28 43l143 113v2h-178v58h261v-61z" />
    <glyph glyph-name="uni2155" unicode="&#x2155;" horiz-adv-x="893" 
d="M211 280h-65v329h-2l-77 -84l-46 47l123 128h67v-420zM633 702l-418 -747l-59 35l419 747zM814 363h-194v-101h1q16 9 37.5 15.5t49.5 6.5q30 0 57.5 -9.5t48 -28t32.5 -45.5t12 -62q0 -69 -43.5 -106.5t-109.5 -37.5q-33 0 -59.5 9t-46.5 22.5t-33.5 30.5t-20.5 32
l39 50h3q7 -15 17 -30t24 -27t33 -19.5t43 -7.5q45 0 68 25t23 62q0 36 -23.5 62.5t-69.5 26.5q-28 0 -47.5 -9t-33.5 -21l-57 25v195h250v-58z" />
    <glyph glyph-name="uni2156" unicode="&#x2156;" horiz-adv-x="957" 
d="M176 706q62 0 99 -35.5t37 -88.5q0 -29 -11.5 -54t-31.5 -49.5t-47.5 -50.5l-60.5 -57l-27 -26l181 -1v-64h-271v69l68 59q60 52 96.5 91.5t36.5 79.5q0 29 -19 47.5t-51 18.5q-20 0 -36 -8t-28.5 -21.5t-21.5 -31.5t-15 -37h-2l-46 50q5 17 17 36t30.5 35.5t44 27
t58.5 10.5zM697 702l-418 -747l-59 35l419 747zM878 363h-194v-101h1q16 9 37.5 15.5t49.5 6.5q30 0 57.5 -9.5t48 -28t32.5 -45.5t12 -62q0 -69 -43.5 -106.5t-109.5 -37.5q-33 0 -59.5 9t-46.5 22.5t-33.5 30.5t-20.5 32l39 50h3q7 -15 17 -30t24 -27t33 -19.5t43 -7.5
q45 0 68 25t23 62q0 36 -23.5 62.5t-69.5 26.5q-28 0 -47.5 -9t-33.5 -21l-57 25v195h250v-58z" />
    <glyph glyph-name="uni2157" unicode="&#x2157;" horiz-adv-x="981" 
d="M323 639l-127 -102l1 -1q8 2 18 2q22 0 44 -7t40 -22.5t29 -40t11 -58.5q0 -33 -12 -58t-32 -42.5t-48 -26.5t-59 -9q-33 0 -59.5 9t-46 22.5t-32.5 30.5t-20 32l38 50h3q7 -15 16.5 -30t23 -27t32.5 -19.5t44 -7.5q41 0 64.5 22t23.5 59q0 38 -23 59.5t-70 21.5
q-17 0 -31.5 -3.5t-25.5 -8.5l-28 43l143 113v2h-178v58h261v-61zM721 702l-418 -747l-59 35l419 747zM902 363h-194v-101h1q16 9 37.5 15.5t49.5 6.5q30 0 57.5 -9.5t48 -28t32.5 -45.5t12 -62q0 -69 -43.5 -106.5t-109.5 -37.5q-33 0 -59.5 9t-46.5 22.5t-33.5 30.5
t-20.5 32l39 50h3q7 -15 17 -30t24 -27t33 -19.5t43 -7.5q45 0 68 25t23 62q0 36 -23.5 62.5t-69.5 26.5q-28 0 -47.5 -9t-33.5 -21l-57 25v195h250v-58z" />
    <glyph glyph-name="uni2158" unicode="&#x2158;" horiz-adv-x="966" 
d="M294 415h44v-59h-43v-76h-65v76h-204v55l161 289h107v-285zM227 653l-133 -238h135v238h-2zM706 702l-418 -747l-59 35l419 747zM887 363h-194v-101h1q16 9 37.5 15.5t49.5 6.5q30 0 57.5 -9.5t48 -28t32.5 -45.5t12 -62q0 -69 -43.5 -106.5t-109.5 -37.5q-33 0 -59.5 9
t-46.5 22.5t-33.5 30.5t-20.5 32l39 50h3q7 -15 17 -30t24 -27t33 -19.5t43 -7.5q45 0 68 25t23 62q0 36 -23.5 62.5t-69.5 26.5q-28 0 -47.5 -9t-33.5 -21l-57 25v195h250v-58z" />
    <glyph glyph-name="uni2159" unicode="&#x2159;" horiz-adv-x="886" 
d="M211 280h-65v329h-2l-77 -84l-46 47l123 128h67v-420zM633 702l-418 -747l-59 35l419 747zM708 427q25 0 46 -6t36.5 -16t27 -21.5t18.5 -22.5l-35 -49h-2q-13 20 -34.5 38t-56.5 18q-26 0 -44.5 -12.5t-31.5 -32.5t-19 -46.5t-6 -53.5l1 -1q16 20 43 34.5t63 14.5
q29 0 55 -9t45.5 -26.5t30.5 -43t11 -57.5q0 -63 -39.5 -101.5t-108.5 -38.5q-37 0 -67.5 12.5t-53 38.5t-35 64.5t-12.5 91.5q0 51 12 92.5t34 71t53 45.5t69 16zM707 219q-40 0 -63.5 -25t-23.5 -58q0 -32 22 -56t65 -24q39 0 61 22t22 57q0 37 -22.5 60.5t-60.5 23.5z
" />
    <glyph glyph-name="uni215A" unicode="&#x215a;" horiz-adv-x="989" 
d="M315 642h-194v-101h1q16 9 37.5 15.5t49.5 6.5q30 0 57.5 -9.5t48 -28t32.5 -45.5t12 -62q0 -69 -43.5 -106.5t-109.5 -37.5q-33 0 -59.5 9t-46.5 22.5t-33.5 30.5t-20.5 32l39 50h3q7 -15 17 -30t24 -27t33 -19.5t43 -7.5q45 0 68 25t23 62q0 36 -23.5 62.5t-69.5 26.5
q-28 0 -47.5 -9t-33.5 -21l-57 25v195h250v-58zM736 702l-418 -747l-59 35l419 747zM811 427q25 0 46 -6t36.5 -16t27 -21.5t18.5 -22.5l-35 -49h-2q-13 20 -34.5 38t-56.5 18q-26 0 -44.5 -12.5t-31.5 -32.5t-19 -46.5t-6 -53.5l1 -1q16 20 43 34.5t63 14.5q29 0 55 -9
t45.5 -26.5t30.5 -43t11 -57.5q0 -63 -39.5 -101.5t-108.5 -38.5q-37 0 -67.5 12.5t-53 38.5t-35 64.5t-12.5 91.5q0 51 12 92.5t34 71t53 45.5t69 16zM810 219q-40 0 -63.5 -25t-23.5 -58q0 -32 22 -56t65 -24q39 0 61 22t22 57q0 37 -22.5 60.5t-60.5 23.5z" />
    <glyph glyph-name="oneeighth" unicode="&#x215b;" horiz-adv-x="855" 
d="M211 280h-65v329h-2l-77 -84l-46 47l123 128h67v-420zM633 702l-418 -747l-59 35l419 747zM677 427q31 0 55.5 -9.5t41.5 -25.5t26.5 -37t9.5 -44q0 -32 -17 -59t-50 -38v-1q32 -11 54.5 -38t22.5 -67q0 -29 -11.5 -50.5t-31 -35.5t-45.5 -20.5t-55 -6.5t-54.5 6.5
t-45 20.5t-31 35.5t-11.5 50.5q0 40 22 67t55 38v1q-32 11 -50 38t-18 59q0 23 9 44t26.5 37t42 25.5t55.5 9.5zM677 187q-35 0 -55.5 -20t-20.5 -49t20 -45.5t56 -16.5q35 0 56 16.5t21 45.5t-21 49t-56 20zM677 369q-30 0 -48 -17.5t-18 -45.5q0 -26 17 -44t49 -18t49 18
t17 44q0 28 -18 45.5t-48 17.5z" />
    <glyph glyph-name="threeeighths" unicode="&#x215c;" horiz-adv-x="943" 
d="M323 639l-127 -102l1 -1q8 2 18 2q22 0 44 -7t40 -22.5t29 -40t11 -58.5q0 -33 -12 -58t-32 -42.5t-48 -26.5t-59 -9q-33 0 -59.5 9t-46 22.5t-32.5 30.5t-20 32l38 50h3q7 -15 16.5 -30t23 -27t32.5 -19.5t44 -7.5q41 0 64.5 22t23.5 59q0 38 -23 59.5t-70 21.5
q-17 0 -31.5 -3.5t-25.5 -8.5l-28 43l143 113v2h-178v58h261v-61zM721 702l-418 -747l-59 35l419 747zM765 427q31 0 55.5 -9.5t41.5 -25.5t26.5 -37t9.5 -44q0 -32 -17 -59t-50 -38v-1q32 -11 54.5 -38t22.5 -67q0 -29 -11.5 -50.5t-31 -35.5t-45.5 -20.5t-55 -6.5
t-54.5 6.5t-45 20.5t-31 35.5t-11.5 50.5q0 40 22 67t55 38v1q-32 11 -50 38t-18 59q0 23 9 44t26.5 37t42 25.5t55.5 9.5zM765 187q-35 0 -55.5 -20t-20.5 -49t20 -45.5t56 -16.5q35 0 56 16.5t21 45.5t-21 49t-56 20zM765 369q-30 0 -48 -17.5t-18 -45.5q0 -26 17 -44
t49 -18t49 18t17 44q0 28 -18 45.5t-48 17.5z" />
    <glyph glyph-name="fiveeighths" unicode="&#x215d;" horiz-adv-x="958" 
d="M315 642h-194v-101h1q16 9 37.5 15.5t49.5 6.5q30 0 57.5 -9.5t48 -28t32.5 -45.5t12 -62q0 -69 -43.5 -106.5t-109.5 -37.5q-33 0 -59.5 9t-46.5 22.5t-33.5 30.5t-20.5 32l39 50h3q7 -15 17 -30t24 -27t33 -19.5t43 -7.5q45 0 68 25t23 62q0 36 -23.5 62.5t-69.5 26.5
q-28 0 -47.5 -9t-33.5 -21l-57 25v195h250v-58zM736 702l-418 -747l-59 35l419 747zM780 427q31 0 55.5 -9.5t41.5 -25.5t26.5 -37t9.5 -44q0 -32 -17 -59t-50 -38v-1q32 -11 54.5 -38t22.5 -67q0 -29 -11.5 -50.5t-31 -35.5t-45.5 -20.5t-55 -6.5t-54.5 6.5t-45 20.5
t-31 35.5t-11.5 50.5q0 40 22 67t55 38v1q-32 11 -50 38t-18 59q0 23 9 44t26.5 37t42 25.5t55.5 9.5zM780 187q-35 0 -55.5 -20t-20.5 -49t20 -45.5t56 -16.5q35 0 56 16.5t21 45.5t-21 49t-56 20zM780 369q-30 0 -48 -17.5t-18 -45.5q0 -26 17 -44t49 -18t49 18t17 44
q0 28 -18 45.5t-48 17.5z" />
    <glyph glyph-name="seveneighths" unicode="&#x215e;" horiz-adv-x="839" 
d="M310 640l-191 -360h-74l195 360h-215v60h285v-60zM617 702l-418 -747l-59 35l419 747zM661 427q31 0 55.5 -9.5t41.5 -25.5t26.5 -37t9.5 -44q0 -32 -17 -59t-50 -38v-1q32 -11 54.5 -38t22.5 -67q0 -29 -11.5 -50.5t-31 -35.5t-45.5 -20.5t-55 -6.5t-54.5 6.5t-45 20.5
t-31 35.5t-11.5 50.5q0 40 22 67t55 38v1q-32 11 -50 38t-18 59q0 23 9 44t26.5 37t42 25.5t55.5 9.5zM661 187q-35 0 -55.5 -20t-20.5 -49t20 -45.5t56 -16.5q35 0 56 16.5t21 45.5t-21 49t-56 20zM661 369q-30 0 -48 -17.5t-18 -45.5q0 -26 17 -44t49 -18t49 18t17 44
q0 28 -18 45.5t-48 17.5z" />
    <glyph glyph-name="arrowleft" unicode="&#x2190;" horiz-adv-x="740" 
d="M294 390h396v-67h-396v-152h-4l-240 183v2l240 182h4v-148z" />
    <glyph glyph-name="arrowup" unicode="&#x2191;" horiz-adv-x="466" 
d="M416 434v-4h-148v-396h-67v396h-151v4l182 240h2z" />
    <glyph glyph-name="arrowright" unicode="&#x2192;" horiz-adv-x="740" 
d="M690 356v-2l-240 -183h-4v152h-396v67h396v148h4z" />
    <glyph glyph-name="arrowdown" unicode="&#x2193;" horiz-adv-x="466" 
d="M268 270h148v-4l-182 -241h-2l-182 241v4h151v395h67v-395z" />
    <glyph glyph-name="arrowboth" unicode="&#x2194;" horiz-adv-x="992" 
d="M50 356l240 182h4v-148h404v148h4l240 -182v-2l-240 -183h-4v152h-404v-152h-4l-240 183v2z" />
    <glyph glyph-name="arrowupdown" unicode="&#x2195;" horiz-adv-x="474" 
d="M424 556v-4h-157v-398h157v-4l-191 -240h-1l-182 240v4h145v398h-145v4l182 240h1z" />
    <glyph glyph-name="arrowupleft" unicode="&#x2196;" horiz-adv-x="578" 
d="M349 555l3 -2l-104 -106l280 -278l-47 -48l-280 279l-108 -106l-1 3l-42 298l1 2z" />
    <glyph glyph-name="arrowupright" unicode="&#x2197;" horiz-adv-x="578" 
d="M528 595l-42 -298l-1 -3l-108 106l-280 -279l-47 48l280 278l-104 106l3 2l298 42z" />
    <glyph glyph-name="arrowdownright" unicode="&#x2198;" horiz-adv-x="578" 
d="M330 264l-280 278l47 48l280 -279l108 106l1 -3l42 -298l-1 -2l-298 42l-3 2z" />
    <glyph glyph-name="arrowdownleft" unicode="&#x2199;" horiz-adv-x="578" 
d="M528 542l-280 -280l104 -104l-3 -3l-298 -41l-1 1l42 299l1 3l108 -107l280 279z" />
    <glyph glyph-name="arrowlefthook" unicode="&#x21a9;" horiz-adv-x="881" 
d="M611 756q52 0 93 -17t69 -46t43 -68.5t15 -84.5t-15 -84.5t-43 -69t-69 -46.5t-93 -17h-317v-151h-4l-240 183v1l240 182h4v-147h316q38 0 66 12.5t46 33t27 47.5t9 56q0 30 -9 57t-27 47.5t-46 33t-66 12.5h-124v66h125z" />
    <glyph glyph-name="arrowrighthook" unicode="&#x21aa;" horiz-adv-x="881" 
d="M394 756v-66h-124q-38 0 -66 -12.5t-46 -33t-27 -47.5t-9 -57q0 -29 9 -56t27 -47.5t46 -33t66 -12.5h316v147h4l241 -182v-1l-241 -183h-4v151h-316q-53 0 -93.5 17t-69 46.5t-43 69t-14.5 84.5t14.5 84.5t43 68.5t69 46t93.5 17h124z" />
    <glyph glyph-name="arrowdowntipleft" unicode="&#x21b2;" horiz-adv-x="742" 
d="M50 355l240 182h4v-147h325v345h73v-413h-398v-151h-4l-240 183v1z" />
    <glyph glyph-name="arrowdowntipright" unicode="&#x21b3;" horiz-adv-x="742" 
d="M50 735h73v-345h325v147h4l240 -182v-1l-240 -183h-4v151h-398v413z" />
    <glyph glyph-name="arrowanticlockwiseopencircle" unicode="&#x21ba;" horiz-adv-x="963" 
d="M411 712q32 0 61.5 -5t54.5 -13l-17 -73q-23 8 -46.5 12.5t-52.5 4.5q-69 0 -121.5 -23t-88 -62.5t-53.5 -92t-18 -111.5t18 -111t53.5 -91t88 -61.5t121.5 -22.5q61 0 109.5 18t83.5 49.5t56 75t28 93.5h-141v4l183 240h1l182 -240v-4h-143q-8 -66 -37 -123t-75.5 -99
t-109 -65.5t-137.5 -23.5q-81 0 -148 28.5t-114 77t-73 114.5t-26 141t26 141t73 115.5t114 78t148 28.5z" />
    <glyph glyph-name="arrowclockwiseopencircle" unicode="&#x21bb;" horiz-adv-x="963" 
d="M552 712q81 0 148 -28.5t114 -78t73 -115.5t26 -141t-26 -141t-73 -114.5t-114 -77t-148 -28.5q-75 0 -137.5 23.5t-109 65.5t-75.5 99t-37 123h-143v4l182 240h1l183 -240v-4h-141q7 -50 28 -93.5t56 -75t83 -49.5t110 -18q69 0 121.5 22.5t88 61.5t53.5 91t18 111
t-18 111.5t-53.5 92t-88 62.5t-121.5 23q-29 0 -52.5 -4.5t-46.5 -12.5l-17 73q25 8 54.5 13t61.5 5z" />
    <glyph glyph-name="arrowrightoverleft" unicode="&#x21c4;" horiz-adv-x="1115" 
d="M294 249h396v-68h-396v-151h-4l-240 182v2l240 182h4v-147zM1065 447v-1l-240 -183h-4v151h-396v68h396v147h4z" />
    <glyph glyph-name="arrowupleftofdown" unicode="&#x21c5;" horiz-adv-x="797" 
d="M596 224h151v-4l-182 -240h-2l-182 240v4h148v422h67v-422zM416 479v-4h-151v-422h-68v422h-147v4l182 240h1z" />
    <glyph glyph-name="arrowleftoverright" unicode="&#x21c6;" horiz-adv-x="1115" 
d="M1065 214v-2l-240 -182h-4v151h-396v68h396v147h4zM294 482h396v-68h-396v-151h-4l-240 183v1l240 182h4v-147z" />
    <glyph glyph-name="downArrowLeftOfUpArrow" unicode="&#x21f5;" horiz-adv-x="797" 
d="M747 480v-4h-151v-422h-67v422h-148v4l182 240h2zM265 225h151v-4l-183 -240h-1l-182 240v4h147v422h68v-422z" />
    <glyph glyph-name="partialdiff" unicode="&#x2202;" horiz-adv-x="597" 
d="M283 712q57 0 104.5 -25t82 -75.5t53.5 -126t19 -175.5q0 -83 -18.5 -144t-52 -100.5t-79.5 -58.5t-100 -19q-56 0 -99.5 19.5t-74 53t-46.5 78.5t-16 97q0 50 16.5 94t46.5 76.5t72.5 51t94.5 18.5q59 0 105.5 -26t70.5 -65h2q-3 60 -17.5 108t-38.5 81.5t-56 51.5
t-69 18q-46 0 -86 -24h-3l-21 66q17 10 47 18t63 8zM289 410q-39 0 -69 -14t-50.5 -38t-31 -55.5t-10.5 -65.5q0 -33 9.5 -64.5t29 -56.5t50.5 -40.5t73 -15.5q39 0 69.5 13.5t51.5 37t31.5 55t10.5 66.5q0 32 -10 63.5t-30.5 57t-51.5 41.5t-72 16z" />
    <glyph glyph-name="product" unicode="&#x220f;" 
d="M545 0h-77v628h-285v-628h-77v700h439v-700z" />
    <glyph glyph-name="summation" unicode="&#x2211;" horiz-adv-x="582" 
d="M527 628h-371l268 -257l-270 -300h373v-71h-471v74l269 295l-269 256v75h471v-72z" />
    <glyph glyph-name="minus" unicode="&#x2212;" horiz-adv-x="542" 
d="M487 320h-431v68h431v-68z" />
    <glyph glyph-name="radical" unicode="&#x221a;" horiz-adv-x="737" 
d="M438 0h-106l-170 490h-106v70h161l167 -490h2l217 630h79z" />
    <glyph glyph-name="infinity" unicode="&#x221e;" horiz-adv-x="758" 
d="M527 572q39 0 71.5 -13.5t56 -37.5t36 -57.5t12.5 -73.5t-12.5 -73.5t-36 -57.5t-56 -37.5t-71.5 -13.5q-48 0 -86 22t-61 64h-2q-23 -41 -60.5 -63.5t-85.5 -22.5q-39 0 -71.5 13.5t-56 37.5t-36 57.5t-12.5 73.5t12.5 73.5t36 57.5t56 37.5t71.5 13.5q48 0 85.5 -22
t60.5 -63h2q23 41 61 63t86 22zM231 507q-49 0 -77 -33t-28 -84t28 -84t77 -33q24 0 43.5 9.5t34.5 26t25 37.5t14 44q-4 23 -14 44t-25 37.5t-34.5 26t-43.5 9.5zM526 507q-23 0 -43 -9.5t-35 -26t-25 -37.5t-14 -44q4 -23 14 -44t25 -37.5t35 -26t43 -9.5q49 0 77 33
t28 84t-28 84t-77 33z" />
    <glyph glyph-name="integral" unicode="&#x222b;" horiz-adv-x="505" 
d="M331 756q38 0 69 -15.5t50 -35.5l-27 -66h-4q-12 17 -34 30.5t-46 13.5q-49 0 -49 -58v-699q0 -33 -9.5 -56.5t-25 -38t-36.5 -21.5t-45 -7q-37 0 -68 15.5t-50 35.5l27 66h3q13 -17 35 -30.5t45 -13.5q49 0 49 56v701q0 33 9.5 56.5t25 38t36.5 21.5t45 7z" />
    <glyph glyph-name="approxequal" unicode="&#x2248;" horiz-adv-x="581" 
d="M56 452q19 32 52 55.5t78 23.5q34 0 61.5 -13.5t56.5 -30.5l48 -25.5t48 -11.5q32 0 55 23.5t36 52.5h4l31 -69q-19 -32 -52 -55t-78 -23q-35 0 -61 13.5l-54 28.5q-26 15 -48 26.5t-51 11.5q-32 0 -55 -23.5t-36 -52.5h-3zM56 254q19 32 52 55t78 23q34 0 61.5 -13.5
t56.5 -29.5l48 -26t48 -12q32 0 55 24t36 53h4l31 -70q-19 -32 -52 -55t-78 -23q-35 0 -61 13.5l-54 29.5l-48 26t-51 12q-32 0 -55 -24t-36 -53h-3z" />
    <glyph glyph-name="notequal" unicode="&#x2260;" horiz-adv-x="585" 
d="M530 574l-84 -95h83v-70h-143l-104 -113h247v-70h-308l-118 -134l-46 39l83 95h-84v70h145l104 113h-249v70h309l120 136z" />
    <glyph glyph-name="lessequal" unicode="&#x2264;" horiz-adv-x="584" 
d="M529 546l-379 -164l379 -163v-77l-473 206v69l473 206v-77zM529 0h-473v68h473v-68z" />
    <glyph glyph-name="greaterequal" unicode="&#x2265;" horiz-adv-x="584" 
d="M46.0322 546l378.977 -164l-378.977 -163v-77l472.972 206v69l-472.972 206v-77zM46.0322 0h472.972v68h-472.972v-68z" />
    <glyph glyph-name="uni24FF" unicode="&#x24ff;" horiz-adv-x="824" 
d="M411 712q81 0 148 -28.5t115 -78t74 -115.5t26 -141t-25 -140.5t-71.5 -114.5t-114 -77.5t-152.5 -28.5t-152 28.5t-113.5 77.5t-71 114.5t-24.5 140.5t26 141t73 115.5t114 78t148 28.5zM410 566q-41 0 -71.5 -17.5t-51.5 -48t-31.5 -71t-10.5 -85.5q0 -35 7 -72t26 -68
t50.5 -50.5t81.5 -19.5t82 19.5t51 50.5t26 68t7 72q0 45 -10.5 85.5t-31.5 71t-52 48t-72 17.5zM410 503q24 0 42 -13t30 -35t18 -50.5t6 -59.5q0 -26 -4.5 -52t-15 -47t-29.5 -34t-47 -13q-29 0 -47.5 13t-29 34t-15 47t-4.5 52q0 31 6 59.5t18 50.5t30 35t42 13z" />
    <glyph glyph-name="lozenge" unicode="&#x25ca;" horiz-adv-x="748" 
d="M693 348l-318 -360l-319 360l319 360zM158 348l217 -248l216 248l-216 250z" />
    <glyph glyph-name="blackcircle" unicode="&#x25cf;" horiz-adv-x="824" 
d="M411 712q81 0 148 -28.5t115 -78t74 -115.5t26 -141t-25 -140.5t-71.5 -114.5t-114 -77.5t-152.5 -28.5t-152 28.5t-113.5 77.5t-71 114.5t-24.5 140.5t26 141t73 115.5t114 78t148 28.5z" />
    <glyph glyph-name="uni2776" unicode="&#x2776;" horiz-adv-x="824" 
d="M475 560h-67l-123 -128l46 -47l77 84h2v-329h65v420zM411 712q81 0 148 -28.5t115 -78t74 -115.5t26 -141t-25 -140.5t-71.5 -114.5t-114 -77.5t-152.5 -28.5t-152 28.5t-113.5 77.5t-71 114.5t-24.5 140.5t26 141t73 115.5t114 78t148 28.5z" />
    <glyph glyph-name="uni2777" unicode="&#x2777;" horiz-adv-x="824" 
d="M420 566q-33 0 -58.5 -10.5t-44 -27t-30.5 -35.5t-17 -36l46 -50h2q6 19 15 37t21.5 31.5t28.5 21.5t36 8q32 0 51 -18.5t19 -47.5q0 -40 -36.5 -79.5t-96.5 -91.5l-68 -59v-69h271v64l-181 1l27 26l60.5 57t47.5 50.5t31.5 49.5t11.5 54q0 53 -37 88.5t-99 35.5z
M411 713q81 0 148 -28.5t115 -78t74 -115.5t26 -141t-25 -140.5t-71.5 -114.5t-114 -77.5t-152.5 -28.5t-152 28.5t-113.5 77.5t-71 114.5t-24.5 140.5t26 141t73 115.5t114 78t148 28.5z" />
    <glyph glyph-name="uni2778" unicode="&#x2778;" horiz-adv-x="824" 
d="M548 560h-261v-58h178v-2l-143 -113l28 -43q11 5 25.5 8.5t31.5 3.5q47 0 70 -21.5t23 -59.5q0 -37 -23.5 -59t-64.5 -22q-25 0 -44 7.5t-32.5 19.5t-23 27t-16.5 30h-3l-38 -50q7 -15 20 -32t32.5 -30.5t46 -22.5t59.5 -9q31 0 59 9t48 26.5t32 42.5t12 58
q0 34 -11 58.5t-29 40t-40 22.5t-44 7q-10 0 -18 -2l-1 1l127 102v61zM411 712q81 0 148 -28.5t115 -78t74 -115.5t26 -141t-25 -140.5t-71.5 -114.5t-114 -77.5t-152.5 -28.5t-152 28.5t-113.5 77.5t-71 114.5t-24.5 140.5t26 141t73 115.5t114 78t148 28.5z" />
    <glyph glyph-name="uni2779" unicode="&#x2779;" horiz-adv-x="824" 
d="M499 560h-107l-161 -289v-55h204v-76h65v76h43v59h-44v285zM434 513v-238h-135l133 238h2zM411 712q81 0 148 -28.5t115 -78t74 -115.5t26 -141t-25 -140.5t-71.5 -114.5t-114 -77.5t-152.5 -28.5t-152 28.5t-113.5 77.5t-71 114.5t-24.5 140.5t26 141t73 115.5t114 78
t148 28.5z" />
    <glyph glyph-name="uni277A" unicode="&#x277a;" horiz-adv-x="824" 
d="M528 560h-250v-195l57 -25q14 12 33.5 21t47.5 9q46 0 69.5 -26.5t23.5 -62.5q0 -37 -23 -62t-68 -25q-24 0 -43 7.5t-33 19.5t-24 27t-17 30h-3l-39 -50q7 -15 20.5 -32t33.5 -30.5t46.5 -22.5t59.5 -9q66 0 109.5 37.5t43.5 106.5q0 35 -12 62t-32.5 45.5t-48 28
t-57.5 9.5q-28 0 -49.5 -6.5t-37.5 -15.5h-1v101h194v58zM411 712q81 0 148 -28.5t115 -78t74 -115.5t26 -141t-25 -140.5t-71.5 -114.5t-114 -77.5t-152.5 -28.5t-152 28.5t-113.5 77.5t-71 114.5t-24.5 140.5t26 141t73 115.5t114 78t148 28.5z" />
    <glyph glyph-name="uni277B" unicode="&#x277b;" horiz-adv-x="824" 
d="M426 566q-38 0 -69 -16t-53 -45.5t-34 -71t-12 -92.5q0 -53 12.5 -91.5t35 -64.5t53 -38.5t67.5 -12.5q69 0 108.5 38.5t39.5 101.5q0 32 -11 57.5t-30.5 43t-45.5 26.5t-55 9q-36 0 -63 -14.5t-43 -34.5l-1 1q0 27 6 53.5t19 46.5t31.5 32.5t44.5 12.5q35 0 56.5 -18
t34.5 -38h2l35 49q-7 11 -18.5 22.5t-27 21.5t-36.5 16t-46 6zM425 358q38 0 60.5 -23.5t22.5 -60.5q0 -35 -22 -57t-61 -22q-43 0 -65 24t-22 56q0 33 23.5 58t63.5 25zM411 712q81 0 148 -28.5t115 -78t74 -115.5t26 -141t-25 -140.5t-71.5 -114.5t-114 -77.5
t-152.5 -28.5t-152 28.5t-113.5 77.5t-71 114.5t-24.5 140.5t26 141t73 115.5t114 78t148 28.5z" />
    <glyph glyph-name="uni277C" unicode="&#x277c;" horiz-adv-x="824" 
d="M578 560h-285v-60h215l-195 -360h74l191 360v60zM411 712q81 0 148 -28.5t115 -78t74 -115.5t26 -141t-25 -140.5t-71.5 -114.5t-114 -77.5t-152.5 -28.5t-152 28.5t-113.5 77.5t-71 114.5t-24.5 140.5t26 141t73 115.5t114 78t148 28.5z" />
    <glyph glyph-name="uni277D" unicode="&#x277d;" horiz-adv-x="824" 
d="M415 566q-31 0 -55.5 -9.5t-42 -25.5t-26.5 -37t-9 -44q0 -32 18 -59t50 -38v-1q-33 -11 -55 -38t-22 -67q0 -29 11.5 -50.5t31 -35.5t45 -20.5t54.5 -6.5t55 6.5t45.5 20.5t31 35.5t11.5 50.5q0 40 -22.5 67t-54.5 38v1q33 11 50 38t17 59q0 23 -9.5 44t-26.5 37
t-41.5 25.5t-55.5 9.5zM415 326q35 0 56 -20t21 -49t-21 -45.5t-56 -16.5q-36 0 -56 16.5t-20 45.5t20.5 49t55.5 20zM415 508q30 0 48 -17.5t18 -45.5q0 -26 -17 -44t-49 -18t-49 18t-17 44q0 28 18 45.5t48 17.5zM411 712q81 0 148 -28.5t115 -78t74 -115.5t26 -141
t-25 -140.5t-71.5 -114.5t-114 -77.5t-152.5 -28.5t-152 28.5t-113.5 77.5t-71 114.5t-24.5 140.5t26 141t73 115.5t114 78t148 28.5z" />
    <glyph glyph-name="uni277E" unicode="&#x277e;" horiz-adv-x="824" 
d="M421 134q35 0 64 12t49.5 37.5t32 65t11.5 94.5q0 61 -14 103.5t-36.5 69t-51.5 38.5t-59 12q-32 0 -59 -11t-47 -30.5t-31 -46.5t-11 -58q0 -29 9.5 -54.5t27.5 -44t43.5 -29.5t57.5 -11q34 0 61.5 12.5t41.5 34.5h2q0 -38 -7.5 -63.5t-20 -41t-29.5 -22t-35 -6.5
q-35 0 -60.5 16t-39.5 32h-2l-27 -57q18 -20 52 -36t78 -16zM415 507q21 0 36.5 -7.5t25 -19.5t14.5 -27.5t5 -31.5t-4 -31t-13.5 -27t-24.5 -19t-37 -7q-41 0 -62 24t-21 60q0 16 5 31.5t15 27.5t25.5 19.5t35.5 7.5zM411 712q81 0 148 -28.5t115 -78t74 -115.5t26 -141
t-25 -140.5t-71.5 -114.5t-114 -77.5t-152.5 -28.5t-152 28.5t-113.5 77.5t-71 114.5t-24.5 140.5t26 141t73 115.5t114 78t148 28.5z" />
    <glyph glyph-name="apple" unicode="&#xf8ff;" horiz-adv-x="746" 
d="M372 715q61 0 114.5 -24t93.5 -64.5t63 -93t23 -110.5v-423h-28l-65 65l-68 -65l-63 65l-71 -65l-69 65l-63 -65l-67 65l-66 -65h-26v423q0 58 23 110.5t62.5 93t93 64.5t113.5 24zM246 449q-29 0 -50 -21t-21 -51q0 -29 21 -49.5t50 -20.5q30 0 50.5 20.5t20.5 49.5
q0 30 -20.5 51t-50.5 21zM500 449q-29 0 -49.5 -21t-20.5 -51q0 -29 20.5 -49.5t49.5 -20.5t50.5 20.5t21.5 49.5q0 30 -21.5 51t-50.5 21z" />
    <glyph glyph-name="i.loclTRK" horiz-adv-x="226" 
d="M151 0h-75v560h75v-560zM115 733q28 0 43 -16t15 -42t-15 -42t-43 -16q-29 0 -44 16t-15 42t15 42t44 16z" />
    <glyph glyph-name="f.alt" horiz-adv-x="346" 
d="M234 785q42 0 74.5 -16.5t47.5 -31.5l-23 -72h-3q-11 13 -34 29t-51 16q-50 0 -50 -55v-95h112v-68h-112v-492h-75v492h-104v68h104v105q0 60 33 90t81 30z" />
    <glyph glyph-name="fdotaccent.alt" horiz-adv-x="346" 
d="M234 785q42 0 74.5 -16.5t47.5 -31.5l-23 -72h-3q-11 13 -34 29t-51 16q-50 0 -50 -55v-95h112v-68h-112v-492h-75v492h-104v68h104v105q0 60 33 90t81 30zM235 946q28 0 43 -16t15 -42t-15 -42t-43 -16q-29 0 -44 16t-15 42t15 42t44 16z" />
    <glyph glyph-name="fdotaccent.ss01" horiz-adv-x="381" 
d="M240 756q42 0 74 -16.5t46 -31.5l-21 -72h-4q-10 13 -33 29.5t-52 16.5q-50 0 -50 -59v-121h141v-68h-141v-434h-75v434h-99v68h99v134q0 60 33.5 90t81.5 30zM241 917q28 0 43 -16t15 -42t-15 -42t-43 -16q-29 0 -44 16t-15 42t15 42t44 16z" />
    <glyph glyph-name="I_J" horiz-adv-x="612" 
d="M536 230q0 -53 -14.5 -97.5t-44 -76.5t-73 -50t-100.5 -18q-75 0 -129.5 33.5t-80.5 85.5l48 61h4q25 -48 61.5 -77t96.5 -29q69 0 110.5 43t41.5 133v462h80v-470zM156 254h-80v446h80v-446z" />
    <glyph glyph-name="W_W_W" horiz-adv-x="2210" 
d="M1992 0h-109l-151 611h-2l-151 -611h-113l-151 611h-2l-151 -611h-113l-151 611h-2l-151 -611h-113l-152 611h-2l-150 -611h-110l-182 700h86l148 -611h2l151 611h114l151 -611h2l150 611h114l151 -611h2l150 611h114l151 -611h2l150 611h114l151 -611h2l149 611h85z" />
    <glyph glyph-name="i_j" horiz-adv-x="509" 
d="M435 -22q0 -91 -43.5 -133t-128.5 -42q-62 0 -102.5 24t-59.5 52l39 64h4q18 -30 46.5 -49.5t70.5 -19.5q53 0 76.5 25.5t23.5 89.5v571h74v-582zM151 31h-74v529h74v-529zM396 746q29 0 44.5 -16.5t15.5 -43.5q0 -26 -15.5 -42.5t-44.5 -16.5t-44.5 16.5t-15.5 42.5
q0 27 15.5 43.5t44.5 16.5zM113 746q29 0 44.5 -16.5t15.5 -43.5q0 -26 -15.5 -42.5t-44.5 -16.5t-44.5 16.5t-15.5 42.5q0 27 15.5 43.5t44.5 16.5z" />
    <glyph glyph-name="w_w_w" horiz-adv-x="1916" 
d="M1750 0h-105l-132 487h-2l-132 -487h-103l-132 487h-2l-132 -487h-103l-132 487h-2l-133 -487h-103l-132 487h-2l-132 -487h-105l-135 560h79l109 -481h2l131 481h105l131 -481h2l131 481h105l131 -481h2l132 481h104l132 -481h2l131 481h105l131 -481h2l108 481h79z" />
    <glyph glyph-name="f_f_i.ss01" horiz-adv-x="911" 
d="M244 756q42 0 74.5 -16.5t46.5 -31.5l-22 -72h-3q-5 6 -14 14t-20 15t-24 12t-27 5q-50 0 -50 -59v-121h116v-68h-116v-434h-75v434h-104v68h104v134q0 60 33 90t81 30zM582 756q28 0 53.5 -10t39.5 -23l-15 -71h-4q-11 11 -28.5 20.5t-34.5 9.5q-50 0 -50 -59v-121h131
v-68h-131v-434h-75v434h-99v68h99v134q0 60 33 90t81 30zM837 0h-75v560h75v-560zM799 746q29 0 44.5 -16.5t15.5 -43.5q0 -26 -15.5 -42.5t-44.5 -16.5t-44.5 16.5t-15.5 42.5q0 27 15.5 43.5t44.5 16.5z" />
    <glyph glyph-name="f_f_l.ss01" horiz-adv-x="912" 
d="M244 756q42 0 74.5 -16.5t46.5 -31.5l-22 -72h-3q-5 6 -14 14t-20 15t-24 12t-27 5q-50 0 -50 -59v-121h116v-68h-116v-434h-75v434h-104v68h104v134q0 60 33 90t81 30zM582 756q28 0 53.5 -10t39.5 -23l-15 -71h-4q-11 11 -28.5 20.5t-34.5 9.5q-50 0 -50 -59v-121h131
v-68h-131v-434h-75v434h-99v68h99v134q0 60 33 90t81 30zM837 0h-75v742h75v-742z" />
    <glyph glyph-name="fi.ss01" horiz-adv-x="591" 
d="M243 756q28 0 53.5 -10t39.5 -23l-15 -71h-4q-11 11 -28.5 20.5t-34.5 9.5q-50 0 -50 -59l1 -121h126v-68h-126l-1 -434h-75l1 434h-104v68h104l-1 134q0 60 33 90t81 30zM493 0h-75v560h75v-560zM455 746q29 0 44.5 -16.5t15.5 -43.5q0 -26 -15.5 -42.5t-44.5 -16.5
t-44.5 16.5t-15.5 42.5q0 27 15.5 43.5t44.5 16.5z" />
    <glyph glyph-name="fl.ss01" horiz-adv-x="569" 
d="M243 756q28 0 53.5 -10t39.5 -23l-15 -71h-4q-11 11 -28 20.5t-35 9.5q-50 0 -50 -59l1 -121h126v-68h-126l-1 -434h-75l1 434h-104v68h104l-1 134q0 60 33 90t81 30zM493 0h-75v743h75v-743z" />
    <glyph glyph-name="A.sc" horiz-adv-x="566" 
d="M551 0h-82l-60 163h-251l-60 -163h-82l214 560h107zM281 499l-101 -273h205l-101 273h-3z" />
    <glyph glyph-name="B.sc" horiz-adv-x="527" 
d="M300 560q87 0 132 -38.5t45 -109.5q0 -28 -9.5 -48.5t-23 -35.5t-28 -24.5t-24.5 -15.5v-1q11 -4 26.5 -13.5t29.5 -25t24 -38.5t10 -55q0 -75 -44.5 -115t-146.5 -40h-210v560h219zM156 252v-184h130q65 0 94 23t29 68t-27.5 69t-87.5 24h-138zM156 492v-175h139
q22 0 42 5.5t35 16t23.5 27t8.5 37.5q0 44 -25.5 66.5t-85.5 22.5h-137z" />
    <glyph glyph-name="C.sc" horiz-adv-x="554" 
d="M304 572q44 0 80 -13t63 -34t45.5 -47t29.5 -53l-55 -53h-3q-20 58 -58.5 95t-101.5 37q-44 0 -78 -19t-57 -50.5t-35.5 -73t-12.5 -86.5q0 -47 12 -87t35.5 -68.5t57.5 -44.5t78 -16q37 0 65.5 12.5t49 34t34 49.5t20.5 60h3l62 -48q-12 -39 -32.5 -72t-50 -56.5
t-67 -37t-83.5 -13.5q-63 0 -111 21t-81 59.5t-50 91t-17 115.5t19.5 117t54 94t81.5 63t103 23z" />
    <glyph glyph-name="D.sc" horiz-adv-x="579" 
d="M264 560q139 0 204 -66.5t65 -211.5q0 -146 -70.5 -214t-204.5 -68h-173v560h179zM160 492v-424h101q104 0 149 55t46 159q0 52 -9 91t-31 65.5t-59 40t-93 13.5h-104z" />
    <glyph glyph-name="E.sc" horiz-adv-x="480" 
d="M420 492h-264v-178h264v-65h-264v-181h264v-68h-339v560h339v-68z" />
    <glyph glyph-name="F.sc" horiz-adv-x="491" 
d="M441 492h-286v-182h283v-66h-283v-244h-74v560h360v-68z" />
    <glyph glyph-name="G.sc" horiz-adv-x="578" 
d="M304 572q44 0 80 -13.5t63.5 -34t46 -45.5t28.5 -48l-52 -55h-3q-20 55 -60.5 91.5t-102.5 36.5q-44 0 -78 -19t-57 -50.5t-35.5 -73t-12.5 -86.5q0 -47 12 -87t35.5 -68.5t57.5 -44.5t78 -16q57 0 95 25.5t60 60.5v49h-120v65h192v-259h-55l-11 64h-2
q-8 -14 -23.5 -27.5t-36.5 -24t-46 -17.5t-53 -7q-62 0 -110 21.5t-81 60t-50 91t-17 114.5q0 61 19.5 115.5t54 94.5t81.5 63.5t103 23.5z" />
    <glyph glyph-name="H.sc" horiz-adv-x="582" 
d="M502 0h-75v248h-271v-248h-75v560h75v-246h271v246h75v-560z" />
    <glyph glyph-name="I.sc" horiz-adv-x="236" 
d="M156 0h-75v560h75v-560z" />
    <glyph glyph-name="J.sc" horiz-adv-x="410" 
d="M340 165q0 -39 -10.5 -71.5t-31 -56t-51.5 -36.5t-72 -13q-35 0 -61.5 10.5t-46.5 26t-33.5 35t-22.5 37.5l46 61h4q8 -18 18.5 -35.5t24 -31.5t31 -23t38.5 -9q44 0 68 29t24 92v380h75v-395z" />
    <glyph glyph-name="K.sc" horiz-adv-x="515" 
d="M232 289l273 -289h-99l-249 266h-1v-266h-75v560h75v-258h1l239 258h95z" />
    <glyph glyph-name="L.sc" horiz-adv-x="396" 
d="M156 68h220v-68h-295v560h75v-492z" />
    <glyph glyph-name="M.sc" horiz-adv-x="740" 
d="M660 0h-71v498h-2l-178 -498h-77l-178 498h-2v-498h-71v560h125l163 -463h3l163 463h125v-560z" />
    <glyph glyph-name="N.sc" horiz-adv-x="610" 
d="M530 0h-124l-249 498h-2v-498h-74v560h123l250 -498h2v498h74v-560z" />
    <glyph glyph-name="O.sc" horiz-adv-x="607" 
d="M304 572q56 0 103.5 -23.5t82 -63.5t53.5 -94.5t19 -115.5q0 -62 -16.5 -115t-49 -91t-80.5 -59.5t-111 -21.5t-111 21.5t-81 60t-50 91t-17 114.5q0 61 19.5 115.5t54 94.5t81.5 63.5t103 23.5zM304 504q-44 0 -78 -19t-57 -50.5t-35.5 -73t-12.5 -86.5q0 -47 12 -87
t35.5 -68.5t58 -44.5t78.5 -16t78 16t57 44.5t35 68.5t12 87q0 46 -12 87.5t-35.5 73t-57.5 50t-78 18.5z" />
    <glyph glyph-name="P.sc" horiz-adv-x="511" 
d="M299 560q41 0 74.5 -9.5t57.5 -29.5t37 -50.5t13 -73.5q0 -44 -14.5 -75.5t-40 -51.5t-60 -30t-74.5 -10h-136v-230h-75v560h218zM156 492v-194h123q63 0 95 24t32 75q0 49 -25.5 72t-86.5 23h-138z" />
    <glyph glyph-name="Q.sc" horiz-adv-x="600" 
d="M304 572q56 0 103.5 -23.5t82 -63.5t53.5 -94.5t19 -115.5q0 -113 -55 -189l68 -82v-4h-79l-33 40q-31 -25 -70.5 -38.5t-87.5 -13.5q-63 0 -111 21.5t-81 60t-50 91t-17 114.5q0 61 19.5 115.5t54 94.5t81.5 63.5t103 23.5zM304 504q-44 0 -78 -19t-57 -50.5t-35.5 -73
t-12.5 -86.5q0 -47 12 -87t35.5 -68.5t58 -44.5t78.5 -16q35 0 63 10t49 28l-140 173l49 41l131 -164q30 52 30 128q0 46 -12 87.5t-35.5 73t-57.5 50t-78 18.5z" />
    <glyph glyph-name="R.sc" horiz-adv-x="538" 
d="M297 560q97 0 141.5 -40.5t44.5 -111.5q0 -74 -48 -114.5t-136 -42.5l175 -251h-93l-168 251h-56v-251h-76v560h216zM156 492v-175h124q64 0 96 21.5t32 69.5q0 47 -27 65.5t-85 18.5h-140z" />
    <glyph glyph-name="S.sc" horiz-adv-x="506" 
d="M234 572q42 0 76.5 -10.5t61.5 -27t46 -36t30 -36.5l-41 -63h-4q-26 42 -68 73.5t-102 31.5q-29 0 -49.5 -8t-33.5 -20t-19 -27t-6 -29q0 -15 5 -28t21 -25.5t46.5 -25t81.5 -25.5q100 -26 143.5 -65.5t43.5 -107.5q0 -35 -14.5 -63.5t-40.5 -48.5t-62 -31.5t-78 -11.5
t-80 11t-69 28.5t-54.5 40t-36.5 45.5l43 65h3q31 -51 78.5 -85.5t112.5 -34.5t94.5 26t29.5 59q0 18 -5 33t-22.5 29t-50 27t-86.5 27q-95 24 -136 61t-41 99q0 29 12 56.5t35 49t57 34.5t79 13z" />
    <glyph glyph-name="T.sc" horiz-adv-x="444" 
d="M424 492h-166v-492h-73v492h-164v68h403v-68z" />
    <glyph glyph-name="U.sc" horiz-adv-x="576" 
d="M505 207q0 -45 -13 -85t-39 -69.5t-67 -47t-96 -17.5q-56 0 -97 17.5t-68 47t-40.5 69.5t-13.5 85v353h75v-338q0 -75 36 -118.5t108 -43.5t106 43.5t34 118.5v338h75v-353z" />
    <glyph glyph-name="V.sc" horiz-adv-x="526" 
d="M316 0h-105l-195 560h79l167 -490h2l168 490h79z" />
    <glyph glyph-name="W.sc" horiz-adv-x="808" 
d="M642 0h-105l-132 487h-2l-132 -487h-105l-135 560h79l109 -481h2l131 481h105l131 -481h2l108 481h79z" />
    <glyph glyph-name="X.sc" horiz-adv-x="467" 
d="M286 284l164 -284h-87l-130 236l-130 -236h-87l165 283l-162 277h87l127 -230l132 230h87z" />
    <glyph glyph-name="Y.sc" horiz-adv-x="462" 
d="M269 212v-212h-75v212l-183 348h84l135 -273h3l135 273h84z" />
    <glyph glyph-name="Z.sc" horiz-adv-x="444" 
d="M413 485l-301 -417h302v-68h-383v77l300 415h-300v68h382v-75z" />
    <glyph glyph-name="AE.sc" horiz-adv-x="713" 
d="M653 493h-215v-175h215v-65h-215v-186h215v-67h-286v163h-203l-84 -163h-79l295 560h357v-67zM336 497l-139 -271h169v271h-30z" />
    <glyph glyph-name="Aacute.sc" horiz-adv-x="566" 
d="M551 0h-82l-60 163h-251l-60 -163h-82l214 560h107zM281 499l-101 -273h205l-101 273h-3zM328 625h-89l62 106h128z" />
    <glyph glyph-name="Acircumflex.sc" horiz-adv-x="566" 
d="M551 0h-82l-60 163h-251l-60 -163h-82l214 560h107zM281 499l-101 -273h205l-101 273h-3zM424 625h-92l-47 72h-3l-47 -72h-92l78 105h125z" />
    <glyph glyph-name="Atilde.sc" horiz-adv-x="566" 
d="M551 0h-82l-60 163h-251l-60 -163h-82l214 560h107zM281 499l-101 -273h205l-101 273h-3zM233 727q20 0 35 -5.5t27.5 -12l23.5 -12t23 -5.5q16 0 23 8t11 22h48q-9 -46 -28 -73.5t-62 -27.5q-20 0 -35 5.5t-27.5 12l-23.5 12t-24 5.5q-26 0 -34 -31h-47q8 46 28 74
t62 28z" />
    <glyph glyph-name="Aringacute.sc" horiz-adv-x="566" 
d="M551 0h-82l-60 163h-251l-60 -163h-82l214 560h107zM281 499l-101 -273h205l-101 273h-3zM284 800q22 0 40.5 -8t32 -21.5t21 -32t7.5 -39.5t-7.5 -39.5t-21 -32t-32 -21.5t-40.5 -8t-40.5 8t-32 21.5t-21 32t-7.5 39.5t7.5 39.5t21 32t32 21.5t40.5 8zM283 747
q-21 0 -33.5 -14t-12.5 -34t12.5 -34t33.5 -14q22 0 34.5 14t12.5 34t-12.5 34t-34.5 14zM328 820h-89l62 106h128z" />
    <glyph glyph-name="Agrave.sc" horiz-adv-x="566" 
d="M551 0h-82l-60 163h-251l-60 -163h-82l214 560h107zM281 499l-101 -273h205l-101 273h-3zM318 625h-89l-101 106h128z" />
    <glyph glyph-name="Adieresis.sc" horiz-adv-x="566" 
d="M551 0h-82l-60 163h-251l-60 -163h-82l214 560h107zM281 499l-101 -273h205l-101 273h-3zM381 730q26 0 40.5 -14.5t14.5 -40.5t-14.5 -41t-40.5 -15q-28 0 -42.5 15t-14.5 41t14.5 40.5t42.5 14.5zM185 730q27 0 42 -15t15 -41q0 -25 -15 -40t-42 -15q-26 0 -40.5 15
t-14.5 40q0 26 14.5 41t40.5 15z" />
    <glyph glyph-name="Aring.sc" horiz-adv-x="566" 
d="M551 0h-82l-60 163h-251l-60 -163h-82l214 560h107zM281 499l-101 -273h205l-101 273h-3zM284 800q22 0 40.5 -8t32 -21.5t21 -32t7.5 -39.5t-7.5 -39.5t-21 -32t-32 -21.5t-40.5 -8t-40.5 8t-32 21.5t-21 32t-7.5 39.5t7.5 39.5t21 32t32 21.5t40.5 8zM283 747
q-21 0 -33.5 -14t-12.5 -34t12.5 -34t33.5 -14q22 0 34.5 14t12.5 34t-12.5 34t-34.5 14z" />
    <glyph glyph-name="Abreve.sc" horiz-adv-x="566" 
d="M551 0h-82l-60 163h-251l-60 -163h-82l214 560h107zM281 499l-101 -273h205l-101 273h-3zM408 750q0 -60 -33.5 -95.5t-90.5 -35.5t-90.5 35.5t-33.5 95.5h44q11 -58 80 -58q33 0 54 15t26 43h44z" />
    <glyph glyph-name="Amacron.sc" horiz-adv-x="566" 
d="M551 0h-82l-60 163h-251l-60 -163h-82l214 560h107zM281 499l-101 -273h205l-101 273h-3zM425 625h-283v66h283v-66z" />
    <glyph glyph-name="Aogonek.sc" horiz-adv-x="566" 
d="M551 0h-82l-60 163h-251l-60 -163h-82l214 560h107zM281 499l-101 -273h205l-101 273h-3zM533 0q-25 -14 -44 -42t-19 -60q0 -20 10 -32.5t35 -12.5q18 0 36 11t28 29h4l27 -38q-16 -28 -45 -48t-68 -20q-27 0 -46 7.5t-31 19.5t-17.5 27.5t-5.5 32.5q0 35 20 70t52 56
h64z" />
    <glyph glyph-name="Ccedilla.sc" horiz-adv-x="554" 
d="M304 572q44 0 80 -13t63 -34t45.5 -47t29.5 -53l-55 -53h-3q-20 58 -58.5 95t-101.5 37q-44 0 -78 -19t-57 -50.5t-35.5 -73t-12.5 -86.5q0 -47 12 -87t35.5 -68.5t57.5 -44.5t78 -16q37 0 65.5 12.5t49 34t34 49.5t20.5 60h3l62 -48q-12 -39 -32.5 -72t-50 -56.5
t-67 -37t-83.5 -13.5q-63 0 -111 21t-81 59.5t-50 91t-17 115.5t19.5 117t54 94t81.5 63t103 23zM268 -75l1 -1q11 6 26.5 10t33.5 4q17 0 33 -4.5t29 -14.5t20.5 -26t7.5 -39q0 -46 -31.5 -69t-82.5 -23q-35 0 -59.5 9t-40.5 20l17 54h3q13 -11 31.5 -19.5t39.5 -8.5
q24 0 38.5 10t14.5 28q0 38 -52 38q-31 0 -53 -14l-31 23l56 98h46z" />
    <glyph glyph-name="Cacute.sc" horiz-adv-x="554" 
d="M304 572q44 0 80 -13t63 -34t45.5 -47t29.5 -53l-55 -53h-3q-20 58 -58.5 95t-101.5 37q-44 0 -78 -19t-57 -50.5t-35.5 -73t-12.5 -86.5q0 -47 12 -87t35.5 -68.5t57.5 -44.5t78 -16q37 0 65.5 12.5t49 34t34 49.5t20.5 60h3l62 -48q-12 -39 -32.5 -72t-50 -56.5
t-67 -37t-83.5 -13.5q-63 0 -111 21t-81 59.5t-50 91t-17 115.5t19.5 117t54 94t81.5 63t103 23zM340 625h-89l62 106h128z" />
    <glyph glyph-name="Ccaron.sc" horiz-adv-x="554" 
d="M304 572q44 0 80 -13t63 -34t45.5 -47t29.5 -53l-55 -53h-3q-20 58 -58.5 95t-101.5 37q-44 0 -78 -19t-57 -50.5t-35.5 -73t-12.5 -86.5q0 -47 12 -87t35.5 -68.5t57.5 -44.5t78 -16q37 0 65.5 12.5t49 34t34 49.5t20.5 60h3l62 -48q-12 -39 -32.5 -72t-50 -56.5
t-67 -37t-83.5 -13.5q-63 0 -111 21t-81 59.5t-50 91t-17 115.5t19.5 117t54 94t81.5 63t103 23zM358 625h-125l-78 105h92l47 -73h3l47 73h92z" />
    <glyph glyph-name="Ccircumflex.sc" horiz-adv-x="554" 
d="M304 572q44 0 80 -13t63 -34t45.5 -47t29.5 -53l-55 -53h-3q-20 58 -58.5 95t-101.5 37q-44 0 -78 -19t-57 -50.5t-35.5 -73t-12.5 -86.5q0 -47 12 -87t35.5 -68.5t57.5 -44.5t78 -16q37 0 65.5 12.5t49 34t34 49.5t20.5 60h3l62 -48q-12 -39 -32.5 -72t-50 -56.5
t-67 -37t-83.5 -13.5q-63 0 -111 21t-81 59.5t-50 91t-17 115.5t19.5 117t54 94t81.5 63t103 23zM436 625h-92l-47 72h-3l-47 -72h-92l78 105h125z" />
    <glyph glyph-name="Cdotaccent.sc" horiz-adv-x="554" 
d="M304 572q44 0 80 -13t63 -34t45.5 -47t29.5 -53l-55 -53h-3q-20 58 -58.5 95t-101.5 37q-44 0 -78 -19t-57 -50.5t-35.5 -73t-12.5 -86.5q0 -47 12 -87t35.5 -68.5t57.5 -44.5t78 -16q37 0 65.5 12.5t49 34t34 49.5t20.5 60h3l62 -48q-12 -39 -32.5 -72t-50 -56.5
t-67 -37t-83.5 -13.5q-63 0 -111 21t-81 59.5t-50 91t-17 115.5t19.5 117t54 94t81.5 63t103 23zM295 731q27 0 41.5 -15t14.5 -41t-14.5 -41t-41.5 -15t-41.5 15t-14.5 41t14.5 41t41.5 15z" />
    <glyph glyph-name="Eth.sc" horiz-adv-x="576" 
d="M257 560q139 0 204 -66t65 -212t-70.5 -214t-204.5 -68h-173v255h-62v63h62v242h179zM152 492v-174h163v-63h-163v-187h101q104 0 148.5 55t45.5 159q0 52 -9 91t-30.5 65.5t-58.5 40t-93 13.5h-104z" />
    <glyph glyph-name="Dcroat.sc" horiz-adv-x="576" 
d="M257 560q139 0 204 -66t65 -212t-70.5 -214t-204.5 -68h-173v255h-62v63h62v242h179zM152 492v-174h163v-63h-163v-187h101q104 0 148.5 55t45.5 159q0 52 -9 91t-30.5 65.5t-58.5 40t-93 13.5h-104z" />
    <glyph glyph-name="Dcaron.sc" horiz-adv-x="579" 
d="M264 560q139 0 204 -66.5t65 -211.5q0 -146 -70.5 -214t-204.5 -68h-173v560h179zM160 492v-424h101q104 0 149 55t46 159q0 52 -9 91t-31 65.5t-59 40t-93 13.5h-104zM323 625h-125l-78 105h92l47 -73h3l47 73h92z" />
    <glyph glyph-name="Eacute.sc" horiz-adv-x="480" 
d="M420 492h-264v-178h264v-65h-264v-181h264v-68h-339v560h339v-68zM297 625h-89l62 106h128z" />
    <glyph glyph-name="Edotaccent.sc" horiz-adv-x="480" 
d="M420 492h-264v-178h264v-65h-264v-181h264v-68h-339v560h339v-68zM252 731q27 0 41.5 -15t14.5 -41t-14.5 -41t-41.5 -15t-41.5 15t-14.5 41t14.5 41t41.5 15z" />
    <glyph glyph-name="Egrave.sc" horiz-adv-x="480" 
d="M420 492h-264v-178h264v-65h-264v-181h264v-68h-339v560h339v-68zM287 625h-89l-101 106h128z" />
    <glyph glyph-name="Ecircumflex.sc" horiz-adv-x="480" 
d="M420 492h-264v-178h264v-65h-264v-181h264v-68h-339v560h339v-68zM393 625h-92l-47 72h-3l-47 -72h-92l78 105h125z" />
    <glyph glyph-name="Ecaron.sc" horiz-adv-x="480" 
d="M420 492h-264v-178h264v-65h-264v-181h264v-68h-339v560h339v-68zM315 625h-125l-78 105h92l47 -73h3l47 73h92z" />
    <glyph glyph-name="Emacron.sc" horiz-adv-x="480" 
d="M420 492h-264v-178h264v-65h-264v-181h264v-68h-339v560h339v-68zM394 625h-283v66h283v-66z" />
    <glyph glyph-name="Edieresis.sc" horiz-adv-x="480" 
d="M420 492h-264v-178h264v-65h-264v-181h264v-68h-339v560h339v-68zM350 730q26 0 40.5 -14.5t14.5 -40.5t-14.5 -41t-40.5 -15q-28 0 -42.5 15t-14.5 41t14.5 40.5t42.5 14.5zM154 730q27 0 42 -15t15 -41q0 -25 -15 -40t-42 -15q-26 0 -40.5 15t-14.5 40q0 26 14.5 41
t40.5 15z" />
    <glyph glyph-name="Eogonek.sc" horiz-adv-x="480" 
d="M420 492h-264v-178h264v-65h-264v-181h264v-68h-339v560h339v-68zM359 0q-25 -14 -44 -42t-19 -60q0 -20 10 -32.5t35 -12.5q18 0 36 11t28 29h4l27 -38q-16 -28 -45 -48t-68 -20q-27 0 -46 7.5t-31 19.5t-17.5 27.5t-5.5 32.5q0 35 20 70t52 56h64z" />
    <glyph glyph-name="Ebreve.sc" horiz-adv-x="480" 
d="M420 492h-264v-178h264v-65h-264v-181h264v-68h-339v560h339v-68zM377 750q0 -60 -33.5 -95.5t-90.5 -35.5t-90.5 35.5t-33.5 95.5h44q11 -58 80 -58q33 0 54 15t26 43h44z" />
    <glyph glyph-name="Gcircumflex.sc" horiz-adv-x="578" 
d="M304 572q44 0 80 -13.5t63.5 -34t46 -45.5t28.5 -48l-52 -55h-3q-20 55 -60.5 91.5t-102.5 36.5q-44 0 -78 -19t-57 -50.5t-35.5 -73t-12.5 -86.5q0 -47 12 -87t35.5 -68.5t57.5 -44.5t78 -16q57 0 95 25.5t60 60.5v49h-120v65h192v-259h-55l-11 64h-2
q-8 -14 -23.5 -27.5t-36.5 -24t-46 -17.5t-53 -7q-62 0 -110 21.5t-81 60t-50 91t-17 114.5q0 61 19.5 115.5t54 94.5t81.5 63.5t103 23.5zM445 625h-92l-47 72h-3l-47 -72h-92l78 105h125z" />
    <glyph glyph-name="Gcommaaccent.sc" horiz-adv-x="578" 
d="M304 572q44 0 80 -13.5t63.5 -34t46 -45.5t28.5 -48l-52 -55h-3q-20 55 -60.5 91.5t-102.5 36.5q-44 0 -78 -19t-57 -50.5t-35.5 -73t-12.5 -86.5q0 -47 12 -87t35.5 -68.5t57.5 -44.5t78 -16q57 0 95 25.5t60 60.5v49h-120v65h192v-259h-55l-11 64h-2
q-8 -14 -23.5 -27.5t-36.5 -24t-46 -17.5t-53 -7q-62 0 -110 21.5t-81 60t-50 91t-17 114.5q0 61 19.5 115.5t54 94.5t81.5 63.5t103 23.5zM296 -55q28 0 44.5 -19t16.5 -49q0 -33 -17.5 -65.5t-37.5 -53.5h-37v3q11 16 20.5 35t9.5 40q-29 0 -42.5 14.5t-13.5 37.5
q0 26 14.5 41.5t42.5 15.5z" />
    <glyph glyph-name="Gdotaccent.sc" horiz-adv-x="578" 
d="M304 572q44 0 80 -13.5t63.5 -34t46 -45.5t28.5 -48l-52 -55h-3q-20 55 -60.5 91.5t-102.5 36.5q-44 0 -78 -19t-57 -50.5t-35.5 -73t-12.5 -86.5q0 -47 12 -87t35.5 -68.5t57.5 -44.5t78 -16q57 0 95 25.5t60 60.5v49h-120v65h192v-259h-55l-11 64h-2
q-8 -14 -23.5 -27.5t-36.5 -24t-46 -17.5t-53 -7q-62 0 -110 21.5t-81 60t-50 91t-17 114.5q0 61 19.5 115.5t54 94.5t81.5 63.5t103 23.5zM304 731q27 0 41.5 -15t14.5 -41t-14.5 -41t-41.5 -15t-41.5 15t-14.5 41t14.5 41t41.5 15z" />
    <glyph glyph-name="Gbreve.sc" horiz-adv-x="578" 
d="M304 572q44 0 80 -13.5t63.5 -34t46 -45.5t28.5 -48l-52 -55h-3q-20 55 -60.5 91.5t-102.5 36.5q-44 0 -78 -19t-57 -50.5t-35.5 -73t-12.5 -86.5q0 -47 12 -87t35.5 -68.5t57.5 -44.5t78 -16q57 0 95 25.5t60 60.5v49h-120v65h192v-259h-55l-11 64h-2
q-8 -14 -23.5 -27.5t-36.5 -24t-46 -17.5t-53 -7q-62 0 -110 21.5t-81 60t-50 91t-17 114.5q0 61 19.5 115.5t54 94.5t81.5 63.5t103 23.5zM429 750q0 -60 -33.5 -95.5t-90.5 -35.5t-90.5 35.5t-33.5 95.5h44q11 -58 80 -58q33 0 54 15t26 43h44z" />
    <glyph glyph-name="Hbar.sc" horiz-adv-x="608" 
d="M515 457h78v-60h-78v-397h-75v244h-271v-244h-75v397h-78v60h78v103h75v-103h271v103h75v-103zM168 397v-87h271v87h-271z" />
    <glyph glyph-name="Hcircumflex.sc" horiz-adv-x="582" 
d="M502 0h-75v248h-271v-248h-75v560h75v-246h271v246h75v-560zM432 625h-92l-47 72h-3l-47 -72h-92l78 105h125z" />
    <glyph glyph-name="Ibreve.sc" horiz-adv-x="236" 
d="M156 0h-75v560h75v-560zM244 750q0 -60 -33.5 -95.5t-90.5 -35.5t-90.5 35.5t-33.5 95.5h44q11 -58 80 -58q33 0 54 15t26 43h44z" />
    <glyph glyph-name="Iogonek.sc" horiz-adv-x="236" 
d="M156 0h-75v560h75v-560zM147 0q-25 -14 -44 -42t-19 -60q0 -20 10 -32.5t35 -12.5q18 0 36 11t28 29h4l27 -38q-16 -28 -45 -48t-68 -20q-27 0 -46 7.5t-31 19.5t-17.5 27.5t-5.5 32.5q0 35 20 70t52 56h64z" />
    <glyph glyph-name="Itilde.sc" horiz-adv-x="236" 
d="M156 0h-75v560h75v-560zM69 727q20 0 35 -5.5t27.5 -12l23.5 -12t23 -5.5q16 0 23 8t11 22h48q-9 -46 -28 -73.5t-62 -27.5q-20 0 -35 5.5t-27.5 12l-23.5 12t-24 5.5q-26 0 -34 -31h-47q8 46 28 74t62 28z" />
    <glyph glyph-name="Idotaccent.sc" horiz-adv-x="236" 
d="M156 0h-75v560h75v-560zM118 731q27 0 41.5 -15t14.5 -41t-14.5 -41t-41.5 -15t-41.5 15t-14.5 41t14.5 41t41.5 15z" />
    <glyph glyph-name="Iacute.sc" horiz-adv-x="236" 
d="M156 0h-75v560h75v-560zM163 625h-89l62 106h128z" />
    <glyph glyph-name="Icircumflex.sc" horiz-adv-x="236" 
d="M156 0h-75v560h75v-560zM260 625h-92l-47 72h-3l-47 -72h-92l78 105h125z" />
    <glyph glyph-name="Idieresis.sc" horiz-adv-x="236" 
d="M156 0h-75v560h75v-560zM217 730q26 0 40.5 -14.5t14.5 -40.5t-14.5 -41t-40.5 -15q-28 0 -42.5 15t-14.5 41t14.5 40.5t42.5 14.5zM21 730q27 0 42 -15t15 -41q0 -25 -15 -40t-42 -15q-26 0 -40.5 15t-14.5 40q0 26 14.5 41t40.5 15z" />
    <glyph glyph-name="Igrave.sc" horiz-adv-x="236" 
d="M156 0h-75v560h75v-560zM154 625h-89l-101 106h128z" />
    <glyph glyph-name="Imacron.sc" horiz-adv-x="236" 
d="M156 0h-75v560h75v-560zM261 625h-283v66h283v-66z" />
    <glyph glyph-name="Jcircumflex.sc" horiz-adv-x="410" 
d="M340 165q0 -39 -10.5 -71.5t-31 -56t-51.5 -36.5t-72 -13q-35 0 -61.5 10.5t-46.5 26t-33.5 35t-22.5 37.5l46 61h4q8 -18 18.5 -35.5t24 -31.5t31 -23t38.5 -9q44 0 68 29t24 92v380h75v-395zM443 625h-92l-47 72h-3l-47 -72h-92l78 105h125z" />
    <glyph glyph-name="Kcommaaccent.sc" horiz-adv-x="515" 
d="M232 289l273 -289h-99l-249 266h-1v-266h-75v560h75v-258h1l239 258h95zM266 -55q28 0 44.5 -19t16.5 -49q0 -33 -17.5 -65.5t-37.5 -53.5h-37v3q11 16 20.5 35t9.5 40q-29 0 -42.5 14.5t-13.5 37.5q0 26 14.5 41.5t42.5 15.5z" />
    <glyph glyph-name="Lcommaaccent.sc" horiz-adv-x="396" 
d="M156 68h220v-68h-295v560h75v-492zM214 -55q28 0 44.5 -19t16.5 -49q0 -33 -17.5 -65.5t-37.5 -53.5h-37v3q11 16 20.5 35t9.5 40q-29 0 -42.5 14.5t-13.5 37.5q0 26 14.5 41.5t42.5 15.5z" />
    <glyph glyph-name="Lslash.sc" horiz-adv-x="421" 
d="M181 345l132 76l31 -54l-163 -92v-207h220v-68h-295v236l-65 -38l-30 54l95 54v254h75v-215z" />
    <glyph glyph-name="Ldot.sc" horiz-adv-x="396" 
d="M156 68h220v-68h-295v560h75v-492zM309 375q27 0 44 -18t17 -44t-17 -43t-44 -17q-26 0 -43.5 17t-17.5 43t17.5 44t43.5 18z" />
    <glyph glyph-name="Lcaron.sc" horiz-adv-x="396" 
d="M156 68h220v-68h-295v560h75v-492zM319 566q26 0 41.5 -18t15.5 -47q0 -33 -17 -66.5t-36 -53.5h-36v2q9 16 19.5 37t10.5 41h-8q-20 0 -33 14.5t-13 36.5q0 24 15 39t41 15z" />
    <glyph glyph-name="Lacute.sc" horiz-adv-x="396" 
d="M156 68h220v-68h-295v560h75v-492zM168 625h-89l62 106h128z" />
    <glyph glyph-name="Eng.sc" horiz-adv-x="608" 
d="M530 -53q0 -31 -8.5 -52.5t-22.5 -35t-32.5 -19.5t-38.5 -6q-21 0 -42 5t-35 13l11 72h1q11 -6 24.5 -10.5t27.5 -4.5q18 0 29 9.5t11 34.5v47h-41l-256 502h-2v-502h-75v560h124l249 -486h1v486h75v-613z" />
    <glyph glyph-name="Ncaron.sc" horiz-adv-x="610" 
d="M530 0h-124l-249 498h-2v-498h-74v560h123l250 -498h2v498h74v-560zM370 625h-125l-78 105h92l47 -73h3l47 73h92z" />
    <glyph glyph-name="Nacute.sc" horiz-adv-x="610" 
d="M530 0h-124l-249 498h-2v-498h-74v560h123l250 -498h2v498h74v-560zM352 625h-89l62 106h128z" />
    <glyph glyph-name="Ntilde.sc" horiz-adv-x="610" 
d="M530 0h-124l-249 498h-2v-498h-74v560h123l250 -498h2v498h74v-560zM257 727q20 0 35 -5.5t27.5 -12l23.5 -12t23 -5.5q16 0 23 8t11 22h48q-9 -46 -28 -73.5t-62 -27.5q-20 0 -35 5.5t-27.5 12l-23.5 12t-24 5.5q-26 0 -34 -31h-47q8 46 28 74t62 28z" />
    <glyph glyph-name="Ncommaaccent.sc" horiz-adv-x="610" 
d="M530 0h-124l-249 498h-2v-498h-74v560h123l250 -498h2v498h74v-560zM306 -55q28 0 44.5 -19t16.5 -49q0 -33 -17.5 -65.5t-37.5 -53.5h-37v3q11 16 20.5 35t9.5 40q-29 0 -42.5 14.5t-13.5 37.5q0 26 14.5 41.5t42.5 15.5z" />
    <glyph glyph-name="Oacute.sc" horiz-adv-x="607" 
d="M304 572q56 0 103.5 -23.5t82 -63.5t53.5 -94.5t19 -115.5q0 -62 -16.5 -115t-49 -91t-80.5 -59.5t-111 -21.5t-111 21.5t-81 60t-50 91t-17 114.5q0 61 19.5 115.5t54 94.5t81.5 63.5t103 23.5zM304 504q-44 0 -78 -19t-57 -50.5t-35.5 -73t-12.5 -86.5q0 -47 12 -87
t35.5 -68.5t58 -44.5t78.5 -16t78 16t57 44.5t35 68.5t12 87q0 46 -12 87.5t-35.5 73t-57.5 50t-78 18.5zM349 625h-89l62 106h128z" />
    <glyph glyph-name="OE.sc" horiz-adv-x="702" 
d="M302 572q41 0 79 -12h261v-68h-216v-178h216v-67h-216v-179h216v-68h-260q-38 -12 -80 -12q-60 0 -107.5 22t-80.5 61t-50.5 92.5t-17.5 116.5t18 116.5t51.5 92.5t80.5 61t106 22zM303 503q-45 0 -80 -17.5t-58 -47.5t-35 -70.5t-12 -87.5t12 -87t35 -69.5t58 -46.5
t80 -17q14 0 28 1.5t24 6.5v426q-10 5 -24 7t-28 2z" />
    <glyph glyph-name="Ocircumflex.sc" horiz-adv-x="607" 
d="M304 572q56 0 103.5 -23.5t82 -63.5t53.5 -94.5t19 -115.5q0 -62 -16.5 -115t-49 -91t-80.5 -59.5t-111 -21.5t-111 21.5t-81 60t-50 91t-17 114.5q0 61 19.5 115.5t54 94.5t81.5 63.5t103 23.5zM304 504q-44 0 -78 -19t-57 -50.5t-35.5 -73t-12.5 -86.5q0 -47 12 -87
t35.5 -68.5t58 -44.5t78.5 -16t78 16t57 44.5t35 68.5t12 87q0 46 -12 87.5t-35.5 73t-57.5 50t-78 18.5zM445 625h-92l-47 72h-3l-47 -72h-92l78 105h125z" />
    <glyph glyph-name="Obreve.sc" horiz-adv-x="607" 
d="M304 572q56 0 103.5 -23.5t82 -63.5t53.5 -94.5t19 -115.5q0 -62 -16.5 -115t-49 -91t-80.5 -59.5t-111 -21.5t-111 21.5t-81 60t-50 91t-17 114.5q0 61 19.5 115.5t54 94.5t81.5 63.5t103 23.5zM304 504q-44 0 -78 -19t-57 -50.5t-35.5 -73t-12.5 -86.5q0 -47 12 -87
t35.5 -68.5t58 -44.5t78.5 -16t78 16t57 44.5t35 68.5t12 87q0 46 -12 87.5t-35.5 73t-57.5 50t-78 18.5zM429 750q0 -60 -33.5 -95.5t-90.5 -35.5t-90.5 35.5t-33.5 95.5h44q11 -58 80 -58q33 0 54 15t26 43h44z" />
    <glyph glyph-name="Ohungarumlaut.sc" horiz-adv-x="607" 
d="M304 572q56 0 103.5 -23.5t82 -63.5t53.5 -94.5t19 -115.5q0 -62 -16.5 -115t-49 -91t-80.5 -59.5t-111 -21.5t-111 21.5t-81 60t-50 91t-17 114.5q0 61 19.5 115.5t54 94.5t81.5 63.5t103 23.5zM304 504q-44 0 -78 -19t-57 -50.5t-35.5 -73t-12.5 -86.5q0 -47 12 -87
t35.5 -68.5t58 -44.5t78.5 -16t78 16t57 44.5t35 68.5t12 87q0 46 -12 87.5t-35.5 73t-57.5 50t-78 18.5zM421 625h-85l69 105h119zM250 625h-85l69 105h119z" />
    <glyph glyph-name="Omacron.sc" horiz-adv-x="607" 
d="M304 572q56 0 103.5 -23.5t82 -63.5t53.5 -94.5t19 -115.5q0 -62 -16.5 -115t-49 -91t-80.5 -59.5t-111 -21.5t-111 21.5t-81 60t-50 91t-17 114.5q0 61 19.5 115.5t54 94.5t81.5 63.5t103 23.5zM304 504q-44 0 -78 -19t-57 -50.5t-35.5 -73t-12.5 -86.5q0 -47 12 -87
t35.5 -68.5t58 -44.5t78.5 -16t78 16t57 44.5t35 68.5t12 87q0 46 -12 87.5t-35.5 73t-57.5 50t-78 18.5zM446 625h-283v66h283v-66z" />
    <glyph glyph-name="Ograve.sc" horiz-adv-x="607" 
d="M304 572q56 0 103.5 -23.5t82 -63.5t53.5 -94.5t19 -115.5q0 -62 -16.5 -115t-49 -91t-80.5 -59.5t-111 -21.5t-111 21.5t-81 60t-50 91t-17 114.5q0 61 19.5 115.5t54 94.5t81.5 63.5t103 23.5zM304 504q-44 0 -78 -19t-57 -50.5t-35.5 -73t-12.5 -86.5q0 -47 12 -87
t35.5 -68.5t58 -44.5t78.5 -16t78 16t57 44.5t35 68.5t12 87q0 46 -12 87.5t-35.5 73t-57.5 50t-78 18.5zM339 625h-89l-101 106h128z" />
    <glyph glyph-name="Otilde.sc" horiz-adv-x="607" 
d="M304 572q56 0 103.5 -23.5t82 -63.5t53.5 -94.5t19 -115.5q0 -62 -16.5 -115t-49 -91t-80.5 -59.5t-111 -21.5t-111 21.5t-81 60t-50 91t-17 114.5q0 61 19.5 115.5t54 94.5t81.5 63.5t103 23.5zM304 504q-44 0 -78 -19t-57 -50.5t-35.5 -73t-12.5 -86.5q0 -47 12 -87
t35.5 -68.5t58 -44.5t78.5 -16t78 16t57 44.5t35 68.5t12 87q0 46 -12 87.5t-35.5 73t-57.5 50t-78 18.5zM254 727q20 0 35 -5.5t27.5 -12l23.5 -12t23 -5.5q16 0 23 8t11 22h48q-9 -46 -28 -73.5t-62 -27.5q-20 0 -35 5.5t-27.5 12l-23.5 12t-24 5.5q-26 0 -34 -31h-47
q8 46 28 74t62 28z" />
    <glyph glyph-name="Odieresis.sc" horiz-adv-x="607" 
d="M304 572q56 0 103.5 -23.5t82 -63.5t53.5 -94.5t19 -115.5q0 -62 -16.5 -115t-49 -91t-80.5 -59.5t-111 -21.5t-111 21.5t-81 60t-50 91t-17 114.5q0 61 19.5 115.5t54 94.5t81.5 63.5t103 23.5zM304 504q-44 0 -78 -19t-57 -50.5t-35.5 -73t-12.5 -86.5q0 -47 12 -87
t35.5 -68.5t58 -44.5t78.5 -16t78 16t57 44.5t35 68.5t12 87q0 46 -12 87.5t-35.5 73t-57.5 50t-78 18.5zM402 730q26 0 40.5 -14.5t14.5 -40.5t-14.5 -41t-40.5 -15q-28 0 -42.5 15t-14.5 41t14.5 40.5t42.5 14.5zM206 730q27 0 42 -15t15 -41q0 -25 -15 -40t-42 -15
q-26 0 -40.5 15t-14.5 40q0 26 14.5 41t40.5 15z" />
    <glyph glyph-name="Oslash.sc" horiz-adv-x="607" 
d="M305 -12q-87 0 -146 41l-29 -40l-51 39l32 44q-32 38 -48.5 90t-16.5 113t19.5 115.5t54 94.5t81.5 63.5t103 23.5q39 0 73.5 -11.5t63.5 -32.5l34 46l54 -39l-38 -52q34 -41 52.5 -94t18.5 -114q0 -62 -16.5 -115t-49 -91t-80.5 -59.5t-111 -21.5zM304 504
q-44 0 -78 -19t-57 -50.5t-35.5 -73t-12.5 -86.5q0 -41 9 -76t27 -63l244 337q-40 31 -97 31zM203 89q20 -14 46 -22t56 -8q44 0 78 16t57 44.5t35 68.5t12 87q0 85 -40 148z" />
    <glyph glyph-name="Thorn.sc" horiz-adv-x="511" 
d="M156 499h143q41 0 74.5 -9.5t57.5 -29.5t37 -50.5t13 -73.5q0 -44 -14.5 -75.5t-40 -51.5t-60 -30t-74.5 -10h-136v-169h-75v560h75v-61zM156 431v-194h123q63 0 95 24t32 75q0 49 -25.5 72t-86.5 23h-138z" />
    <glyph glyph-name="Rcommaaccent.sc" horiz-adv-x="538" 
d="M297 560q97 0 141.5 -40.5t44.5 -111.5q0 -74 -48 -114.5t-136 -42.5l175 -251h-93l-168 251h-56v-251h-76v560h216zM156 492v-175h124q64 0 96 21.5t32 69.5q0 47 -27 65.5t-85 18.5h-140zM258 -55q28 0 44.5 -19t16.5 -49q0 -33 -17.5 -65.5t-37.5 -53.5h-37v3
q11 16 20.5 35t9.5 40q-29 0 -42.5 14.5t-13.5 37.5q0 26 14.5 41.5t42.5 15.5z" />
    <glyph glyph-name="Rcaron.sc" horiz-adv-x="538" 
d="M297 560q97 0 141.5 -40.5t44.5 -111.5q0 -74 -48 -114.5t-136 -42.5l175 -251h-93l-168 251h-56v-251h-76v560h216zM156 492v-175h124q64 0 96 21.5t32 69.5q0 47 -27 65.5t-85 18.5h-140zM322 625h-125l-78 105h92l47 -73h3l47 73h92z" />
    <glyph glyph-name="Racute.sc" horiz-adv-x="538" 
d="M297 560q97 0 141.5 -40.5t44.5 -111.5q0 -74 -48 -114.5t-136 -42.5l175 -251h-93l-168 251h-56v-251h-76v560h216zM156 492v-175h124q64 0 96 21.5t32 69.5q0 47 -27 65.5t-85 18.5h-140zM304 625h-89l62 106h128z" />
    <glyph glyph-name="Sacute.sc" horiz-adv-x="506" 
d="M234 572q42 0 76.5 -10.5t61.5 -27t46 -36t30 -36.5l-41 -63h-4q-26 42 -68 73.5t-102 31.5q-29 0 -49.5 -8t-33.5 -20t-19 -27t-6 -29q0 -15 5 -28t21 -25.5t46.5 -25t81.5 -25.5q100 -26 143.5 -65.5t43.5 -107.5q0 -35 -14.5 -63.5t-40.5 -48.5t-62 -31.5t-78 -11.5
t-80 11t-69 28.5t-54.5 40t-36.5 45.5l43 65h3q31 -51 78.5 -85.5t112.5 -34.5t94.5 26t29.5 59q0 18 -5 33t-22.5 29t-50 27t-86.5 27q-95 24 -136 61t-41 99q0 29 12 56.5t35 49t57 34.5t79 13zM265 625h-89l62 106h128z" />
    <glyph glyph-name="Scaron.sc" horiz-adv-x="506" 
d="M234 572q42 0 76.5 -10.5t61.5 -27t46 -36t30 -36.5l-41 -63h-4q-26 42 -68 73.5t-102 31.5q-29 0 -49.5 -8t-33.5 -20t-19 -27t-6 -29q0 -15 5 -28t21 -25.5t46.5 -25t81.5 -25.5q100 -26 143.5 -65.5t43.5 -107.5q0 -35 -14.5 -63.5t-40.5 -48.5t-62 -31.5t-78 -11.5
t-80 11t-69 28.5t-54.5 40t-36.5 45.5l43 65h3q31 -51 78.5 -85.5t112.5 -34.5t94.5 26t29.5 59q0 18 -5 33t-22.5 29t-50 27t-86.5 27q-95 24 -136 61t-41 99q0 29 12 56.5t35 49t57 34.5t79 13zM283 625h-125l-78 105h92l47 -73h3l47 73h92z" />
    <glyph glyph-name="Scircumflex.sc" horiz-adv-x="506" 
d="M234 572q42 0 76.5 -10.5t61.5 -27t46 -36t30 -36.5l-41 -63h-4q-26 42 -68 73.5t-102 31.5q-29 0 -49.5 -8t-33.5 -20t-19 -27t-6 -29q0 -15 5 -28t21 -25.5t46.5 -25t81.5 -25.5q100 -26 143.5 -65.5t43.5 -107.5q0 -35 -14.5 -63.5t-40.5 -48.5t-62 -31.5t-78 -11.5
t-80 11t-69 28.5t-54.5 40t-36.5 45.5l43 65h3q31 -51 78.5 -85.5t112.5 -34.5t94.5 26t29.5 59q0 18 -5 33t-22.5 29t-50 27t-86.5 27q-95 24 -136 61t-41 99q0 29 12 56.5t35 49t57 34.5t79 13zM361 625h-92l-47 72h-3l-47 -72h-92l78 105h125z" />
    <glyph glyph-name="Scommaaccent.sc" horiz-adv-x="506" 
d="M234 572q42 0 76.5 -10.5t61.5 -27t46 -36t30 -36.5l-41 -63h-4q-26 42 -68 73.5t-102 31.5q-29 0 -49.5 -8t-33.5 -20t-19 -27t-6 -29q0 -15 5 -28t21 -25.5t46.5 -25t81.5 -25.5q100 -26 143.5 -65.5t43.5 -107.5q0 -35 -14.5 -63.5t-40.5 -48.5t-62 -31.5t-78 -11.5
t-80 11t-69 28.5t-54.5 40t-36.5 45.5l43 65h3q31 -51 78.5 -85.5t112.5 -34.5t94.5 26t29.5 59q0 18 -5 33t-22.5 29t-50 27t-86.5 27q-95 24 -136 61t-41 99q0 29 12 56.5t35 49t57 34.5t79 13zM255 -55q28 0 44.5 -19t16.5 -49q0 -33 -17.5 -65.5t-37.5 -53.5h-37v3
q11 16 20.5 35t9.5 40q-29 0 -42.5 14.5t-13.5 37.5q0 26 14.5 41.5t42.5 15.5z" />
    <glyph glyph-name="Scedilla.sc" horiz-adv-x="506" 
d="M234 572q42 0 76.5 -10.5t61.5 -27t46 -36t30 -36.5l-41 -63h-4q-26 42 -68 73.5t-102 31.5q-29 0 -49.5 -8t-33.5 -20t-19 -27t-6 -29q0 -15 5 -28t21 -25.5t46.5 -25t81.5 -25.5q100 -26 143.5 -65.5t43.5 -107.5q0 -35 -14.5 -63.5t-40.5 -48.5t-62 -31.5t-78 -11.5
t-80 11t-69 28.5t-54.5 40t-36.5 45.5l43 65h3q31 -51 78.5 -85.5t112.5 -34.5t94.5 26t29.5 59q0 18 -5 33t-22.5 29t-50 27t-86.5 27q-95 24 -136 61t-41 99q0 29 12 56.5t35 49t57 34.5t79 13zM229 -75l1 -1q11 6 26.5 10t33.5 4q17 0 33 -4.5t29 -14.5t20.5 -26t7.5 -39
q0 -46 -31.5 -69t-82.5 -23q-35 0 -59.5 9t-40.5 20l17 54h3q13 -11 31.5 -19.5t39.5 -8.5q24 0 38.5 10t14.5 28q0 38 -52 38q-31 0 -53 -14l-31 23l56 98h46z" />
    <glyph glyph-name="Tbar.sc" horiz-adv-x="444" 
d="M424 492h-166v-179h138v-60h-138v-253h-73v253h-138v60h138v179h-164v68h403v-68z" />
    <glyph glyph-name="Tcaron.sc" horiz-adv-x="444" 
d="M424 492h-166v-492h-73v492h-164v68h403v-68zM285 625h-125l-78 105h92l47 -73h3l47 73h92z" />
    <glyph glyph-name="Uacute.sc" horiz-adv-x="576" 
d="M505 207q0 -45 -13 -85t-39 -69.5t-67 -47t-96 -17.5q-56 0 -97 17.5t-68 47t-40.5 69.5t-13.5 85v353h75v-338q0 -75 36 -118.5t108 -43.5t106 43.5t34 118.5v338h75v-353zM333 625h-89l62 106h128z" />
    <glyph glyph-name="Ucircumflex.sc" horiz-adv-x="576" 
d="M505 207q0 -45 -13 -85t-39 -69.5t-67 -47t-96 -17.5q-56 0 -97 17.5t-68 47t-40.5 69.5t-13.5 85v353h75v-338q0 -75 36 -118.5t108 -43.5t106 43.5t34 118.5v338h75v-353zM429 625h-92l-47 72h-3l-47 -72h-92l78 105h125z" />
    <glyph glyph-name="Udieresis.sc" horiz-adv-x="576" 
d="M505 207q0 -45 -13 -85t-39 -69.5t-67 -47t-96 -17.5q-56 0 -97 17.5t-68 47t-40.5 69.5t-13.5 85v353h75v-338q0 -75 36 -118.5t108 -43.5t106 43.5t34 118.5v338h75v-353zM386 730q26 0 40.5 -14.5t14.5 -40.5t-14.5 -41t-40.5 -15q-28 0 -42.5 15t-14.5 41t14.5 40.5
t42.5 14.5zM190 730q27 0 42 -15t15 -41q0 -25 -15 -40t-42 -15q-26 0 -40.5 15t-14.5 40q0 26 14.5 41t40.5 15z" />
    <glyph glyph-name="Umacron.sc" horiz-adv-x="576" 
d="M505 207q0 -45 -13 -85t-39 -69.5t-67 -47t-96 -17.5q-56 0 -97 17.5t-68 47t-40.5 69.5t-13.5 85v353h75v-338q0 -75 36 -118.5t108 -43.5t106 43.5t34 118.5v338h75v-353zM430 625h-283v66h283v-66z" />
    <glyph glyph-name="Uring.sc" horiz-adv-x="576" 
d="M505 207q0 -45 -13 -85t-39 -69.5t-67 -47t-96 -17.5q-56 0 -97 17.5t-68 47t-40.5 69.5t-13.5 85v353h75v-338q0 -75 36 -118.5t108 -43.5t106 43.5t34 118.5v338h75v-353zM289 800q22 0 40.5 -8t32 -21.5t21 -32t7.5 -39.5t-7.5 -39.5t-21 -32t-32 -21.5t-40.5 -8
t-40.5 8t-32 21.5t-21 32t-7.5 39.5t7.5 39.5t21 32t32 21.5t40.5 8zM288 747q-21 0 -33.5 -14t-12.5 -34t12.5 -34t33.5 -14q22 0 34.5 14t12.5 34t-12.5 34t-34.5 14z" />
    <glyph glyph-name="Uhungarumlaut.sc" horiz-adv-x="576" 
d="M505 207q0 -45 -13 -85t-39 -69.5t-67 -47t-96 -17.5q-56 0 -97 17.5t-68 47t-40.5 69.5t-13.5 85v353h75v-338q0 -75 36 -118.5t108 -43.5t106 43.5t34 118.5v338h75v-353zM405 625h-85l69 105h119zM234 625h-85l69 105h119z" />
    <glyph glyph-name="Ubreve.sc" horiz-adv-x="576" 
d="M505 207q0 -45 -13 -85t-39 -69.5t-67 -47t-96 -17.5q-56 0 -97 17.5t-68 47t-40.5 69.5t-13.5 85v353h75v-338q0 -75 36 -118.5t108 -43.5t106 43.5t34 118.5v338h75v-353zM413 750q0 -60 -33.5 -95.5t-90.5 -35.5t-90.5 35.5t-33.5 95.5h44q11 -58 80 -58q33 0 54 15
t26 43h44z" />
    <glyph glyph-name="Utilde.sc" horiz-adv-x="576" 
d="M505 207q0 -45 -13 -85t-39 -69.5t-67 -47t-96 -17.5q-56 0 -97 17.5t-68 47t-40.5 69.5t-13.5 85v353h75v-338q0 -75 36 -118.5t108 -43.5t106 43.5t34 118.5v338h75v-353zM238 727q20 0 35 -5.5t27.5 -12l23.5 -12t23 -5.5q16 0 23 8t11 22h48q-9 -46 -28 -73.5
t-62 -27.5q-20 0 -35 5.5t-27.5 12l-23.5 12t-24 5.5q-26 0 -34 -31h-47q8 46 28 74t62 28z" />
    <glyph glyph-name="Uogonek.sc" horiz-adv-x="576" 
d="M505 207q0 -45 -13 -85t-39 -69.5t-67 -47t-96 -17.5q-56 0 -97 17.5t-68 47t-40.5 69.5t-13.5 85v353h75v-338q0 -75 36 -118.5t108 -43.5t106 43.5t34 118.5v338h75v-353zM372 0q-25 -14 -44 -42t-19 -60q0 -20 10 -32.5t35 -12.5q18 0 36 11t28 29h4l27 -38
q-16 -28 -45 -48t-68 -20q-27 0 -46 7.5t-31 19.5t-17.5 27.5t-5.5 32.5q0 35 20 70t52 56h64z" />
    <glyph glyph-name="Ugrave.sc" horiz-adv-x="576" 
d="M505 207q0 -45 -13 -85t-39 -69.5t-67 -47t-96 -17.5q-56 0 -97 17.5t-68 47t-40.5 69.5t-13.5 85v353h75v-338q0 -75 36 -118.5t108 -43.5t106 43.5t34 118.5v338h75v-353zM323 625h-89l-101 106h128z" />
    <glyph glyph-name="Wcircumflex.sc" horiz-adv-x="808" 
d="M642 0h-105l-132 487h-2l-132 -487h-105l-135 560h79l109 -481h2l131 481h105l131 -481h2l108 481h79zM545 625h-92l-47 72h-3l-47 -72h-92l78 105h125z" />
    <glyph glyph-name="Wdieresis.sc" horiz-adv-x="808" 
d="M642 0h-105l-132 487h-2l-132 -487h-105l-135 560h79l109 -481h2l131 481h105l131 -481h2l108 481h79zM502 730q26 0 40.5 -14.5t14.5 -40.5t-14.5 -41t-40.5 -15q-28 0 -42.5 15t-14.5 41t14.5 40.5t42.5 14.5zM306 730q27 0 42 -15t15 -41q0 -25 -15 -40t-42 -15
q-26 0 -40.5 15t-14.5 40q0 26 14.5 41t40.5 15z" />
    <glyph glyph-name="Wgrave.sc" horiz-adv-x="808" 
d="M642 0h-105l-132 487h-2l-132 -487h-105l-135 560h79l109 -481h2l131 481h105l131 -481h2l108 481h79zM439 625h-89l-101 106h128z" />
    <glyph glyph-name="Wacute.sc" horiz-adv-x="808" 
d="M642 0h-105l-132 487h-2l-132 -487h-105l-135 560h79l109 -481h2l131 481h105l131 -481h2l108 481h79zM449 625h-89l62 106h128z" />
    <glyph glyph-name="Yacute.sc" horiz-adv-x="462" 
d="M269 212v-212h-75v212l-183 348h84l135 -273h3l135 273h84zM276 625h-89l62 106h128z" />
    <glyph glyph-name="Ydieresis.sc" horiz-adv-x="462" 
d="M269 212v-212h-75v212l-183 348h84l135 -273h3l135 273h84zM329 730q26 0 40.5 -14.5t14.5 -40.5t-14.5 -41t-40.5 -15q-28 0 -42.5 15t-14.5 41t14.5 40.5t42.5 14.5zM133 730q27 0 42 -15t15 -41q0 -25 -15 -40t-42 -15q-26 0 -40.5 15t-14.5 40q0 26 14.5 41t40.5 15z
" />
    <glyph glyph-name="Ygrave.sc" horiz-adv-x="462" 
d="M269 212v-212h-75v212l-183 348h84l135 -273h3l135 273h84zM266 625h-89l-101 106h128z" />
    <glyph glyph-name="Ycircumflex.sc" horiz-adv-x="462" 
d="M269 212v-212h-75v212l-183 348h84l135 -273h3l135 273h84zM372 625h-92l-47 72h-3l-47 -72h-92l78 105h125z" />
    <glyph glyph-name="Zacute.sc" horiz-adv-x="444" 
d="M413 485l-301 -417h302v-68h-383v77l300 415h-300v68h382v-75zM268 625h-89l62 106h128z" />
    <glyph glyph-name="Zdotaccent.sc" horiz-adv-x="444" 
d="M413 485l-301 -417h302v-68h-383v77l300 415h-300v68h382v-75zM223 731q27 0 41.5 -15t14.5 -41t-14.5 -41t-41.5 -15t-41.5 15t-14.5 41t14.5 41t41.5 15z" />
    <glyph glyph-name="Zcaron.sc" horiz-adv-x="444" 
d="M413 485l-301 -417h302v-68h-383v77l300 415h-300v68h382v-75zM286 625h-125l-78 105h92l47 -73h3l47 73h92z" />
    <glyph glyph-name="AEacute.sc" horiz-adv-x="713" 
d="M653 493h-215v-175h215v-65h-215v-186h215v-67h-286v163h-203l-84 -163h-79l295 560h357v-67zM336 497l-139 -271h169v271h-30zM408 625h-89l62 106h128z" />
    <glyph glyph-name="Bdotaccent.sc" horiz-adv-x="527" 
d="M300 560q87 0 132 -38.5t45 -109.5q0 -28 -9.5 -48.5t-23 -35.5t-28 -24.5t-24.5 -15.5v-1q11 -4 26.5 -13.5t29.5 -25t24 -38.5t10 -55q0 -75 -44.5 -115t-146.5 -40h-210v560h219zM156 252v-184h130q65 0 94 23t29 68t-27.5 69t-87.5 24h-138zM156 492v-175h139
q22 0 42 5.5t35 16t23.5 27t8.5 37.5q0 44 -25.5 66.5t-85.5 22.5h-137zM255 731q27 0 41.5 -15t14.5 -41t-14.5 -41t-41.5 -15t-41.5 15t-14.5 41t14.5 41t41.5 15z" />
    <glyph glyph-name="Ddotaccent.sc" horiz-adv-x="579" 
d="M264 560q139 0 204 -66.5t65 -211.5q0 -146 -70.5 -214t-204.5 -68h-173v560h179zM160 492v-424h101q104 0 149 55t46 159q0 52 -9 91t-31 65.5t-59 40t-93 13.5h-104zM260 731q27 0 41.5 -15t14.5 -41t-14.5 -41t-41.5 -15t-41.5 15t-14.5 41t14.5 41t41.5 15z" />
    <glyph glyph-name="Ereversed.sc" horiz-adv-x="480" 
d="M60.0254 492h263.984v-178h-263.984v-65h263.984v-181h-263.984v-68h338.979v560h-338.979v-68z" />
    <glyph glyph-name="Fdotaccent.sc" horiz-adv-x="491" 
d="M441 492h-286v-182h283v-66h-283v-244h-74v560h360v-68zM267 731q27 0 41.5 -15t14.5 -41t-14.5 -41t-41.5 -15t-41.5 15t-14.5 41t14.5 41t41.5 15z" />
    <glyph glyph-name="Mdotaccent.sc" horiz-adv-x="740" 
d="M660 0h-71v498h-2l-178 -498h-77l-178 498h-2v-498h-71v560h125l163 -463h3l163 463h125v-560zM370 731q27 0 41.5 -15t14.5 -41t-14.5 -41t-41.5 -15t-41.5 15t-14.5 41t14.5 41t41.5 15z" />
    <glyph glyph-name="Oslashacute.sc" horiz-adv-x="607" 
d="M305 -12q-87 0 -146 41l-29 -40l-51 39l32 44q-32 38 -48.5 90t-16.5 113t19.5 115.5t54 94.5t81.5 63.5t103 23.5q39 0 73.5 -11.5t63.5 -32.5l34 46l54 -39l-38 -52q34 -41 52.5 -94t18.5 -114q0 -62 -16.5 -115t-49 -91t-80.5 -59.5t-111 -21.5zM304 504
q-44 0 -78 -19t-57 -50.5t-35.5 -73t-12.5 -86.5q0 -41 9 -76t27 -63l244 337q-40 31 -97 31zM203 89q20 -14 46 -22t56 -8q44 0 78 16t57 44.5t35 68.5t12 87q0 85 -40 148zM349 625h-89l62 106h128z" />
    <glyph glyph-name="Pdotaccent.sc" horiz-adv-x="511" 
d="M299 560q41 0 74.5 -9.5t57.5 -29.5t37 -50.5t13 -73.5q0 -44 -14.5 -75.5t-40 -51.5t-60 -30t-74.5 -10h-136v-230h-75v560h218zM156 492v-194h123q63 0 95 24t32 75q0 49 -25.5 72t-86.5 23h-138zM257 731q27 0 41.5 -15t14.5 -41t-14.5 -41t-41.5 -15t-41.5 15
t-14.5 41t14.5 41t41.5 15z" />
    <glyph glyph-name="Sdotaccent.sc" horiz-adv-x="506" 
d="M234 572q42 0 76.5 -10.5t61.5 -27t46 -36t30 -36.5l-41 -63h-4q-26 42 -68 73.5t-102 31.5q-29 0 -49.5 -8t-33.5 -20t-19 -27t-6 -29q0 -15 5 -28t21 -25.5t46.5 -25t81.5 -25.5q100 -26 143.5 -65.5t43.5 -107.5q0 -35 -14.5 -63.5t-40.5 -48.5t-62 -31.5t-78 -11.5
t-80 11t-69 28.5t-54.5 40t-36.5 45.5l43 65h3q31 -51 78.5 -85.5t112.5 -34.5t94.5 26t29.5 59q0 18 -5 33t-22.5 29t-50 27t-86.5 27q-95 24 -136 61t-41 99q0 29 12 56.5t35 49t57 34.5t79 13zM220 731q27 0 41.5 -15t14.5 -41t-14.5 -41t-41.5 -15t-41.5 15t-14.5 41
t14.5 41t41.5 15z" />
    <glyph glyph-name="Schwa.sc" horiz-adv-x="584" 
d="M286.019 -11.9648q-50.9971 0 -94.9941 19.498q-43.998 19.499 -76.4961 56.4971t-50.9971 89.4941q-18.498 52.4971 -18.498 118.493q0 6 0.5 11.499q0.5 5.5 0.5 10.5v10.999h416.975q-2 43.9971 -15.499 79.9951q-13.5 35.998 -36.998 61.9961
q-23.499 25.998 -55.9971 39.998q-32.498 13.999 -73.4951 13.999q-33.998 0 -61.9961 -10q-27.998 -9.99902 -49.9971 -25.498t-37.998 -33.998t-26.998 -35.498h-4l-36.9971 69.9961q31.998 44.9971 89.4941 75.4951t127.492 30.498q63.9961 0 112.493 -21.998
q48.4971 -21.999 80.4951 -60.9971q31.998 -38.9971 48.4971 -92.9941q16.499 -53.9961 16.499 -117.992t-19.999 -116.993t-54.4961 -91.4941q-34.498 -38.498 -80.4951 -59.9971q-45.998 -21.498 -96.9941 -21.498zM287.019 56.0312q35.9971 0 65.9951 13.999
q29.999 13.999 52.9971 38.4971q22.999 24.499 36.998 57.9971q13.999 33.4971 17.999 72.4951h-340.979q3 -44.9971 16.499 -79.4951t35.998 -57.4961q22.498 -22.999 51.4961 -34.498q28.999 -11.499 62.9971 -11.499z" />
    <glyph glyph-name="Tcedilla.sc" horiz-adv-x="444" 
d="M424 492h-166v-492h-73v492h-164v68h403v-68zM195 -75l1 -1q11 6 26.5 10t33.5 4q17 0 33 -4.5t29 -14.5t20.5 -26t7.5 -39q0 -46 -31.5 -69t-82.5 -23q-35 0 -59.5 9t-40.5 20l17 54h3q13 -11 31.5 -19.5t39.5 -8.5q24 0 38.5 10t14.5 28q0 38 -52 38q-31 0 -53 -14
l-31 23l56 98h46z" />
    </font>
</defs>
</svg>
