<?xml version="1.0" standalone="no"?>
<!DOCTYPE svg PUBLIC "-//W3C//DTD SVG 20010904//EN"
 "http://www.w3.org/TR/2001/REC-SVG-20010904/DTD/svg10.dtd">
<svg version="1.0" xmlns="http://www.w3.org/2000/svg"
 width="446.000000pt" height="446.000000pt" viewBox="0 0 446.000000 446.000000"
 preserveAspectRatio="xMidYMid meet">
<metadata>
Created by potrace 1.11, written by Peter Selinger 2001-2013
</metadata>
<g transform="translate(0.000000,446.000000) scale(0.100000,-0.100000)"
fill="#000000" stroke="none">
<path d="M1929 3866 c-2 -2 -26 -6 -54 -9 -83 -9 -154 -28 -241 -63 -92 -37
-142 -66 -225 -131 -30 -23 -58 -43 -62 -43 -4 0 -7 40 -7 90 l0 89 -445 1
-445 0 0 -1610 0 -1610 445 0 445 0 0 495 c0 272 3 495 8 495 4 0 23 -14 42
-30 93 -82 241 -156 370 -186 36 -9 74 -18 85 -21 51 -13 324 -11 405 3 290
51 546 211 715 449 123 172 209 405 232 632 13 126 6 358 -13 448 -2 11 -6 31
-8 45 -6 40 -45 169 -68 230 -103 266 -301 488 -544 609 -157 78 -325 117
-510 119 -67 1 -123 0 -125 -2z m24 -756 c144 -32 257 -137 328 -305 30 -71
42 -226 25 -330 -15 -91 -81 -224 -140 -280 -219 -208 -585 -159 -742 100 -62
102 -84 193 -79 320 4 101 5 108 34 186 90 239 325 366 574 309z"/>
<path d="M3650 2303 c-167 -30 -316 -162 -374 -329 -24 -69 -32 -199 -16 -265
54 -233 242 -380 485 -378 299 1 501 209 491 503 -9 268 -218 473 -485 473
-42 1 -87 -1 -101 -4z"/>
</g>
</svg>
